ISO-10303-21;
HEADER;
/* Generated by software containing ST-Developer
 * from STEP Tools, Inc. (www.steptools.com) 
 */

FILE_DESCRIPTION(
/* description */ (''),
/* implementation_level */ '2;1');

FILE_NAME(
/* name */ 'ALPS SKRK Series SMD Push Button v4.step',
/* time_stamp */ '2024-10-26T17:03:11+02:00',
/* author */ (''),
/* organization */ (''),
/* preprocessor_version */ 'ST-DEVELOPER v20',
/* originating_system */ 'Autodesk Translation Framework v13.20.0.188',

/* authorisation */ '');

FILE_SCHEMA (('AUTOMOTIVE_DESIGN { 1 0 10303 214 3 1 1 }'));
ENDSEC;

DATA;
#10=MECHANICAL_DESIGN_GEOMETRIC_PRESENTATION_REPRESENTATION('',(#451,#452,
#453,#454,#455,#456,#457,#458,#459,#460,#461,#462,#463,#464,#465,#466,#467,
#468,#469),#798);
#11=SHAPE_REPRESENTATION_RELATIONSHIP('SRR','None',#805,#12);
#12=ADVANCED_BREP_SHAPE_REPRESENTATION('',(#13),#797);
#13=MANIFOLD_SOLID_BREP('SKRK Button',#498);
#14=CYLINDRICAL_SURFACE('',#539,0.900000000000001);
#15=FACE_BOUND('',#62,.T.);
#16=CIRCLE('',#528,0.900000000000001);
#17=CIRCLE('',#540,0.900000000000001);
#18=FACE_OUTER_BOUND('',#46,.T.);
#19=FACE_OUTER_BOUND('',#47,.T.);
#20=FACE_OUTER_BOUND('',#48,.T.);
#21=FACE_OUTER_BOUND('',#49,.T.);
#22=FACE_OUTER_BOUND('',#50,.T.);
#23=FACE_OUTER_BOUND('',#51,.T.);
#24=FACE_OUTER_BOUND('',#52,.T.);
#25=FACE_OUTER_BOUND('',#53,.T.);
#26=FACE_OUTER_BOUND('',#54,.T.);
#27=FACE_OUTER_BOUND('',#55,.T.);
#28=FACE_OUTER_BOUND('',#56,.T.);
#29=FACE_OUTER_BOUND('',#57,.T.);
#30=FACE_OUTER_BOUND('',#58,.T.);
#31=FACE_OUTER_BOUND('',#59,.T.);
#32=FACE_OUTER_BOUND('',#60,.T.);
#33=FACE_OUTER_BOUND('',#61,.T.);
#34=FACE_OUTER_BOUND('',#63,.T.);
#35=FACE_OUTER_BOUND('',#64,.T.);
#36=FACE_OUTER_BOUND('',#65,.T.);
#37=FACE_OUTER_BOUND('',#66,.T.);
#38=FACE_OUTER_BOUND('',#67,.T.);
#39=FACE_OUTER_BOUND('',#68,.T.);
#40=FACE_OUTER_BOUND('',#69,.T.);
#41=FACE_OUTER_BOUND('',#70,.T.);
#42=FACE_OUTER_BOUND('',#71,.T.);
#43=FACE_OUTER_BOUND('',#72,.T.);
#44=FACE_OUTER_BOUND('',#73,.T.);
#45=FACE_OUTER_BOUND('',#74,.T.);
#46=EDGE_LOOP('',(#298,#299,#300));
#47=EDGE_LOOP('',(#301,#302,#303,#304));
#48=EDGE_LOOP('',(#305,#306,#307));
#49=EDGE_LOOP('',(#308,#309,#310,#311));
#50=EDGE_LOOP('',(#312,#313,#314));
#51=EDGE_LOOP('',(#315,#316,#317,#318));
#52=EDGE_LOOP('',(#319,#320,#321,#322));
#53=EDGE_LOOP('',(#323,#324,#325));
#54=EDGE_LOOP('',(#326,#327,#328,#329));
#55=EDGE_LOOP('',(#330,#331,#332,#333));
#56=EDGE_LOOP('',(#334,#335,#336,#337));
#57=EDGE_LOOP('',(#338,#339,#340,#341));
#58=EDGE_LOOP('',(#342,#343,#344,#345,#346,#347,#348,#349));
#59=EDGE_LOOP('',(#350,#351,#352,#353));
#60=EDGE_LOOP('',(#354,#355,#356,#357,#358,#359,#360,#361,#362,#363,#364,
#365,#366,#367,#368,#369));
#61=EDGE_LOOP('',(#370,#371,#372,#373));
#62=EDGE_LOOP('',(#374));
#63=EDGE_LOOP('',(#375,#376,#377,#378));
#64=EDGE_LOOP('',(#379,#380,#381,#382));
#65=EDGE_LOOP('',(#383,#384,#385,#386));
#66=EDGE_LOOP('',(#387,#388,#389,#390));
#67=EDGE_LOOP('',(#391,#392,#393,#394,#395,#396,#397,#398));
#68=EDGE_LOOP('',(#399,#400,#401,#402));
#69=EDGE_LOOP('',(#403,#404,#405,#406));
#70=EDGE_LOOP('',(#407,#408,#409,#410));
#71=EDGE_LOOP('',(#411,#412,#413,#414));
#72=EDGE_LOOP('',(#415,#416,#417,#418));
#73=EDGE_LOOP('',(#419,#420,#421,#422));
#74=EDGE_LOOP('',(#423));
#75=LINE('',#669,#136);
#76=LINE('',#671,#137);
#77=LINE('',#672,#138);
#78=LINE('',#676,#139);
#79=LINE('',#677,#140);
#80=LINE('',#678,#141);
#81=LINE('',#682,#142);
#82=LINE('',#684,#143);
#83=LINE('',#685,#144);
#84=LINE('',#689,#145);
#85=LINE('',#690,#146);
#86=LINE('',#691,#147);
#87=LINE('',#695,#148);
#88=LINE('',#697,#149);
#89=LINE('',#698,#150);
#90=LINE('',#702,#151);
#91=LINE('',#703,#152);
#92=LINE('',#704,#153);
#93=LINE('',#706,#154);
#94=LINE('',#707,#155);
#95=LINE('',#711,#156);
#96=LINE('',#713,#157);
#97=LINE('',#714,#158);
#98=LINE('',#718,#159);
#99=LINE('',#719,#160);
#100=LINE('',#720,#161);
#101=LINE('',#722,#162);
#102=LINE('',#723,#163);
#103=LINE('',#725,#164);
#104=LINE('',#726,#165);
#105=LINE('',#728,#166);
#106=LINE('',#729,#167);
#107=LINE('',#732,#168);
#108=LINE('',#734,#169);
#109=LINE('',#736,#170);
#110=LINE('',#738,#171);
#111=LINE('',#739,#172);
#112=LINE('',#741,#173);
#113=LINE('',#744,#174);
#114=LINE('',#746,#175);
#115=LINE('',#747,#176);
#116=LINE('',#749,#177);
#117=LINE('',#751,#178);
#118=LINE('',#753,#179);
#119=LINE('',#755,#180);
#120=LINE('',#756,#181);
#121=LINE('',#757,#182);
#122=LINE('',#763,#183);
#123=LINE('',#765,#184);
#124=LINE('',#766,#185);
#125=LINE('',#769,#186);
#126=LINE('',#770,#187);
#127=LINE('',#773,#188);
#128=LINE('',#774,#189);
#129=LINE('',#776,#190);
#130=LINE('',#780,#191);
#131=LINE('',#781,#192);
#132=LINE('',#784,#193);
#133=LINE('',#785,#194);
#134=LINE('',#787,#195);
#135=LINE('',#793,#196);
#136=VECTOR('',#546,10.);
#137=VECTOR('',#547,10.);
#138=VECTOR('',#548,10.);
#139=VECTOR('',#551,10.);
#140=VECTOR('',#552,10.);
#141=VECTOR('',#553,10.);
#142=VECTOR('',#556,10.);
#143=VECTOR('',#557,10.);
#144=VECTOR('',#558,10.);
#145=VECTOR('',#561,10.);
#146=VECTOR('',#562,10.);
#147=VECTOR('',#563,10.);
#148=VECTOR('',#566,10.);
#149=VECTOR('',#567,10.);
#150=VECTOR('',#568,10.);
#151=VECTOR('',#571,10.);
#152=VECTOR('',#572,10.);
#153=VECTOR('',#573,10.);
#154=VECTOR('',#576,10.);
#155=VECTOR('',#577,10.);
#156=VECTOR('',#580,10.);
#157=VECTOR('',#581,10.);
#158=VECTOR('',#582,10.);
#159=VECTOR('',#585,10.);
#160=VECTOR('',#586,10.);
#161=VECTOR('',#587,10.);
#162=VECTOR('',#590,10.);
#163=VECTOR('',#591,10.);
#164=VECTOR('',#594,10.);
#165=VECTOR('',#595,10.);
#166=VECTOR('',#598,10.);
#167=VECTOR('',#599,10.);
#168=VECTOR('',#602,10.);
#169=VECTOR('',#603,10.);
#170=VECTOR('',#604,10.);
#171=VECTOR('',#605,10.);
#172=VECTOR('',#606,10.);
#173=VECTOR('',#609,10.);
#174=VECTOR('',#612,10.);
#175=VECTOR('',#613,10.);
#176=VECTOR('',#614,10.);
#177=VECTOR('',#615,10.);
#178=VECTOR('',#616,10.);
#179=VECTOR('',#617,10.);
#180=VECTOR('',#618,10.);
#181=VECTOR('',#619,10.);
#182=VECTOR('',#620,10.);
#183=VECTOR('',#627,10.);
#184=VECTOR('',#628,10.);
#185=VECTOR('',#629,10.);
#186=VECTOR('',#632,10.);
#187=VECTOR('',#633,10.);
#188=VECTOR('',#636,10.);
#189=VECTOR('',#637,10.);
#190=VECTOR('',#640,10.);
#191=VECTOR('',#645,10.);
#192=VECTOR('',#646,10.);
#193=VECTOR('',#649,10.);
#194=VECTOR('',#650,10.);
#195=VECTOR('',#653,10.);
#196=VECTOR('',#662,0.900000000000001);
#197=VERTEX_POINT('',#667);
#198=VERTEX_POINT('',#668);
#199=VERTEX_POINT('',#670);
#200=VERTEX_POINT('',#674);
#201=VERTEX_POINT('',#675);
#202=VERTEX_POINT('',#680);
#203=VERTEX_POINT('',#681);
#204=VERTEX_POINT('',#683);
#205=VERTEX_POINT('',#687);
#206=VERTEX_POINT('',#688);
#207=VERTEX_POINT('',#693);
#208=VERTEX_POINT('',#694);
#209=VERTEX_POINT('',#696);
#210=VERTEX_POINT('',#700);
#211=VERTEX_POINT('',#701);
#212=VERTEX_POINT('',#709);
#213=VERTEX_POINT('',#710);
#214=VERTEX_POINT('',#712);
#215=VERTEX_POINT('',#716);
#216=VERTEX_POINT('',#717);
#217=VERTEX_POINT('',#731);
#218=VERTEX_POINT('',#733);
#219=VERTEX_POINT('',#735);
#220=VERTEX_POINT('',#737);
#221=VERTEX_POINT('',#743);
#222=VERTEX_POINT('',#745);
#223=VERTEX_POINT('',#748);
#224=VERTEX_POINT('',#750);
#225=VERTEX_POINT('',#752);
#226=VERTEX_POINT('',#754);
#227=VERTEX_POINT('',#759);
#228=VERTEX_POINT('',#762);
#229=VERTEX_POINT('',#764);
#230=VERTEX_POINT('',#768);
#231=VERTEX_POINT('',#772);
#232=VERTEX_POINT('',#779);
#233=VERTEX_POINT('',#783);
#234=VERTEX_POINT('',#791);
#235=EDGE_CURVE('',#197,#198,#75,.T.);
#236=EDGE_CURVE('',#199,#197,#76,.T.);
#237=EDGE_CURVE('',#198,#199,#77,.T.);
#238=EDGE_CURVE('',#200,#201,#78,.T.);
#239=EDGE_CURVE('',#201,#199,#79,.T.);
#240=EDGE_CURVE('',#197,#200,#80,.T.);
#241=EDGE_CURVE('',#202,#203,#81,.T.);
#242=EDGE_CURVE('',#204,#202,#82,.T.);
#243=EDGE_CURVE('',#203,#204,#83,.T.);
#244=EDGE_CURVE('',#205,#206,#84,.T.);
#245=EDGE_CURVE('',#206,#204,#85,.T.);
#246=EDGE_CURVE('',#202,#205,#86,.T.);
#247=EDGE_CURVE('',#207,#208,#87,.T.);
#248=EDGE_CURVE('',#209,#207,#88,.T.);
#249=EDGE_CURVE('',#208,#209,#89,.T.);
#250=EDGE_CURVE('',#210,#211,#90,.T.);
#251=EDGE_CURVE('',#211,#209,#91,.T.);
#252=EDGE_CURVE('',#207,#210,#92,.T.);
#253=EDGE_CURVE('',#198,#208,#93,.T.);
#254=EDGE_CURVE('',#209,#197,#94,.T.);
#255=EDGE_CURVE('',#212,#213,#95,.T.);
#256=EDGE_CURVE('',#214,#212,#96,.T.);
#257=EDGE_CURVE('',#213,#214,#97,.T.);
#258=EDGE_CURVE('',#215,#216,#98,.T.);
#259=EDGE_CURVE('',#216,#214,#99,.T.);
#260=EDGE_CURVE('',#212,#215,#100,.T.);
#261=EDGE_CURVE('',#208,#213,#101,.T.);
#262=EDGE_CURVE('',#214,#207,#102,.T.);
#263=EDGE_CURVE('',#213,#203,#103,.T.);
#264=EDGE_CURVE('',#204,#212,#104,.T.);
#265=EDGE_CURVE('',#203,#198,#105,.T.);
#266=EDGE_CURVE('',#199,#202,#106,.T.);
#267=EDGE_CURVE('',#211,#217,#107,.T.);
#268=EDGE_CURVE('',#217,#218,#108,.T.);
#269=EDGE_CURVE('',#218,#219,#109,.T.);
#270=EDGE_CURVE('',#219,#220,#110,.T.);
#271=EDGE_CURVE('',#220,#200,#111,.T.);
#272=EDGE_CURVE('',#216,#210,#112,.T.);
#273=EDGE_CURVE('',#220,#221,#113,.T.);
#274=EDGE_CURVE('',#221,#222,#114,.T.);
#275=EDGE_CURVE('',#222,#217,#115,.T.);
#276=EDGE_CURVE('',#223,#215,#116,.T.);
#277=EDGE_CURVE('',#223,#224,#117,.T.);
#278=EDGE_CURVE('',#224,#225,#118,.T.);
#279=EDGE_CURVE('',#225,#226,#119,.T.);
#280=EDGE_CURVE('',#206,#226,#120,.T.);
#281=EDGE_CURVE('',#201,#205,#121,.T.);
#282=EDGE_CURVE('',#227,#227,#16,.T.);
#283=EDGE_CURVE('',#228,#223,#122,.T.);
#284=EDGE_CURVE('',#229,#228,#123,.T.);
#285=EDGE_CURVE('',#224,#229,#124,.T.);
#286=EDGE_CURVE('',#230,#229,#125,.T.);
#287=EDGE_CURVE('',#225,#230,#126,.T.);
#288=EDGE_CURVE('',#231,#230,#127,.T.);
#289=EDGE_CURVE('',#226,#231,#128,.T.);
#290=EDGE_CURVE('',#231,#228,#129,.T.);
#291=EDGE_CURVE('',#232,#219,#130,.T.);
#292=EDGE_CURVE('',#221,#232,#131,.T.);
#293=EDGE_CURVE('',#233,#232,#132,.T.);
#294=EDGE_CURVE('',#222,#233,#133,.T.);
#295=EDGE_CURVE('',#218,#233,#134,.T.);
#296=EDGE_CURVE('',#234,#234,#17,.T.);
#297=EDGE_CURVE('',#234,#227,#135,.T.);
#298=ORIENTED_EDGE('',*,*,#235,.F.);
#299=ORIENTED_EDGE('',*,*,#236,.F.);
#300=ORIENTED_EDGE('',*,*,#237,.F.);
#301=ORIENTED_EDGE('',*,*,#238,.T.);
#302=ORIENTED_EDGE('',*,*,#239,.T.);
#303=ORIENTED_EDGE('',*,*,#236,.T.);
#304=ORIENTED_EDGE('',*,*,#240,.T.);
#305=ORIENTED_EDGE('',*,*,#241,.F.);
#306=ORIENTED_EDGE('',*,*,#242,.F.);
#307=ORIENTED_EDGE('',*,*,#243,.F.);
#308=ORIENTED_EDGE('',*,*,#244,.T.);
#309=ORIENTED_EDGE('',*,*,#245,.T.);
#310=ORIENTED_EDGE('',*,*,#242,.T.);
#311=ORIENTED_EDGE('',*,*,#246,.T.);
#312=ORIENTED_EDGE('',*,*,#247,.F.);
#313=ORIENTED_EDGE('',*,*,#248,.F.);
#314=ORIENTED_EDGE('',*,*,#249,.F.);
#315=ORIENTED_EDGE('',*,*,#250,.T.);
#316=ORIENTED_EDGE('',*,*,#251,.T.);
#317=ORIENTED_EDGE('',*,*,#248,.T.);
#318=ORIENTED_EDGE('',*,*,#252,.T.);
#319=ORIENTED_EDGE('',*,*,#235,.T.);
#320=ORIENTED_EDGE('',*,*,#253,.T.);
#321=ORIENTED_EDGE('',*,*,#249,.T.);
#322=ORIENTED_EDGE('',*,*,#254,.T.);
#323=ORIENTED_EDGE('',*,*,#255,.F.);
#324=ORIENTED_EDGE('',*,*,#256,.F.);
#325=ORIENTED_EDGE('',*,*,#257,.F.);
#326=ORIENTED_EDGE('',*,*,#258,.T.);
#327=ORIENTED_EDGE('',*,*,#259,.T.);
#328=ORIENTED_EDGE('',*,*,#256,.T.);
#329=ORIENTED_EDGE('',*,*,#260,.T.);
#330=ORIENTED_EDGE('',*,*,#247,.T.);
#331=ORIENTED_EDGE('',*,*,#261,.T.);
#332=ORIENTED_EDGE('',*,*,#257,.T.);
#333=ORIENTED_EDGE('',*,*,#262,.T.);
#334=ORIENTED_EDGE('',*,*,#255,.T.);
#335=ORIENTED_EDGE('',*,*,#263,.T.);
#336=ORIENTED_EDGE('',*,*,#243,.T.);
#337=ORIENTED_EDGE('',*,*,#264,.T.);
#338=ORIENTED_EDGE('',*,*,#241,.T.);
#339=ORIENTED_EDGE('',*,*,#265,.T.);
#340=ORIENTED_EDGE('',*,*,#237,.T.);
#341=ORIENTED_EDGE('',*,*,#266,.T.);
#342=ORIENTED_EDGE('',*,*,#240,.F.);
#343=ORIENTED_EDGE('',*,*,#254,.F.);
#344=ORIENTED_EDGE('',*,*,#251,.F.);
#345=ORIENTED_EDGE('',*,*,#267,.T.);
#346=ORIENTED_EDGE('',*,*,#268,.T.);
#347=ORIENTED_EDGE('',*,*,#269,.T.);
#348=ORIENTED_EDGE('',*,*,#270,.T.);
#349=ORIENTED_EDGE('',*,*,#271,.T.);
#350=ORIENTED_EDGE('',*,*,#252,.F.);
#351=ORIENTED_EDGE('',*,*,#262,.F.);
#352=ORIENTED_EDGE('',*,*,#259,.F.);
#353=ORIENTED_EDGE('',*,*,#272,.T.);
#354=ORIENTED_EDGE('',*,*,#238,.F.);
#355=ORIENTED_EDGE('',*,*,#271,.F.);
#356=ORIENTED_EDGE('',*,*,#273,.T.);
#357=ORIENTED_EDGE('',*,*,#274,.T.);
#358=ORIENTED_EDGE('',*,*,#275,.T.);
#359=ORIENTED_EDGE('',*,*,#267,.F.);
#360=ORIENTED_EDGE('',*,*,#250,.F.);
#361=ORIENTED_EDGE('',*,*,#272,.F.);
#362=ORIENTED_EDGE('',*,*,#258,.F.);
#363=ORIENTED_EDGE('',*,*,#276,.F.);
#364=ORIENTED_EDGE('',*,*,#277,.T.);
#365=ORIENTED_EDGE('',*,*,#278,.T.);
#366=ORIENTED_EDGE('',*,*,#279,.T.);
#367=ORIENTED_EDGE('',*,*,#280,.F.);
#368=ORIENTED_EDGE('',*,*,#244,.F.);
#369=ORIENTED_EDGE('',*,*,#281,.F.);
#370=ORIENTED_EDGE('',*,*,#253,.F.);
#371=ORIENTED_EDGE('',*,*,#265,.F.);
#372=ORIENTED_EDGE('',*,*,#263,.F.);
#373=ORIENTED_EDGE('',*,*,#261,.F.);
#374=ORIENTED_EDGE('',*,*,#282,.F.);
#375=ORIENTED_EDGE('',*,*,#277,.F.);
#376=ORIENTED_EDGE('',*,*,#283,.F.);
#377=ORIENTED_EDGE('',*,*,#284,.F.);
#378=ORIENTED_EDGE('',*,*,#285,.F.);
#379=ORIENTED_EDGE('',*,*,#278,.F.);
#380=ORIENTED_EDGE('',*,*,#285,.T.);
#381=ORIENTED_EDGE('',*,*,#286,.F.);
#382=ORIENTED_EDGE('',*,*,#287,.F.);
#383=ORIENTED_EDGE('',*,*,#279,.F.);
#384=ORIENTED_EDGE('',*,*,#287,.T.);
#385=ORIENTED_EDGE('',*,*,#288,.F.);
#386=ORIENTED_EDGE('',*,*,#289,.F.);
#387=ORIENTED_EDGE('',*,*,#288,.T.);
#388=ORIENTED_EDGE('',*,*,#286,.T.);
#389=ORIENTED_EDGE('',*,*,#284,.T.);
#390=ORIENTED_EDGE('',*,*,#290,.F.);
#391=ORIENTED_EDGE('',*,*,#245,.F.);
#392=ORIENTED_EDGE('',*,*,#280,.T.);
#393=ORIENTED_EDGE('',*,*,#289,.T.);
#394=ORIENTED_EDGE('',*,*,#290,.T.);
#395=ORIENTED_EDGE('',*,*,#283,.T.);
#396=ORIENTED_EDGE('',*,*,#276,.T.);
#397=ORIENTED_EDGE('',*,*,#260,.F.);
#398=ORIENTED_EDGE('',*,*,#264,.F.);
#399=ORIENTED_EDGE('',*,*,#273,.F.);
#400=ORIENTED_EDGE('',*,*,#270,.F.);
#401=ORIENTED_EDGE('',*,*,#291,.F.);
#402=ORIENTED_EDGE('',*,*,#292,.F.);
#403=ORIENTED_EDGE('',*,*,#274,.F.);
#404=ORIENTED_EDGE('',*,*,#292,.T.);
#405=ORIENTED_EDGE('',*,*,#293,.F.);
#406=ORIENTED_EDGE('',*,*,#294,.F.);
#407=ORIENTED_EDGE('',*,*,#275,.F.);
#408=ORIENTED_EDGE('',*,*,#294,.T.);
#409=ORIENTED_EDGE('',*,*,#295,.F.);
#410=ORIENTED_EDGE('',*,*,#268,.F.);
#411=ORIENTED_EDGE('',*,*,#295,.T.);
#412=ORIENTED_EDGE('',*,*,#293,.T.);
#413=ORIENTED_EDGE('',*,*,#291,.T.);
#414=ORIENTED_EDGE('',*,*,#269,.F.);
#415=ORIENTED_EDGE('',*,*,#239,.F.);
#416=ORIENTED_EDGE('',*,*,#281,.T.);
#417=ORIENTED_EDGE('',*,*,#246,.F.);
#418=ORIENTED_EDGE('',*,*,#266,.F.);
#419=ORIENTED_EDGE('',*,*,#296,.F.);
#420=ORIENTED_EDGE('',*,*,#297,.T.);
#421=ORIENTED_EDGE('',*,*,#282,.T.);
#422=ORIENTED_EDGE('',*,*,#297,.F.);
#423=ORIENTED_EDGE('',*,*,#296,.T.);
#424=PLANE('',#512);
#425=PLANE('',#513);
#426=PLANE('',#514);
#427=PLANE('',#515);
#428=PLANE('',#516);
#429=PLANE('',#517);
#430=PLANE('',#518);
#431=PLANE('',#519);
#432=PLANE('',#520);
#433=PLANE('',#521);
#434=PLANE('',#522);
#435=PLANE('',#523);
#436=PLANE('',#524);
#437=PLANE('',#525);
#438=PLANE('',#526);
#439=PLANE('',#527);
#440=PLANE('',#529);
#441=PLANE('',#530);
#442=PLANE('',#531);
#443=PLANE('',#532);
#444=PLANE('',#533);
#445=PLANE('',#534);
#446=PLANE('',#535);
#447=PLANE('',#536);
#448=PLANE('',#537);
#449=PLANE('',#538);
#450=PLANE('',#541);
#451=STYLED_ITEM('',(#815),#470);
#452=STYLED_ITEM('',(#816),#471);
#453=STYLED_ITEM('',(#815),#472);
#454=STYLED_ITEM('',(#816),#473);
#455=STYLED_ITEM('',(#815),#474);
#456=STYLED_ITEM('',(#816),#475);
#457=STYLED_ITEM('',(#815),#476);
#458=STYLED_ITEM('',(#815),#477);
#459=STYLED_ITEM('',(#816),#478);
#460=STYLED_ITEM('',(#815),#480);
#461=STYLED_ITEM('',(#815),#481);
#462=STYLED_ITEM('',(#816),#482);
#463=STYLED_ITEM('',(#816),#483);
#464=STYLED_ITEM('',(#816),#484);
#465=STYLED_ITEM('',(#816),#490);
#466=STYLED_ITEM('',(#816),#495);
#467=STYLED_ITEM('',(#816),#496);
#468=STYLED_ITEM('',(#816),#497);
#469=STYLED_ITEM('',(#814),#13);
#470=ADVANCED_FACE('',(#18),#424,.T.);
#471=ADVANCED_FACE('',(#19),#425,.T.);
#472=ADVANCED_FACE('',(#20),#426,.T.);
#473=ADVANCED_FACE('',(#21),#427,.T.);
#474=ADVANCED_FACE('',(#22),#428,.T.);
#475=ADVANCED_FACE('',(#23),#429,.T.);
#476=ADVANCED_FACE('',(#24),#430,.T.);
#477=ADVANCED_FACE('',(#25),#431,.T.);
#478=ADVANCED_FACE('',(#26),#432,.T.);
#479=ADVANCED_FACE('',(#27),#433,.T.);
#480=ADVANCED_FACE('',(#28),#434,.T.);
#481=ADVANCED_FACE('',(#29),#435,.T.);
#482=ADVANCED_FACE('',(#30),#436,.T.);
#483=ADVANCED_FACE('',(#31),#437,.T.);
#484=ADVANCED_FACE('',(#32),#438,.F.);
#485=ADVANCED_FACE('',(#33,#15),#439,.T.);
#486=ADVANCED_FACE('',(#34),#440,.T.);
#487=ADVANCED_FACE('',(#35),#441,.T.);
#488=ADVANCED_FACE('',(#36),#442,.T.);
#489=ADVANCED_FACE('',(#37),#443,.T.);
#490=ADVANCED_FACE('',(#38),#444,.T.);
#491=ADVANCED_FACE('',(#39),#445,.T.);
#492=ADVANCED_FACE('',(#40),#446,.T.);
#493=ADVANCED_FACE('',(#41),#447,.T.);
#494=ADVANCED_FACE('',(#42),#448,.T.);
#495=ADVANCED_FACE('',(#43),#449,.T.);
#496=ADVANCED_FACE('',(#44),#14,.T.);
#497=ADVANCED_FACE('',(#45),#450,.T.);
#498=CLOSED_SHELL('',(#470,#471,#472,#473,#474,#475,#476,#477,#478,#479,
#480,#481,#482,#483,#484,#485,#486,#487,#488,#489,#490,#491,#492,#493,#494,
#495,#496,#497));
#499=DERIVED_UNIT_ELEMENT(#501,1.);
#500=DERIVED_UNIT_ELEMENT(#800,-3.);
#501=(
MASS_UNIT()
NAMED_UNIT(*)
SI_UNIT(.KILO.,.GRAM.)
);
#502=DERIVED_UNIT((#499,#500));
#503=MEASURE_REPRESENTATION_ITEM('density measure',
POSITIVE_RATIO_MEASURE(7850.),#502);
#504=PROPERTY_DEFINITION_REPRESENTATION(#509,#506);
#505=PROPERTY_DEFINITION_REPRESENTATION(#510,#507);
#506=REPRESENTATION('material name',(#508),#797);
#507=REPRESENTATION('density',(#503),#797);
#508=DESCRIPTIVE_REPRESENTATION_ITEM('Steel','Steel');
#509=PROPERTY_DEFINITION('material property','material name',#807);
#510=PROPERTY_DEFINITION('material property','density of part',#807);
#511=AXIS2_PLACEMENT_3D('',#665,#542,#543);
#512=AXIS2_PLACEMENT_3D('',#666,#544,#545);
#513=AXIS2_PLACEMENT_3D('',#673,#549,#550);
#514=AXIS2_PLACEMENT_3D('',#679,#554,#555);
#515=AXIS2_PLACEMENT_3D('',#686,#559,#560);
#516=AXIS2_PLACEMENT_3D('',#692,#564,#565);
#517=AXIS2_PLACEMENT_3D('',#699,#569,#570);
#518=AXIS2_PLACEMENT_3D('',#705,#574,#575);
#519=AXIS2_PLACEMENT_3D('',#708,#578,#579);
#520=AXIS2_PLACEMENT_3D('',#715,#583,#584);
#521=AXIS2_PLACEMENT_3D('',#721,#588,#589);
#522=AXIS2_PLACEMENT_3D('',#724,#592,#593);
#523=AXIS2_PLACEMENT_3D('',#727,#596,#597);
#524=AXIS2_PLACEMENT_3D('',#730,#600,#601);
#525=AXIS2_PLACEMENT_3D('',#740,#607,#608);
#526=AXIS2_PLACEMENT_3D('',#742,#610,#611);
#527=AXIS2_PLACEMENT_3D('',#758,#621,#622);
#528=AXIS2_PLACEMENT_3D('',#760,#623,#624);
#529=AXIS2_PLACEMENT_3D('',#761,#625,#626);
#530=AXIS2_PLACEMENT_3D('',#767,#630,#631);
#531=AXIS2_PLACEMENT_3D('',#771,#634,#635);
#532=AXIS2_PLACEMENT_3D('',#775,#638,#639);
#533=AXIS2_PLACEMENT_3D('',#777,#641,#642);
#534=AXIS2_PLACEMENT_3D('',#778,#643,#644);
#535=AXIS2_PLACEMENT_3D('',#782,#647,#648);
#536=AXIS2_PLACEMENT_3D('',#786,#651,#652);
#537=AXIS2_PLACEMENT_3D('',#788,#654,#655);
#538=AXIS2_PLACEMENT_3D('',#789,#656,#657);
#539=AXIS2_PLACEMENT_3D('',#790,#658,#659);
#540=AXIS2_PLACEMENT_3D('',#792,#660,#661);
#541=AXIS2_PLACEMENT_3D('',#794,#663,#664);
#542=DIRECTION('axis',(0.,0.,1.));
#543=DIRECTION('refdir',(1.,0.,0.));
#544=DIRECTION('center_axis',(0.577350269189626,0.577350269189626,0.577350269189625));
#545=DIRECTION('ref_axis',(0.707106781186547,0.,-0.707106781186548));
#546=DIRECTION('',(-0.707106781186548,0.,0.707106781186548));
#547=DIRECTION('',(0.707106781186547,-0.707106781186548,0.));
#548=DIRECTION('',(0.,0.707106781186547,-0.707106781186548));
#549=DIRECTION('center_axis',(0.707106781186548,0.707106781186547,0.));
#550=DIRECTION('ref_axis',(0.,0.,-1.));
#551=DIRECTION('',(-0.707106781186547,0.707106781186548,0.));
#552=DIRECTION('',(0.,0.,1.));
#553=DIRECTION('',(0.,0.,-1.));
#554=DIRECTION('center_axis',(-0.577350269189626,0.577350269189626,0.577350269189625));
#555=DIRECTION('ref_axis',(0.707106781186547,0.,0.707106781186548));
#556=DIRECTION('',(0.,-0.707106781186547,0.707106781186548));
#557=DIRECTION('',(0.707106781186548,0.707106781186547,0.));
#558=DIRECTION('',(-0.707106781186548,-4.90653893338679E-16,-0.707106781186548));
#559=DIRECTION('center_axis',(-0.707106781186547,0.707106781186548,0.));
#560=DIRECTION('ref_axis',(0.,0.,1.));
#561=DIRECTION('',(-0.707106781186548,-0.707106781186547,0.));
#562=DIRECTION('',(0.,0.,1.));
#563=DIRECTION('',(0.,0.,-1.));
#564=DIRECTION('center_axis',(0.577350269189626,-0.577350269189626,0.577350269189626));
#565=DIRECTION('ref_axis',(0.707106781186547,0.,-0.707106781186547));
#566=DIRECTION('',(0.,0.707106781186548,0.707106781186548));
#567=DIRECTION('',(-0.707106781186548,-0.707106781186548,0.));
#568=DIRECTION('',(0.707106781186548,0.,-0.707106781186548));
#569=DIRECTION('center_axis',(0.707106781186548,-0.707106781186548,0.));
#570=DIRECTION('ref_axis',(0.,0.,-1.));
#571=DIRECTION('',(0.707106781186547,0.707106781186547,0.));
#572=DIRECTION('',(0.,0.,1.));
#573=DIRECTION('',(0.,0.,-1.));
#574=DIRECTION('center_axis',(0.707106781186548,0.,0.707106781186548));
#575=DIRECTION('ref_axis',(0.707106781186548,0.,-0.707106781186548));
#576=DIRECTION('',(0.,-1.,0.));
#577=DIRECTION('',(0.,1.,0.));
#578=DIRECTION('center_axis',(-0.577350269189626,-0.577350269189626,0.577350269189626));
#579=DIRECTION('ref_axis',(0.707106781186547,0.,0.707106781186547));
#580=DIRECTION('',(0.707106781186548,0.,0.707106781186548));
#581=DIRECTION('',(-0.707106781186548,0.707106781186548,0.));
#582=DIRECTION('',(0.,-0.707106781186548,-0.707106781186548));
#583=DIRECTION('center_axis',(-0.707106781186548,-0.707106781186548,0.));
#584=DIRECTION('ref_axis',(0.,0.,1.));
#585=DIRECTION('',(0.707106781186548,-0.707106781186548,0.));
#586=DIRECTION('',(0.,0.,1.));
#587=DIRECTION('',(0.,0.,-1.));
#588=DIRECTION('center_axis',(0.,-0.707106781186548,0.707106781186548));
#589=DIRECTION('ref_axis',(1.,0.,0.));
#590=DIRECTION('',(-1.,0.,0.));
#591=DIRECTION('',(1.,0.,0.));
#592=DIRECTION('center_axis',(-0.707106781186548,0.,0.707106781186548));
#593=DIRECTION('ref_axis',(0.707106781186548,0.,0.707106781186548));
#594=DIRECTION('',(0.,1.,0.));
#595=DIRECTION('',(0.,-1.,0.));
#596=DIRECTION('center_axis',(0.,0.707106781186548,0.707106781186547));
#597=DIRECTION('ref_axis',(1.,0.,0.));
#598=DIRECTION('',(1.,0.,0.));
#599=DIRECTION('',(-1.,0.,0.));
#600=DIRECTION('center_axis',(1.,0.,0.));
#601=DIRECTION('ref_axis',(0.,1.,0.));
#602=DIRECTION('',(0.,1.,0.));
#603=DIRECTION('',(0.,0.,1.));
#604=DIRECTION('',(0.,1.,0.));
#605=DIRECTION('',(0.,0.,-1.));
#606=DIRECTION('',(0.,1.,0.));
#607=DIRECTION('center_axis',(0.,-1.,0.));
#608=DIRECTION('ref_axis',(1.,0.,0.));
#609=DIRECTION('',(1.,0.,0.));
#610=DIRECTION('center_axis',(0.,0.,1.));
#611=DIRECTION('ref_axis',(1.,0.,0.));
#612=DIRECTION('',(1.,0.,0.));
#613=DIRECTION('',(0.,-1.,0.));
#614=DIRECTION('',(-1.,0.,0.));
#615=DIRECTION('',(0.,-1.,0.));
#616=DIRECTION('',(-1.,0.,0.));
#617=DIRECTION('',(0.,1.,0.));
#618=DIRECTION('',(1.,0.,0.));
#619=DIRECTION('',(0.,-1.,0.));
#620=DIRECTION('',(-1.,0.,0.));
#621=DIRECTION('center_axis',(0.,0.,1.));
#622=DIRECTION('ref_axis',(1.,0.,0.));
#623=DIRECTION('center_axis',(0.,0.,1.));
#624=DIRECTION('ref_axis',(1.,0.,0.));
#625=DIRECTION('center_axis',(0.,-1.,0.));
#626=DIRECTION('ref_axis',(1.,0.,0.));
#627=DIRECTION('',(0.,0.,-1.));
#628=DIRECTION('',(1.,0.,0.));
#629=DIRECTION('',(0.,0.,1.));
#630=DIRECTION('center_axis',(-1.,0.,0.));
#631=DIRECTION('ref_axis',(0.,-1.,0.));
#632=DIRECTION('',(0.,-1.,0.));
#633=DIRECTION('',(0.,0.,1.));
#634=DIRECTION('center_axis',(0.,1.,0.));
#635=DIRECTION('ref_axis',(-1.,0.,0.));
#636=DIRECTION('',(-1.,0.,0.));
#637=DIRECTION('',(0.,0.,1.));
#638=DIRECTION('center_axis',(0.,0.,1.));
#639=DIRECTION('ref_axis',(1.,0.,0.));
#640=DIRECTION('',(0.,-1.,0.));
#641=DIRECTION('center_axis',(-1.,0.,0.));
#642=DIRECTION('ref_axis',(0.,-1.,0.));
#643=DIRECTION('center_axis',(0.,1.,0.));
#644=DIRECTION('ref_axis',(-1.,0.,0.));
#645=DIRECTION('',(-1.,0.,0.));
#646=DIRECTION('',(0.,0.,1.));
#647=DIRECTION('center_axis',(1.,0.,0.));
#648=DIRECTION('ref_axis',(0.,1.,0.));
#649=DIRECTION('',(0.,1.,0.));
#650=DIRECTION('',(0.,0.,1.));
#651=DIRECTION('center_axis',(0.,-1.,0.));
#652=DIRECTION('ref_axis',(1.,0.,0.));
#653=DIRECTION('',(1.,0.,0.));
#654=DIRECTION('center_axis',(0.,0.,1.));
#655=DIRECTION('ref_axis',(1.,0.,0.));
#656=DIRECTION('center_axis',(0.,1.,0.));
#657=DIRECTION('ref_axis',(-1.,0.,0.));
#658=DIRECTION('center_axis',(0.,0.,1.));
#659=DIRECTION('ref_axis',(1.,0.,0.));
#660=DIRECTION('center_axis',(0.,0.,1.));
#661=DIRECTION('ref_axis',(1.,0.,0.));
#662=DIRECTION('',(0.,0.,-1.));
#663=DIRECTION('center_axis',(0.,0.,1.));
#664=DIRECTION('ref_axis',(1.,0.,0.));
#665=CARTESIAN_POINT('',(0.,0.,0.));
#666=CARTESIAN_POINT('Origin',(-0.1,0.,1.4));
#667=CARTESIAN_POINT('',(0.,-0.1,1.4));
#668=CARTESIAN_POINT('',(-0.1,-0.1,1.5));
#669=CARTESIAN_POINT('',(0.,-0.1,1.4));
#670=CARTESIAN_POINT('',(-0.1,0.,1.4));
#671=CARTESIAN_POINT('',(-0.1,0.,1.4));
#672=CARTESIAN_POINT('',(-0.1,-0.1,1.5));
#673=CARTESIAN_POINT('Origin',(-0.05,-0.05,0.));
#674=CARTESIAN_POINT('',(0.,-0.1,0.));
#675=CARTESIAN_POINT('',(-0.1,0.,0.));
#676=CARTESIAN_POINT('',(-0.175,0.0749999999999998,0.));
#677=CARTESIAN_POINT('',(-0.1,0.,0.));
#678=CARTESIAN_POINT('',(0.,-0.1,0.));
#679=CARTESIAN_POINT('Origin',(-3.9,-0.1,1.4));
#680=CARTESIAN_POINT('',(-3.8,0.,1.4));
#681=CARTESIAN_POINT('',(-3.8,-0.1,1.5));
#682=CARTESIAN_POINT('',(-3.8,0.,1.4));
#683=CARTESIAN_POINT('',(-3.9,-0.1,1.4));
#684=CARTESIAN_POINT('',(-3.9,-0.1,1.4));
#685=CARTESIAN_POINT('',(-3.8,-0.1,1.5));
#686=CARTESIAN_POINT('Origin',(-3.85,-0.05,0.));
#687=CARTESIAN_POINT('',(-3.8,0.,0.));
#688=CARTESIAN_POINT('',(-3.9,-0.1,0.));
#689=CARTESIAN_POINT('',(-3.725,0.0750000000000003,0.));
#690=CARTESIAN_POINT('',(-3.9,-0.1,0.));
#691=CARTESIAN_POINT('',(-3.8,0.,0.));
#692=CARTESIAN_POINT('Origin',(0.,-2.8,1.4));
#693=CARTESIAN_POINT('',(-0.1,-2.9,1.4));
#694=CARTESIAN_POINT('',(-0.1,-2.8,1.5));
#695=CARTESIAN_POINT('',(-0.1,-2.9,1.4));
#696=CARTESIAN_POINT('',(0.,-2.8,1.4));
#697=CARTESIAN_POINT('',(0.,-2.8,1.4));
#698=CARTESIAN_POINT('',(-0.1,-2.8,1.5));
#699=CARTESIAN_POINT('Origin',(-0.05,-2.85,0.));
#700=CARTESIAN_POINT('',(-0.1,-2.9,0.));
#701=CARTESIAN_POINT('',(0.,-2.8,0.));
#702=CARTESIAN_POINT('',(-0.175,-2.975,0.));
#703=CARTESIAN_POINT('',(0.,-2.8,0.));
#704=CARTESIAN_POINT('',(-0.1,-2.9,0.));
#705=CARTESIAN_POINT('Origin',(-0.05,-2.175,1.45));
#706=CARTESIAN_POINT('',(-0.1,-2.175,1.5));
#707=CARTESIAN_POINT('',(0.,-2.175,1.4));
#708=CARTESIAN_POINT('Origin',(-3.8,-2.9,1.4));
#709=CARTESIAN_POINT('',(-3.9,-2.8,1.4));
#710=CARTESIAN_POINT('',(-3.8,-2.8,1.5));
#711=CARTESIAN_POINT('',(-3.9,-2.8,1.4));
#712=CARTESIAN_POINT('',(-3.8,-2.9,1.4));
#713=CARTESIAN_POINT('',(-3.8,-2.9,1.4));
#714=CARTESIAN_POINT('',(-3.8,-2.8,1.5));
#715=CARTESIAN_POINT('Origin',(-3.85,-2.85,0.));
#716=CARTESIAN_POINT('',(-3.9,-2.8,0.));
#717=CARTESIAN_POINT('',(-3.8,-2.9,0.));
#718=CARTESIAN_POINT('',(-3.725,-2.975,0.));
#719=CARTESIAN_POINT('',(-3.8,-2.9,0.));
#720=CARTESIAN_POINT('',(-3.9,-2.8,0.));
#721=CARTESIAN_POINT('Origin',(-2.925,-2.85,1.45));
#722=CARTESIAN_POINT('',(-2.925,-2.8,1.5));
#723=CARTESIAN_POINT('',(-2.925,-2.9,1.4));
#724=CARTESIAN_POINT('Origin',(-3.85,-0.725,1.45));
#725=CARTESIAN_POINT('',(-3.8,-0.725,1.5));
#726=CARTESIAN_POINT('',(-3.9,-0.725,1.4));
#727=CARTESIAN_POINT('Origin',(-0.975,-0.05,1.45));
#728=CARTESIAN_POINT('',(-0.975,-0.1,1.5));
#729=CARTESIAN_POINT('',(-0.975,0.,1.4));
#730=CARTESIAN_POINT('Origin',(0.,-2.9,0.));
#731=CARTESIAN_POINT('',(0.,-2.15,0.));
#732=CARTESIAN_POINT('',(0.,-2.15,0.));
#733=CARTESIAN_POINT('',(0.,-2.15,0.2));
#734=CARTESIAN_POINT('',(0.,-2.15,0.));
#735=CARTESIAN_POINT('',(0.,-0.75,0.2));
#736=CARTESIAN_POINT('',(0.,-2.175,0.2));
#737=CARTESIAN_POINT('',(0.,-0.75,0.));
#738=CARTESIAN_POINT('',(0.,-0.75,0.));
#739=CARTESIAN_POINT('',(0.,-2.15,0.));
#740=CARTESIAN_POINT('Origin',(-3.9,-2.9,0.));
#741=CARTESIAN_POINT('',(-3.9,-2.9,0.));
#742=CARTESIAN_POINT('Origin',(-1.95,-1.45,0.));
#743=CARTESIAN_POINT('',(0.45,-0.75,0.));
#744=CARTESIAN_POINT('',(0.,-0.75,0.));
#745=CARTESIAN_POINT('',(0.45,-2.15,0.));
#746=CARTESIAN_POINT('',(0.45,-0.75,0.));
#747=CARTESIAN_POINT('',(0.45,-2.15,0.));
#748=CARTESIAN_POINT('',(-3.9,-2.15,0.));
#749=CARTESIAN_POINT('',(-3.9,0.,0.));
#750=CARTESIAN_POINT('',(-4.35,-2.15,0.));
#751=CARTESIAN_POINT('',(-3.9,-2.15,0.));
#752=CARTESIAN_POINT('',(-4.35,-0.75,0.));
#753=CARTESIAN_POINT('',(-4.35,-2.15,0.));
#754=CARTESIAN_POINT('',(-3.9,-0.75,0.));
#755=CARTESIAN_POINT('',(-4.35,-0.75,0.));
#756=CARTESIAN_POINT('',(-3.9,0.,0.));
#757=CARTESIAN_POINT('',(0.,0.,0.));
#758=CARTESIAN_POINT('Origin',(-1.95,-1.45,1.5));
#759=CARTESIAN_POINT('',(-2.85,-1.45,1.5));
#760=CARTESIAN_POINT('Origin',(-1.95,-1.45,1.5));
#761=CARTESIAN_POINT('Origin',(-4.35,-2.15,0.));
#762=CARTESIAN_POINT('',(-3.9,-2.15,0.2));
#763=CARTESIAN_POINT('',(-3.9,-2.15,0.));
#764=CARTESIAN_POINT('',(-4.35,-2.15,0.2));
#765=CARTESIAN_POINT('',(-3.9,-2.15,0.2));
#766=CARTESIAN_POINT('',(-4.35,-2.15,0.));
#767=CARTESIAN_POINT('Origin',(-4.35,-0.75,0.));
#768=CARTESIAN_POINT('',(-4.35,-0.75,0.2));
#769=CARTESIAN_POINT('',(-4.35,-2.15,0.2));
#770=CARTESIAN_POINT('',(-4.35,-0.75,0.));
#771=CARTESIAN_POINT('Origin',(-3.9,-0.75,0.));
#772=CARTESIAN_POINT('',(-3.9,-0.75,0.2));
#773=CARTESIAN_POINT('',(-4.35,-0.75,0.2));
#774=CARTESIAN_POINT('',(-3.9,-0.75,0.));
#775=CARTESIAN_POINT('Origin',(-4.125,-1.45,0.2));
#776=CARTESIAN_POINT('',(-3.9,-0.725,0.2));
#777=CARTESIAN_POINT('Origin',(-3.9,0.,0.));
#778=CARTESIAN_POINT('Origin',(0.45,-0.75,0.));
#779=CARTESIAN_POINT('',(0.45,-0.75,0.2));
#780=CARTESIAN_POINT('',(0.,-0.75,0.2));
#781=CARTESIAN_POINT('',(0.45,-0.75,0.));
#782=CARTESIAN_POINT('Origin',(0.45,-2.15,0.));
#783=CARTESIAN_POINT('',(0.45,-2.15,0.2));
#784=CARTESIAN_POINT('',(0.45,-0.75,0.2));
#785=CARTESIAN_POINT('',(0.45,-2.15,0.));
#786=CARTESIAN_POINT('Origin',(0.,-2.15,0.));
#787=CARTESIAN_POINT('',(0.45,-2.15,0.2));
#788=CARTESIAN_POINT('Origin',(0.225,-1.45,0.2));
#789=CARTESIAN_POINT('Origin',(0.,0.,0.));
#790=CARTESIAN_POINT('Origin',(-1.95,-1.45,0.));
#791=CARTESIAN_POINT('',(-2.85,-1.45,2.));
#792=CARTESIAN_POINT('Origin',(-1.95,-1.45,2.));
#793=CARTESIAN_POINT('',(-2.85,-1.45,0.));
#794=CARTESIAN_POINT('Origin',(-1.95,-1.45,2.));
#795=UNCERTAINTY_MEASURE_WITH_UNIT(LENGTH_MEASURE(0.01),#799,
'DISTANCE_ACCURACY_VALUE',
'Maximum model space distance between geometric entities at asserted c
onnectivities');
#796=UNCERTAINTY_MEASURE_WITH_UNIT(LENGTH_MEASURE(0.01),#799,
'DISTANCE_ACCURACY_VALUE',
'Maximum model space distance between geometric entities at asserted c
onnectivities');
#797=(
GEOMETRIC_REPRESENTATION_CONTEXT(3)
GLOBAL_UNCERTAINTY_ASSIGNED_CONTEXT((#795))
GLOBAL_UNIT_ASSIGNED_CONTEXT((#799,#801,#802))
REPRESENTATION_CONTEXT('','3D')
);
#798=(
GEOMETRIC_REPRESENTATION_CONTEXT(3)
GLOBAL_UNCERTAINTY_ASSIGNED_CONTEXT((#796))
GLOBAL_UNIT_ASSIGNED_CONTEXT((#799,#801,#802))
REPRESENTATION_CONTEXT('','3D')
);
#799=(
LENGTH_UNIT()
NAMED_UNIT(*)
SI_UNIT(.MILLI.,.METRE.)
);
#800=(
LENGTH_UNIT()
NAMED_UNIT(*)
SI_UNIT($,.METRE.)
);
#801=(
NAMED_UNIT(*)
PLANE_ANGLE_UNIT()
SI_UNIT($,.RADIAN.)
);
#802=(
NAMED_UNIT(*)
SI_UNIT($,.STERADIAN.)
SOLID_ANGLE_UNIT()
);
#803=SHAPE_DEFINITION_REPRESENTATION(#804,#805);
#804=PRODUCT_DEFINITION_SHAPE('',$,#807);
#805=SHAPE_REPRESENTATION('',(#511),#797);
#806=PRODUCT_DEFINITION_CONTEXT('part definition',#811,'design');
#807=PRODUCT_DEFINITION('ALPS SKRK Series SMD Push Button',
'ALPS SKRK Series SMD Push Button v4',#808,#806);
#808=PRODUCT_DEFINITION_FORMATION('',$,#813);
#809=PRODUCT_RELATED_PRODUCT_CATEGORY(
'ALPS SKRK Series SMD Push Button v4',
'ALPS SKRK Series SMD Push Button v4',(#813));
#810=APPLICATION_PROTOCOL_DEFINITION('international standard',
'automotive_design',2009,#811);
#811=APPLICATION_CONTEXT(
'Core Data for Automotive Mechanical Design Process');
#812=PRODUCT_CONTEXT('part definition',#811,'mechanical');
#813=PRODUCT('ALPS SKRK Series SMD Push Button',
'ALPS SKRK Series SMD Push Button v4',$,(#812));
#814=PRESENTATION_STYLE_ASSIGNMENT((#817));
#815=PRESENTATION_STYLE_ASSIGNMENT((#818));
#816=PRESENTATION_STYLE_ASSIGNMENT((#819));
#817=SURFACE_STYLE_USAGE(.BOTH.,#820);
#818=SURFACE_STYLE_USAGE(.BOTH.,#821);
#819=SURFACE_STYLE_USAGE(.BOTH.,#822);
#820=SURFACE_SIDE_STYLE('',(#823));
#821=SURFACE_SIDE_STYLE('',(#824));
#822=SURFACE_SIDE_STYLE('',(#825));
#823=SURFACE_STYLE_FILL_AREA(#826);
#824=SURFACE_STYLE_FILL_AREA(#827);
#825=SURFACE_STYLE_FILL_AREA(#828);
#826=FILL_AREA_STYLE('Steel - Satin',(#829));
#827=FILL_AREA_STYLE('ABS (White)',(#830));
#828=FILL_AREA_STYLE('ABS (Black)',(#831));
#829=FILL_AREA_STYLE_COLOUR('Steel - Satin',#832);
#830=FILL_AREA_STYLE_COLOUR('ABS (White)',#833);
#831=FILL_AREA_STYLE_COLOUR('ABS (Black)',#834);
#832=COLOUR_RGB('Steel - Satin',0.627450980392157,0.627450980392157,0.627450980392157);
#833=COLOUR_RGB('ABS (White)',0.964705882352941,0.964705882352941,0.952941176470588);
#834=COLOUR_RGB('ABS (Black)',0.,0.,0.);
ENDSEC;
END-ISO-10303-21;
