G75*
G70*
%OFA0B0*%
%FSLAX24Y24*%
%IPPOS*%
%LPD*%
%AMOC8*
5,1,8,0,0,1.08239X$1,22.5*
%
%ADD10C,0.0000*%
%ADD11C,0.0030*%
D10*
X000190Y000181D02*
X000190Y013552D01*
X018685Y013552D01*
X018685Y000181D01*
X000190Y000181D01*
X000560Y004931D02*
X000562Y004981D01*
X000568Y005031D01*
X000578Y005080D01*
X000592Y005128D01*
X000609Y005175D01*
X000630Y005220D01*
X000655Y005264D01*
X000683Y005305D01*
X000715Y005344D01*
X000749Y005381D01*
X000786Y005415D01*
X000826Y005445D01*
X000868Y005472D01*
X000912Y005496D01*
X000958Y005517D01*
X001005Y005533D01*
X001053Y005546D01*
X001103Y005555D01*
X001152Y005560D01*
X001203Y005561D01*
X001253Y005558D01*
X001302Y005551D01*
X001351Y005540D01*
X001399Y005525D01*
X001445Y005507D01*
X001490Y005485D01*
X001533Y005459D01*
X001574Y005430D01*
X001613Y005398D01*
X001649Y005363D01*
X001681Y005325D01*
X001711Y005285D01*
X001738Y005242D01*
X001761Y005198D01*
X001780Y005152D01*
X001796Y005104D01*
X001808Y005055D01*
X001816Y005006D01*
X001820Y004956D01*
X001820Y004906D01*
X001816Y004856D01*
X001808Y004807D01*
X001796Y004758D01*
X001780Y004710D01*
X001761Y004664D01*
X001738Y004620D01*
X001711Y004577D01*
X001681Y004537D01*
X001649Y004499D01*
X001613Y004464D01*
X001574Y004432D01*
X001533Y004403D01*
X001490Y004377D01*
X001445Y004355D01*
X001399Y004337D01*
X001351Y004322D01*
X001302Y004311D01*
X001253Y004304D01*
X001203Y004301D01*
X001152Y004302D01*
X001103Y004307D01*
X001053Y004316D01*
X001005Y004329D01*
X000958Y004345D01*
X000912Y004366D01*
X000868Y004390D01*
X000826Y004417D01*
X000786Y004447D01*
X000749Y004481D01*
X000715Y004518D01*
X000683Y004557D01*
X000655Y004598D01*
X000630Y004642D01*
X000609Y004687D01*
X000592Y004734D01*
X000578Y004782D01*
X000568Y004831D01*
X000562Y004881D01*
X000560Y004931D01*
X000560Y012556D02*
X000562Y012606D01*
X000568Y012656D01*
X000578Y012705D01*
X000592Y012753D01*
X000609Y012800D01*
X000630Y012845D01*
X000655Y012889D01*
X000683Y012930D01*
X000715Y012969D01*
X000749Y013006D01*
X000786Y013040D01*
X000826Y013070D01*
X000868Y013097D01*
X000912Y013121D01*
X000958Y013142D01*
X001005Y013158D01*
X001053Y013171D01*
X001103Y013180D01*
X001152Y013185D01*
X001203Y013186D01*
X001253Y013183D01*
X001302Y013176D01*
X001351Y013165D01*
X001399Y013150D01*
X001445Y013132D01*
X001490Y013110D01*
X001533Y013084D01*
X001574Y013055D01*
X001613Y013023D01*
X001649Y012988D01*
X001681Y012950D01*
X001711Y012910D01*
X001738Y012867D01*
X001761Y012823D01*
X001780Y012777D01*
X001796Y012729D01*
X001808Y012680D01*
X001816Y012631D01*
X001820Y012581D01*
X001820Y012531D01*
X001816Y012481D01*
X001808Y012432D01*
X001796Y012383D01*
X001780Y012335D01*
X001761Y012289D01*
X001738Y012245D01*
X001711Y012202D01*
X001681Y012162D01*
X001649Y012124D01*
X001613Y012089D01*
X001574Y012057D01*
X001533Y012028D01*
X001490Y012002D01*
X001445Y011980D01*
X001399Y011962D01*
X001351Y011947D01*
X001302Y011936D01*
X001253Y011929D01*
X001203Y011926D01*
X001152Y011927D01*
X001103Y011932D01*
X001053Y011941D01*
X001005Y011954D01*
X000958Y011970D01*
X000912Y011991D01*
X000868Y012015D01*
X000826Y012042D01*
X000786Y012072D01*
X000749Y012106D01*
X000715Y012143D01*
X000683Y012182D01*
X000655Y012223D01*
X000630Y012267D01*
X000609Y012312D01*
X000592Y012359D01*
X000578Y012407D01*
X000568Y012456D01*
X000562Y012506D01*
X000560Y012556D01*
X017060Y012556D02*
X017062Y012606D01*
X017068Y012656D01*
X017078Y012705D01*
X017092Y012753D01*
X017109Y012800D01*
X017130Y012845D01*
X017155Y012889D01*
X017183Y012930D01*
X017215Y012969D01*
X017249Y013006D01*
X017286Y013040D01*
X017326Y013070D01*
X017368Y013097D01*
X017412Y013121D01*
X017458Y013142D01*
X017505Y013158D01*
X017553Y013171D01*
X017603Y013180D01*
X017652Y013185D01*
X017703Y013186D01*
X017753Y013183D01*
X017802Y013176D01*
X017851Y013165D01*
X017899Y013150D01*
X017945Y013132D01*
X017990Y013110D01*
X018033Y013084D01*
X018074Y013055D01*
X018113Y013023D01*
X018149Y012988D01*
X018181Y012950D01*
X018211Y012910D01*
X018238Y012867D01*
X018261Y012823D01*
X018280Y012777D01*
X018296Y012729D01*
X018308Y012680D01*
X018316Y012631D01*
X018320Y012581D01*
X018320Y012531D01*
X018316Y012481D01*
X018308Y012432D01*
X018296Y012383D01*
X018280Y012335D01*
X018261Y012289D01*
X018238Y012245D01*
X018211Y012202D01*
X018181Y012162D01*
X018149Y012124D01*
X018113Y012089D01*
X018074Y012057D01*
X018033Y012028D01*
X017990Y012002D01*
X017945Y011980D01*
X017899Y011962D01*
X017851Y011947D01*
X017802Y011936D01*
X017753Y011929D01*
X017703Y011926D01*
X017652Y011927D01*
X017603Y011932D01*
X017553Y011941D01*
X017505Y011954D01*
X017458Y011970D01*
X017412Y011991D01*
X017368Y012015D01*
X017326Y012042D01*
X017286Y012072D01*
X017249Y012106D01*
X017215Y012143D01*
X017183Y012182D01*
X017155Y012223D01*
X017130Y012267D01*
X017109Y012312D01*
X017092Y012359D01*
X017078Y012407D01*
X017068Y012456D01*
X017062Y012506D01*
X017060Y012556D01*
X017060Y004931D02*
X017062Y004981D01*
X017068Y005031D01*
X017078Y005080D01*
X017092Y005128D01*
X017109Y005175D01*
X017130Y005220D01*
X017155Y005264D01*
X017183Y005305D01*
X017215Y005344D01*
X017249Y005381D01*
X017286Y005415D01*
X017326Y005445D01*
X017368Y005472D01*
X017412Y005496D01*
X017458Y005517D01*
X017505Y005533D01*
X017553Y005546D01*
X017603Y005555D01*
X017652Y005560D01*
X017703Y005561D01*
X017753Y005558D01*
X017802Y005551D01*
X017851Y005540D01*
X017899Y005525D01*
X017945Y005507D01*
X017990Y005485D01*
X018033Y005459D01*
X018074Y005430D01*
X018113Y005398D01*
X018149Y005363D01*
X018181Y005325D01*
X018211Y005285D01*
X018238Y005242D01*
X018261Y005198D01*
X018280Y005152D01*
X018296Y005104D01*
X018308Y005055D01*
X018316Y005006D01*
X018320Y004956D01*
X018320Y004906D01*
X018316Y004856D01*
X018308Y004807D01*
X018296Y004758D01*
X018280Y004710D01*
X018261Y004664D01*
X018238Y004620D01*
X018211Y004577D01*
X018181Y004537D01*
X018149Y004499D01*
X018113Y004464D01*
X018074Y004432D01*
X018033Y004403D01*
X017990Y004377D01*
X017945Y004355D01*
X017899Y004337D01*
X017851Y004322D01*
X017802Y004311D01*
X017753Y004304D01*
X017703Y004301D01*
X017652Y004302D01*
X017603Y004307D01*
X017553Y004316D01*
X017505Y004329D01*
X017458Y004345D01*
X017412Y004366D01*
X017368Y004390D01*
X017326Y004417D01*
X017286Y004447D01*
X017249Y004481D01*
X017215Y004518D01*
X017183Y004557D01*
X017155Y004598D01*
X017130Y004642D01*
X017109Y004687D01*
X017092Y004734D01*
X017078Y004782D01*
X017068Y004831D01*
X017062Y004881D01*
X017060Y004931D01*
D11*
X015565Y011198D02*
X015565Y011568D01*
X015380Y011568D01*
X015318Y011507D01*
X015318Y011383D01*
X015380Y011321D01*
X015565Y011321D01*
X015687Y011321D02*
X015749Y011383D01*
X015749Y011630D01*
X015811Y011568D02*
X015687Y011568D01*
X015933Y011568D02*
X016056Y011568D01*
X015995Y011630D02*
X015995Y011383D01*
X015933Y011321D01*
X016178Y011321D02*
X016178Y011507D01*
X016239Y011568D01*
X016363Y011568D01*
X016425Y011507D01*
X016425Y011692D02*
X016425Y011321D01*
X016425Y012071D02*
X016425Y012442D01*
X016363Y012318D02*
X016239Y012318D01*
X016178Y012257D01*
X016178Y012071D01*
X015995Y012133D02*
X015933Y012071D01*
X015995Y012133D02*
X015995Y012380D01*
X016056Y012318D02*
X015933Y012318D01*
X015811Y012318D02*
X015687Y012318D01*
X015749Y012380D02*
X015749Y012133D01*
X015687Y012071D01*
X015565Y012071D02*
X015380Y012071D01*
X015318Y012133D01*
X015318Y012257D01*
X015380Y012318D01*
X015565Y012318D01*
X015565Y011948D01*
X015197Y012071D02*
X015197Y012133D01*
X015135Y012133D01*
X015135Y012071D01*
X015197Y012071D01*
X015013Y012071D02*
X014766Y012442D01*
X014398Y012442D02*
X014644Y012071D01*
X014276Y012133D02*
X014276Y012318D01*
X014276Y012133D02*
X014214Y012071D01*
X014153Y012133D01*
X014091Y012071D01*
X014029Y012133D01*
X014029Y012318D01*
X013908Y012318D02*
X013908Y012133D01*
X013846Y012071D01*
X013784Y012133D01*
X013723Y012071D01*
X013661Y012133D01*
X013661Y012318D01*
X013540Y012318D02*
X013540Y012133D01*
X013478Y012071D01*
X013416Y012133D01*
X013354Y012071D01*
X013293Y012133D01*
X013293Y012318D01*
X013171Y012133D02*
X013110Y012133D01*
X013110Y012071D01*
X013171Y012071D01*
X013171Y012133D01*
X012987Y012071D02*
X012864Y012071D01*
X012925Y012071D02*
X012925Y012318D01*
X012987Y012318D01*
X012925Y012442D02*
X012925Y012503D01*
X012680Y012318D02*
X012495Y012318D01*
X012312Y012318D02*
X012188Y012318D01*
X012126Y012257D01*
X012126Y012071D01*
X012312Y012071D01*
X012373Y012133D01*
X012312Y012195D01*
X012126Y012195D01*
X012005Y012318D02*
X012005Y012071D01*
X011758Y012071D02*
X011758Y012257D01*
X011820Y012318D01*
X012005Y012318D01*
X011637Y012318D02*
X011637Y012071D01*
X011513Y012071D02*
X011513Y012257D01*
X011451Y012318D01*
X011390Y012257D01*
X011390Y012071D01*
X011268Y012133D02*
X011207Y012195D01*
X011021Y012195D01*
X011021Y012257D02*
X011021Y012071D01*
X011207Y012071D01*
X011268Y012133D01*
X011207Y012318D02*
X011083Y012318D01*
X011021Y012257D01*
X010900Y012195D02*
X010715Y012318D01*
X010593Y012257D02*
X010531Y012318D01*
X010408Y012318D01*
X010346Y012257D01*
X010346Y012195D01*
X010593Y012195D01*
X010593Y012133D02*
X010593Y012257D01*
X010593Y012133D02*
X010531Y012071D01*
X010408Y012071D01*
X010225Y012071D02*
X010101Y012071D01*
X010163Y012071D02*
X010163Y012318D01*
X010225Y012318D01*
X010163Y012442D02*
X010163Y012503D01*
X009918Y012380D02*
X009918Y012133D01*
X009856Y012071D01*
X009734Y012071D02*
X009734Y012133D01*
X009672Y012133D01*
X009672Y012071D01*
X009734Y012071D01*
X009550Y012133D02*
X009550Y012257D01*
X009488Y012318D01*
X009303Y012318D01*
X009303Y012442D02*
X009303Y012071D01*
X009488Y012071D01*
X009550Y012133D01*
X009856Y012318D02*
X009979Y012318D01*
X009979Y012821D02*
X009855Y013068D01*
X009734Y013068D02*
X009610Y013192D01*
X009610Y012821D01*
X009487Y012821D02*
X009734Y012821D01*
X009979Y012821D02*
X010102Y013068D01*
X010592Y013007D02*
X010592Y012883D01*
X010653Y012821D01*
X010777Y012821D01*
X010839Y012883D01*
X010960Y012883D02*
X010960Y013130D01*
X011022Y013192D01*
X011145Y013192D01*
X011207Y013130D01*
X011207Y013068D01*
X011145Y013007D01*
X010960Y013007D01*
X010839Y013007D02*
X010715Y013068D01*
X010653Y013068D01*
X010592Y013007D01*
X010839Y013007D02*
X010839Y013192D01*
X010592Y013192D01*
X010960Y012883D02*
X011022Y012821D01*
X011145Y012821D01*
X011207Y012883D01*
X011328Y012883D02*
X011328Y013007D01*
X011390Y013068D01*
X011452Y013068D01*
X011575Y013007D01*
X011575Y013192D01*
X011328Y013192D01*
X011697Y013068D02*
X011697Y012883D01*
X011758Y012821D01*
X011820Y012883D01*
X011882Y012821D01*
X011944Y012883D01*
X011944Y013068D01*
X012065Y013007D02*
X012065Y012945D01*
X012312Y012945D01*
X012312Y013007D02*
X012250Y013068D01*
X012127Y013068D01*
X012065Y013007D01*
X012127Y012821D02*
X012250Y012821D01*
X012312Y012883D01*
X012312Y013007D01*
X012434Y013068D02*
X012495Y013068D01*
X012619Y012945D01*
X012619Y013068D02*
X012619Y012821D01*
X012740Y012821D02*
X012925Y012821D01*
X012987Y012883D01*
X012987Y013007D01*
X012925Y013068D01*
X012740Y013068D01*
X013109Y013130D02*
X013170Y013192D01*
X013294Y013192D01*
X013355Y013130D01*
X013355Y013068D01*
X013294Y013007D01*
X013170Y013007D01*
X013109Y012945D01*
X013109Y012883D01*
X013170Y012821D01*
X013294Y012821D01*
X013355Y012883D01*
X013477Y012945D02*
X013724Y012945D01*
X013724Y013007D02*
X013662Y013068D01*
X013539Y013068D01*
X013477Y013007D01*
X013477Y012945D01*
X013539Y012821D02*
X013662Y012821D01*
X013724Y012883D01*
X013724Y013007D01*
X013846Y012821D02*
X013969Y012821D01*
X013907Y012821D02*
X013907Y013192D01*
X013969Y013192D01*
X014152Y013068D02*
X014337Y013068D01*
X014337Y013192D02*
X014337Y012821D01*
X014152Y012821D01*
X014091Y012883D01*
X014091Y013007D01*
X014152Y013068D01*
X014459Y013007D02*
X014459Y012821D01*
X014644Y012821D01*
X014706Y012883D01*
X014644Y012945D01*
X014459Y012945D01*
X014459Y013007D02*
X014521Y013068D01*
X014644Y013068D01*
X014827Y013007D02*
X014827Y012821D01*
X014827Y013007D02*
X014889Y013068D01*
X015074Y013068D01*
X015074Y012821D01*
X015196Y012821D02*
X015320Y012821D01*
X015258Y012821D02*
X015258Y013068D01*
X015320Y013068D01*
X015441Y013007D02*
X015441Y012821D01*
X015626Y012821D01*
X015688Y012883D01*
X015626Y012945D01*
X015441Y012945D01*
X015441Y013007D02*
X015503Y013068D01*
X015626Y013068D01*
X015809Y013007D02*
X015809Y012821D01*
X015809Y013007D02*
X015871Y013068D01*
X015995Y013068D01*
X016056Y013007D01*
X016178Y013130D02*
X016239Y013192D01*
X016363Y013192D01*
X016425Y013130D01*
X016425Y012883D01*
X016363Y012821D01*
X016239Y012821D01*
X016178Y012883D01*
X016056Y012821D02*
X016056Y013192D01*
X015258Y013192D02*
X015258Y013253D01*
X015197Y012318D02*
X015197Y012257D01*
X015135Y012257D01*
X015135Y012318D01*
X015197Y012318D01*
X014398Y011692D02*
X014644Y011321D01*
X014767Y011321D02*
X014829Y011321D01*
X014829Y011383D01*
X014767Y011383D01*
X014767Y011321D01*
X014767Y011507D02*
X014829Y011507D01*
X014829Y011568D01*
X014767Y011568D01*
X014767Y011507D01*
X014950Y011568D02*
X015135Y011568D01*
X015197Y011507D01*
X015135Y011445D01*
X015012Y011445D01*
X014950Y011383D01*
X015012Y011321D01*
X015197Y011321D01*
X014276Y011321D02*
X014029Y011692D01*
X013846Y011568D02*
X013908Y011507D01*
X013908Y011383D01*
X013846Y011321D01*
X013661Y011321D01*
X013661Y011260D02*
X013661Y011568D01*
X013846Y011568D01*
X013540Y011568D02*
X013478Y011568D01*
X013478Y011321D01*
X013540Y011321D02*
X013416Y011321D01*
X013232Y011383D02*
X013171Y011321D01*
X013232Y011383D02*
X013232Y011630D01*
X013171Y011568D02*
X013294Y011568D01*
X013478Y011692D02*
X013478Y011753D01*
X013049Y011692D02*
X013049Y011321D01*
X013049Y011507D02*
X012987Y011568D01*
X012863Y011568D01*
X012802Y011507D01*
X012802Y011321D01*
X012680Y011383D02*
X012619Y011321D01*
X012433Y011321D01*
X012433Y011568D01*
X012312Y011568D02*
X012127Y011568D01*
X012065Y011507D01*
X012065Y011383D01*
X012127Y011321D01*
X012312Y011321D01*
X012312Y011692D01*
X012680Y011568D02*
X012680Y011383D01*
X011944Y011383D02*
X011882Y011383D01*
X011882Y011321D01*
X011944Y011321D01*
X011944Y011383D01*
X011759Y011383D02*
X011759Y011507D01*
X011698Y011568D01*
X011513Y011568D01*
X011391Y011507D02*
X011329Y011568D01*
X011206Y011568D01*
X011144Y011507D01*
X011144Y011383D01*
X011206Y011321D01*
X011329Y011321D01*
X011391Y011383D01*
X011391Y011507D01*
X011513Y011321D02*
X011698Y011321D01*
X011759Y011383D01*
X011023Y011321D02*
X011023Y011568D01*
X010961Y011568D01*
X010899Y011507D01*
X010838Y011568D01*
X010776Y011507D01*
X010776Y011321D01*
X010655Y011321D02*
X010408Y011692D01*
X010286Y011692D02*
X010286Y011321D01*
X010286Y011507D02*
X010225Y011568D01*
X010101Y011568D01*
X010039Y011507D01*
X010039Y011321D01*
X009918Y011321D02*
X009918Y011568D01*
X009856Y011568D01*
X009794Y011507D01*
X009733Y011568D01*
X009671Y011507D01*
X009671Y011321D01*
X009550Y011321D02*
X009364Y011321D01*
X009303Y011383D01*
X009303Y011507D01*
X009364Y011568D01*
X009550Y011568D01*
X009550Y011692D02*
X009550Y011321D01*
X009794Y011321D02*
X009794Y011507D01*
X009181Y011568D02*
X009181Y011383D01*
X009120Y011321D01*
X008934Y011321D01*
X008934Y011568D01*
X008813Y011507D02*
X008751Y011568D01*
X008566Y011568D01*
X008445Y011507D02*
X008445Y011383D01*
X008383Y011321D01*
X008198Y011321D01*
X008076Y011321D02*
X008076Y011692D01*
X008015Y011568D02*
X007891Y011568D01*
X007830Y011507D01*
X007830Y011321D01*
X008076Y011507D02*
X008015Y011568D01*
X008198Y011568D02*
X008383Y011568D01*
X008445Y011507D01*
X008566Y011383D02*
X008628Y011445D01*
X008751Y011445D01*
X008813Y011507D01*
X008813Y011321D02*
X008628Y011321D01*
X008566Y011383D01*
X008996Y012071D02*
X009120Y012071D01*
X009181Y012133D01*
X009181Y012257D01*
X009120Y012318D01*
X008996Y012318D01*
X008935Y012257D01*
X008935Y012195D01*
X009181Y012195D01*
X009120Y012821D02*
X008996Y012821D01*
X008934Y012883D01*
X008934Y013130D01*
X009181Y012883D01*
X009120Y012821D01*
X009181Y012883D02*
X009181Y013130D01*
X009120Y013192D01*
X008996Y013192D01*
X008934Y013130D01*
X009304Y012883D02*
X009304Y012821D01*
X009365Y012821D01*
X009365Y012883D01*
X009304Y012883D01*
X010715Y012071D02*
X010900Y012195D01*
X010900Y012071D02*
X010900Y012442D01*
X011328Y012883D02*
X011390Y012821D01*
X011514Y012821D01*
X011575Y012883D01*
X011575Y012318D02*
X011513Y012257D01*
X011575Y012318D02*
X011637Y012318D01*
X012495Y012071D02*
X012680Y012071D01*
X012742Y012133D01*
X012742Y012257D01*
X012680Y012318D01*
X013661Y011260D02*
X013723Y011198D01*
X013784Y011198D01*
X016363Y012318D02*
X016425Y012257D01*
X010899Y011507D02*
X010899Y011321D01*
M02*
