G75*
G70*
%OFA0B0*%
%FSLAX24Y24*%
%IPPOS*%
%LPD*%
%AMOC8*
5,1,8,0,0,1.08239X$1,22.5*
%
%ADD10C,0.0000*%
%ADD11C,0.1300*%
%ADD12C,0.0560*%
%ADD13C,0.0640*%
%ADD14C,0.0820*%
D10*
X000190Y000181D02*
X000190Y013552D01*
X018685Y013552D01*
X018685Y000181D01*
X000190Y000181D01*
X000560Y004931D02*
X000562Y004981D01*
X000568Y005031D01*
X000578Y005080D01*
X000592Y005128D01*
X000609Y005175D01*
X000630Y005220D01*
X000655Y005264D01*
X000683Y005305D01*
X000715Y005344D01*
X000749Y005381D01*
X000786Y005415D01*
X000826Y005445D01*
X000868Y005472D01*
X000912Y005496D01*
X000958Y005517D01*
X001005Y005533D01*
X001053Y005546D01*
X001103Y005555D01*
X001152Y005560D01*
X001203Y005561D01*
X001253Y005558D01*
X001302Y005551D01*
X001351Y005540D01*
X001399Y005525D01*
X001445Y005507D01*
X001490Y005485D01*
X001533Y005459D01*
X001574Y005430D01*
X001613Y005398D01*
X001649Y005363D01*
X001681Y005325D01*
X001711Y005285D01*
X001738Y005242D01*
X001761Y005198D01*
X001780Y005152D01*
X001796Y005104D01*
X001808Y005055D01*
X001816Y005006D01*
X001820Y004956D01*
X001820Y004906D01*
X001816Y004856D01*
X001808Y004807D01*
X001796Y004758D01*
X001780Y004710D01*
X001761Y004664D01*
X001738Y004620D01*
X001711Y004577D01*
X001681Y004537D01*
X001649Y004499D01*
X001613Y004464D01*
X001574Y004432D01*
X001533Y004403D01*
X001490Y004377D01*
X001445Y004355D01*
X001399Y004337D01*
X001351Y004322D01*
X001302Y004311D01*
X001253Y004304D01*
X001203Y004301D01*
X001152Y004302D01*
X001103Y004307D01*
X001053Y004316D01*
X001005Y004329D01*
X000958Y004345D01*
X000912Y004366D01*
X000868Y004390D01*
X000826Y004417D01*
X000786Y004447D01*
X000749Y004481D01*
X000715Y004518D01*
X000683Y004557D01*
X000655Y004598D01*
X000630Y004642D01*
X000609Y004687D01*
X000592Y004734D01*
X000578Y004782D01*
X000568Y004831D01*
X000562Y004881D01*
X000560Y004931D01*
X000560Y012556D02*
X000562Y012606D01*
X000568Y012656D01*
X000578Y012705D01*
X000592Y012753D01*
X000609Y012800D01*
X000630Y012845D01*
X000655Y012889D01*
X000683Y012930D01*
X000715Y012969D01*
X000749Y013006D01*
X000786Y013040D01*
X000826Y013070D01*
X000868Y013097D01*
X000912Y013121D01*
X000958Y013142D01*
X001005Y013158D01*
X001053Y013171D01*
X001103Y013180D01*
X001152Y013185D01*
X001203Y013186D01*
X001253Y013183D01*
X001302Y013176D01*
X001351Y013165D01*
X001399Y013150D01*
X001445Y013132D01*
X001490Y013110D01*
X001533Y013084D01*
X001574Y013055D01*
X001613Y013023D01*
X001649Y012988D01*
X001681Y012950D01*
X001711Y012910D01*
X001738Y012867D01*
X001761Y012823D01*
X001780Y012777D01*
X001796Y012729D01*
X001808Y012680D01*
X001816Y012631D01*
X001820Y012581D01*
X001820Y012531D01*
X001816Y012481D01*
X001808Y012432D01*
X001796Y012383D01*
X001780Y012335D01*
X001761Y012289D01*
X001738Y012245D01*
X001711Y012202D01*
X001681Y012162D01*
X001649Y012124D01*
X001613Y012089D01*
X001574Y012057D01*
X001533Y012028D01*
X001490Y012002D01*
X001445Y011980D01*
X001399Y011962D01*
X001351Y011947D01*
X001302Y011936D01*
X001253Y011929D01*
X001203Y011926D01*
X001152Y011927D01*
X001103Y011932D01*
X001053Y011941D01*
X001005Y011954D01*
X000958Y011970D01*
X000912Y011991D01*
X000868Y012015D01*
X000826Y012042D01*
X000786Y012072D01*
X000749Y012106D01*
X000715Y012143D01*
X000683Y012182D01*
X000655Y012223D01*
X000630Y012267D01*
X000609Y012312D01*
X000592Y012359D01*
X000578Y012407D01*
X000568Y012456D01*
X000562Y012506D01*
X000560Y012556D01*
X017060Y012556D02*
X017062Y012606D01*
X017068Y012656D01*
X017078Y012705D01*
X017092Y012753D01*
X017109Y012800D01*
X017130Y012845D01*
X017155Y012889D01*
X017183Y012930D01*
X017215Y012969D01*
X017249Y013006D01*
X017286Y013040D01*
X017326Y013070D01*
X017368Y013097D01*
X017412Y013121D01*
X017458Y013142D01*
X017505Y013158D01*
X017553Y013171D01*
X017603Y013180D01*
X017652Y013185D01*
X017703Y013186D01*
X017753Y013183D01*
X017802Y013176D01*
X017851Y013165D01*
X017899Y013150D01*
X017945Y013132D01*
X017990Y013110D01*
X018033Y013084D01*
X018074Y013055D01*
X018113Y013023D01*
X018149Y012988D01*
X018181Y012950D01*
X018211Y012910D01*
X018238Y012867D01*
X018261Y012823D01*
X018280Y012777D01*
X018296Y012729D01*
X018308Y012680D01*
X018316Y012631D01*
X018320Y012581D01*
X018320Y012531D01*
X018316Y012481D01*
X018308Y012432D01*
X018296Y012383D01*
X018280Y012335D01*
X018261Y012289D01*
X018238Y012245D01*
X018211Y012202D01*
X018181Y012162D01*
X018149Y012124D01*
X018113Y012089D01*
X018074Y012057D01*
X018033Y012028D01*
X017990Y012002D01*
X017945Y011980D01*
X017899Y011962D01*
X017851Y011947D01*
X017802Y011936D01*
X017753Y011929D01*
X017703Y011926D01*
X017652Y011927D01*
X017603Y011932D01*
X017553Y011941D01*
X017505Y011954D01*
X017458Y011970D01*
X017412Y011991D01*
X017368Y012015D01*
X017326Y012042D01*
X017286Y012072D01*
X017249Y012106D01*
X017215Y012143D01*
X017183Y012182D01*
X017155Y012223D01*
X017130Y012267D01*
X017109Y012312D01*
X017092Y012359D01*
X017078Y012407D01*
X017068Y012456D01*
X017062Y012506D01*
X017060Y012556D01*
X017060Y004931D02*
X017062Y004981D01*
X017068Y005031D01*
X017078Y005080D01*
X017092Y005128D01*
X017109Y005175D01*
X017130Y005220D01*
X017155Y005264D01*
X017183Y005305D01*
X017215Y005344D01*
X017249Y005381D01*
X017286Y005415D01*
X017326Y005445D01*
X017368Y005472D01*
X017412Y005496D01*
X017458Y005517D01*
X017505Y005533D01*
X017553Y005546D01*
X017603Y005555D01*
X017652Y005560D01*
X017703Y005561D01*
X017753Y005558D01*
X017802Y005551D01*
X017851Y005540D01*
X017899Y005525D01*
X017945Y005507D01*
X017990Y005485D01*
X018033Y005459D01*
X018074Y005430D01*
X018113Y005398D01*
X018149Y005363D01*
X018181Y005325D01*
X018211Y005285D01*
X018238Y005242D01*
X018261Y005198D01*
X018280Y005152D01*
X018296Y005104D01*
X018308Y005055D01*
X018316Y005006D01*
X018320Y004956D01*
X018320Y004906D01*
X018316Y004856D01*
X018308Y004807D01*
X018296Y004758D01*
X018280Y004710D01*
X018261Y004664D01*
X018238Y004620D01*
X018211Y004577D01*
X018181Y004537D01*
X018149Y004499D01*
X018113Y004464D01*
X018074Y004432D01*
X018033Y004403D01*
X017990Y004377D01*
X017945Y004355D01*
X017899Y004337D01*
X017851Y004322D01*
X017802Y004311D01*
X017753Y004304D01*
X017703Y004301D01*
X017652Y004302D01*
X017603Y004307D01*
X017553Y004316D01*
X017505Y004329D01*
X017458Y004345D01*
X017412Y004366D01*
X017368Y004390D01*
X017326Y004417D01*
X017286Y004447D01*
X017249Y004481D01*
X017215Y004518D01*
X017183Y004557D01*
X017155Y004598D01*
X017130Y004642D01*
X017109Y004687D01*
X017092Y004734D01*
X017078Y004782D01*
X017068Y004831D01*
X017062Y004881D01*
X017060Y004931D01*
D11*
X017690Y004931D03*
X017690Y012556D03*
X001190Y012556D03*
X001190Y004931D03*
D12*
X005065Y004941D02*
X005065Y004421D01*
X006065Y004421D02*
X006065Y004941D01*
X007065Y004941D02*
X007065Y004421D01*
X008065Y004421D02*
X008065Y004941D01*
X009065Y004941D02*
X009065Y004421D01*
X010065Y004421D02*
X010065Y004941D01*
X011065Y004941D02*
X011065Y004421D01*
X012065Y004421D02*
X012065Y004941D01*
X013065Y004941D02*
X013065Y004421D01*
X013065Y007421D02*
X013065Y007941D01*
X012565Y008671D02*
X012565Y009191D01*
X011565Y009191D02*
X011565Y008671D01*
X012065Y007941D02*
X012065Y007421D01*
X011065Y007421D02*
X011065Y007941D01*
X010065Y007941D02*
X010065Y007421D01*
X009065Y007421D02*
X009065Y007941D01*
X009565Y008671D02*
X009565Y009191D01*
X010565Y009191D02*
X010565Y008671D01*
X008565Y008671D02*
X008565Y009191D01*
X007565Y009191D02*
X007565Y008671D01*
X008065Y007941D02*
X008065Y007421D01*
X007065Y007421D02*
X007065Y007941D01*
X006065Y007941D02*
X006065Y007421D01*
X005065Y007421D02*
X005065Y007941D01*
X005565Y008671D02*
X005565Y009191D01*
X006565Y009191D02*
X006565Y008671D01*
X006565Y011671D02*
X006565Y012191D01*
X005565Y012191D02*
X005565Y011671D01*
X007565Y011671D02*
X007565Y012191D01*
X008565Y012191D02*
X008565Y011671D01*
X009565Y011671D02*
X009565Y012191D01*
X010565Y012191D02*
X010565Y011671D01*
X011565Y011671D02*
X011565Y012191D01*
X012565Y012191D02*
X012565Y011671D01*
D13*
X017515Y010431D02*
X018115Y010431D01*
X018115Y009431D02*
X017515Y009431D01*
X017515Y008431D02*
X018115Y008431D01*
X018115Y007431D02*
X017515Y007431D01*
X017515Y006431D02*
X018115Y006431D01*
X001365Y006431D02*
X000765Y006431D01*
X000765Y007431D02*
X001365Y007431D01*
X001365Y008431D02*
X000765Y008431D01*
X000765Y009431D02*
X001365Y009431D01*
X001365Y010431D02*
X000765Y010431D01*
D14*
X001560Y002571D02*
X001560Y001791D01*
X003530Y001791D02*
X003530Y002571D01*
X005490Y002571D02*
X005490Y001791D01*
X007470Y001791D02*
X007470Y002571D01*
X009440Y002571D02*
X009440Y001791D01*
X011410Y001791D02*
X011410Y002571D01*
X013390Y002571D02*
X013390Y001791D01*
X015350Y001791D02*
X015350Y002571D01*
X017320Y002571D02*
X017320Y001791D01*
M02*
