%
M48
M72
T01C0.0120
T02C0.0320
T03C0.0400
T04C0.0520
T05C0.1260
%
T01
X3440Y8181
X7440Y10681
X14440Y8181
T02
X13065Y7681
X12065Y7681
X11065Y7681
X10065Y7681
X9065Y7681
X8065Y7681
X7065Y7681
X6065Y7681
X5065Y7681
X5565Y8931
X6565Y8931
X7565Y8931
X8565Y8931
X9565Y8931
X10565Y8931
X11565Y8931
X12565Y8931
X12565Y11931
X11565Y11931
X10565Y11931
X9565Y11931
X8565Y11931
X7565Y11931
X6565Y11931
X5565Y11931
X6065Y4681
X7065Y4681
X8065Y4681
X9065Y4681
X10065Y4681
X11065Y4681
X12065Y4681
X13065Y4681
X5065Y4681
T03
X1065Y6431
X1065Y7431
X1065Y8431
X1065Y9431
X1065Y10431
X17815Y10431
X17815Y9431
X17815Y8431
X17815Y7431
X17815Y6431
T04
X1560Y2181
X3530Y2181
X5490Y2181
X7470Y2181
X9440Y2181
X11410Y2181
X13390Y2181
X15350Y2181
X17320Y2181
T05
X17690Y4931
X17690Y12556
X1190Y12556
X1190Y4931
M30
