G75*
G70*
%OFA0B0*%
%FSLAX24Y24*%
%IPPOS*%
%LPD*%
%AMOC8*
5,1,8,0,0,1.08239X$1,22.5*
%
%ADD10C,0.0000*%
%ADD11C,0.0060*%
%ADD12C,0.0030*%
%ADD13C,0.0100*%
%ADD14C,0.0330*%
%ADD15C,0.0040*%
%ADD16C,0.0080*%
%ADD17C,0.0100*%
%ADD18C,0.0120*%
%ADD19C,0.0284*%
%ADD20C,0.0160*%
D10*
X000180Y000180D02*
X000180Y019865D01*
X036007Y019865D01*
X036007Y000180D01*
X000180Y000180D01*
X001050Y001680D02*
X001052Y001730D01*
X001058Y001780D01*
X001068Y001829D01*
X001082Y001877D01*
X001099Y001924D01*
X001120Y001969D01*
X001145Y002013D01*
X001173Y002054D01*
X001205Y002093D01*
X001239Y002130D01*
X001276Y002164D01*
X001316Y002194D01*
X001358Y002221D01*
X001402Y002245D01*
X001448Y002266D01*
X001495Y002282D01*
X001543Y002295D01*
X001593Y002304D01*
X001642Y002309D01*
X001693Y002310D01*
X001743Y002307D01*
X001792Y002300D01*
X001841Y002289D01*
X001889Y002274D01*
X001935Y002256D01*
X001980Y002234D01*
X002023Y002208D01*
X002064Y002179D01*
X002103Y002147D01*
X002139Y002112D01*
X002171Y002074D01*
X002201Y002034D01*
X002228Y001991D01*
X002251Y001947D01*
X002270Y001901D01*
X002286Y001853D01*
X002298Y001804D01*
X002306Y001755D01*
X002310Y001705D01*
X002310Y001655D01*
X002306Y001605D01*
X002298Y001556D01*
X002286Y001507D01*
X002270Y001459D01*
X002251Y001413D01*
X002228Y001369D01*
X002201Y001326D01*
X002171Y001286D01*
X002139Y001248D01*
X002103Y001213D01*
X002064Y001181D01*
X002023Y001152D01*
X001980Y001126D01*
X001935Y001104D01*
X001889Y001086D01*
X001841Y001071D01*
X001792Y001060D01*
X001743Y001053D01*
X001693Y001050D01*
X001642Y001051D01*
X001593Y001056D01*
X001543Y001065D01*
X001495Y001078D01*
X001448Y001094D01*
X001402Y001115D01*
X001358Y001139D01*
X001316Y001166D01*
X001276Y001196D01*
X001239Y001230D01*
X001205Y001267D01*
X001173Y001306D01*
X001145Y001347D01*
X001120Y001391D01*
X001099Y001436D01*
X001082Y001483D01*
X001068Y001531D01*
X001058Y001580D01*
X001052Y001630D01*
X001050Y001680D01*
X001050Y018680D02*
X001052Y018730D01*
X001058Y018780D01*
X001068Y018829D01*
X001082Y018877D01*
X001099Y018924D01*
X001120Y018969D01*
X001145Y019013D01*
X001173Y019054D01*
X001205Y019093D01*
X001239Y019130D01*
X001276Y019164D01*
X001316Y019194D01*
X001358Y019221D01*
X001402Y019245D01*
X001448Y019266D01*
X001495Y019282D01*
X001543Y019295D01*
X001593Y019304D01*
X001642Y019309D01*
X001693Y019310D01*
X001743Y019307D01*
X001792Y019300D01*
X001841Y019289D01*
X001889Y019274D01*
X001935Y019256D01*
X001980Y019234D01*
X002023Y019208D01*
X002064Y019179D01*
X002103Y019147D01*
X002139Y019112D01*
X002171Y019074D01*
X002201Y019034D01*
X002228Y018991D01*
X002251Y018947D01*
X002270Y018901D01*
X002286Y018853D01*
X002298Y018804D01*
X002306Y018755D01*
X002310Y018705D01*
X002310Y018655D01*
X002306Y018605D01*
X002298Y018556D01*
X002286Y018507D01*
X002270Y018459D01*
X002251Y018413D01*
X002228Y018369D01*
X002201Y018326D01*
X002171Y018286D01*
X002139Y018248D01*
X002103Y018213D01*
X002064Y018181D01*
X002023Y018152D01*
X001980Y018126D01*
X001935Y018104D01*
X001889Y018086D01*
X001841Y018071D01*
X001792Y018060D01*
X001743Y018053D01*
X001693Y018050D01*
X001642Y018051D01*
X001593Y018056D01*
X001543Y018065D01*
X001495Y018078D01*
X001448Y018094D01*
X001402Y018115D01*
X001358Y018139D01*
X001316Y018166D01*
X001276Y018196D01*
X001239Y018230D01*
X001205Y018267D01*
X001173Y018306D01*
X001145Y018347D01*
X001120Y018391D01*
X001099Y018436D01*
X001082Y018483D01*
X001068Y018531D01*
X001058Y018580D01*
X001052Y018630D01*
X001050Y018680D01*
X034050Y018680D02*
X034052Y018730D01*
X034058Y018780D01*
X034068Y018829D01*
X034082Y018877D01*
X034099Y018924D01*
X034120Y018969D01*
X034145Y019013D01*
X034173Y019054D01*
X034205Y019093D01*
X034239Y019130D01*
X034276Y019164D01*
X034316Y019194D01*
X034358Y019221D01*
X034402Y019245D01*
X034448Y019266D01*
X034495Y019282D01*
X034543Y019295D01*
X034593Y019304D01*
X034642Y019309D01*
X034693Y019310D01*
X034743Y019307D01*
X034792Y019300D01*
X034841Y019289D01*
X034889Y019274D01*
X034935Y019256D01*
X034980Y019234D01*
X035023Y019208D01*
X035064Y019179D01*
X035103Y019147D01*
X035139Y019112D01*
X035171Y019074D01*
X035201Y019034D01*
X035228Y018991D01*
X035251Y018947D01*
X035270Y018901D01*
X035286Y018853D01*
X035298Y018804D01*
X035306Y018755D01*
X035310Y018705D01*
X035310Y018655D01*
X035306Y018605D01*
X035298Y018556D01*
X035286Y018507D01*
X035270Y018459D01*
X035251Y018413D01*
X035228Y018369D01*
X035201Y018326D01*
X035171Y018286D01*
X035139Y018248D01*
X035103Y018213D01*
X035064Y018181D01*
X035023Y018152D01*
X034980Y018126D01*
X034935Y018104D01*
X034889Y018086D01*
X034841Y018071D01*
X034792Y018060D01*
X034743Y018053D01*
X034693Y018050D01*
X034642Y018051D01*
X034593Y018056D01*
X034543Y018065D01*
X034495Y018078D01*
X034448Y018094D01*
X034402Y018115D01*
X034358Y018139D01*
X034316Y018166D01*
X034276Y018196D01*
X034239Y018230D01*
X034205Y018267D01*
X034173Y018306D01*
X034145Y018347D01*
X034120Y018391D01*
X034099Y018436D01*
X034082Y018483D01*
X034068Y018531D01*
X034058Y018580D01*
X034052Y018630D01*
X034050Y018680D01*
X034050Y001680D02*
X034052Y001730D01*
X034058Y001780D01*
X034068Y001829D01*
X034082Y001877D01*
X034099Y001924D01*
X034120Y001969D01*
X034145Y002013D01*
X034173Y002054D01*
X034205Y002093D01*
X034239Y002130D01*
X034276Y002164D01*
X034316Y002194D01*
X034358Y002221D01*
X034402Y002245D01*
X034448Y002266D01*
X034495Y002282D01*
X034543Y002295D01*
X034593Y002304D01*
X034642Y002309D01*
X034693Y002310D01*
X034743Y002307D01*
X034792Y002300D01*
X034841Y002289D01*
X034889Y002274D01*
X034935Y002256D01*
X034980Y002234D01*
X035023Y002208D01*
X035064Y002179D01*
X035103Y002147D01*
X035139Y002112D01*
X035171Y002074D01*
X035201Y002034D01*
X035228Y001991D01*
X035251Y001947D01*
X035270Y001901D01*
X035286Y001853D01*
X035298Y001804D01*
X035306Y001755D01*
X035310Y001705D01*
X035310Y001655D01*
X035306Y001605D01*
X035298Y001556D01*
X035286Y001507D01*
X035270Y001459D01*
X035251Y001413D01*
X035228Y001369D01*
X035201Y001326D01*
X035171Y001286D01*
X035139Y001248D01*
X035103Y001213D01*
X035064Y001181D01*
X035023Y001152D01*
X034980Y001126D01*
X034935Y001104D01*
X034889Y001086D01*
X034841Y001071D01*
X034792Y001060D01*
X034743Y001053D01*
X034693Y001050D01*
X034642Y001051D01*
X034593Y001056D01*
X034543Y001065D01*
X034495Y001078D01*
X034448Y001094D01*
X034402Y001115D01*
X034358Y001139D01*
X034316Y001166D01*
X034276Y001196D01*
X034239Y001230D01*
X034205Y001267D01*
X034173Y001306D01*
X034145Y001347D01*
X034120Y001391D01*
X034099Y001436D01*
X034082Y001483D01*
X034068Y001531D01*
X034058Y001580D01*
X034052Y001630D01*
X034050Y001680D01*
D11*
X018329Y001445D02*
X018329Y001124D01*
X017901Y001124D02*
X017901Y001765D01*
X018008Y001551D02*
X018222Y001551D01*
X018329Y001445D01*
X018008Y001551D02*
X017901Y001445D01*
X017684Y001551D02*
X017364Y001551D01*
X017257Y001445D01*
X017257Y001231D01*
X017364Y001124D01*
X017684Y001124D01*
X017039Y001231D02*
X016933Y001338D01*
X016719Y001338D01*
X016612Y001445D01*
X016719Y001551D01*
X017039Y001551D01*
X017039Y001231D02*
X016933Y001124D01*
X016612Y001124D01*
X016395Y001124D02*
X016395Y001551D01*
X015968Y001551D02*
X015968Y001231D01*
X016075Y001124D01*
X016395Y001124D01*
X015750Y001231D02*
X015750Y001445D01*
X015644Y001551D01*
X015323Y001551D01*
X015323Y001765D02*
X015323Y001124D01*
X015644Y001124D01*
X015750Y001231D01*
X015106Y001124D02*
X015106Y001445D01*
X014999Y001551D01*
X014892Y001445D01*
X014892Y001124D01*
X014679Y001124D02*
X014679Y001551D01*
X014785Y001551D01*
X014892Y001445D01*
X014461Y001445D02*
X014461Y001124D01*
X014034Y001124D02*
X014034Y001765D01*
X013817Y001765D02*
X013390Y001124D01*
X013172Y001124D02*
X013172Y001445D01*
X013065Y001551D01*
X012959Y001445D01*
X012959Y001124D01*
X012745Y001124D02*
X012745Y001551D01*
X012852Y001551D01*
X012959Y001445D01*
X012528Y001445D02*
X012528Y001231D01*
X012421Y001124D01*
X012207Y001124D01*
X012101Y001231D01*
X012101Y001445D01*
X012207Y001551D01*
X012421Y001551D01*
X012528Y001445D01*
X011883Y001551D02*
X011563Y001551D01*
X011456Y001445D01*
X011456Y001231D01*
X011563Y001124D01*
X011883Y001124D01*
X011240Y001124D02*
X011240Y001231D01*
X011134Y001231D01*
X011134Y001124D01*
X011240Y001124D01*
X010916Y001231D02*
X010916Y001445D01*
X010809Y001551D01*
X010489Y001551D01*
X010489Y001765D02*
X010489Y001124D01*
X010809Y001124D01*
X010916Y001231D01*
X010272Y001124D02*
X010272Y001551D01*
X009845Y001551D02*
X009845Y001231D01*
X009951Y001124D01*
X010272Y001124D01*
X009627Y001124D02*
X009627Y001445D01*
X009520Y001551D01*
X009307Y001551D01*
X009200Y001445D01*
X008984Y001551D02*
X008770Y001551D01*
X008877Y001658D02*
X008877Y001231D01*
X008984Y001124D01*
X009200Y001124D02*
X009200Y001765D01*
X009307Y002124D02*
X009521Y002124D01*
X009414Y002124D02*
X009414Y002551D01*
X009307Y002551D01*
X009414Y002765D02*
X009414Y002872D01*
X009737Y002445D02*
X009737Y002231D01*
X009844Y002124D01*
X010164Y002124D01*
X010382Y002231D02*
X010488Y002124D01*
X010809Y002124D01*
X010809Y002445D01*
X010702Y002551D01*
X010488Y002551D01*
X010488Y002338D02*
X010809Y002338D01*
X011026Y002124D02*
X011026Y002551D01*
X011347Y002551D01*
X011453Y002445D01*
X011453Y002124D01*
X011671Y002124D02*
X011671Y002551D01*
X011778Y002551D01*
X011884Y002445D01*
X011991Y002551D01*
X012098Y002445D01*
X012098Y002124D01*
X011884Y002124D02*
X011884Y002445D01*
X012315Y002231D02*
X012422Y002124D01*
X012742Y002124D01*
X012742Y002445D01*
X012636Y002551D01*
X012422Y002551D01*
X012422Y002338D02*
X012742Y002338D01*
X012960Y002338D02*
X013280Y002551D01*
X013497Y002445D02*
X013497Y002231D01*
X013604Y002124D01*
X013817Y002124D01*
X013924Y002338D02*
X013497Y002338D01*
X013497Y002445D02*
X013604Y002551D01*
X013817Y002551D01*
X013924Y002445D01*
X013924Y002338D01*
X014142Y002551D02*
X014248Y002551D01*
X014248Y002124D01*
X014142Y002124D02*
X014355Y002124D01*
X014678Y002231D02*
X014785Y002124D01*
X014678Y002231D02*
X014678Y002658D01*
X014571Y002551D02*
X014785Y002551D01*
X015001Y002231D02*
X015108Y002231D01*
X015108Y002124D01*
X015001Y002124D01*
X015001Y002231D01*
X015323Y002231D02*
X015430Y002124D01*
X015750Y002124D01*
X015750Y002765D01*
X015750Y002551D02*
X015430Y002551D01*
X015323Y002445D01*
X015323Y002231D01*
X015968Y002231D02*
X016075Y002124D01*
X016288Y002124D01*
X016395Y002338D02*
X015968Y002338D01*
X015968Y002231D02*
X015968Y002445D01*
X016075Y002551D01*
X016288Y002551D01*
X016395Y002445D01*
X016395Y002338D01*
X014461Y001445D02*
X014354Y001551D01*
X014141Y001551D01*
X014034Y001445D01*
X013280Y002124D02*
X012960Y002338D01*
X012960Y002124D02*
X012960Y002765D01*
X012422Y002338D02*
X012315Y002231D01*
X014248Y002765D02*
X014248Y002872D01*
X010488Y002338D02*
X010382Y002231D01*
X010164Y002551D02*
X009844Y002551D01*
X009737Y002445D01*
X009092Y002231D02*
X009092Y002124D01*
X008985Y002124D01*
X008985Y002231D01*
X009092Y002231D01*
X008768Y002231D02*
X008768Y002551D01*
X008768Y002231D02*
X008661Y002124D01*
X008554Y002231D01*
X008447Y002124D01*
X008341Y002231D01*
X008341Y002551D01*
X008123Y002551D02*
X008123Y002231D01*
X008016Y002124D01*
X007910Y002231D01*
X007803Y002124D01*
X007696Y002231D01*
X007696Y002551D01*
X007479Y002551D02*
X007479Y002231D01*
X007372Y002124D01*
X007265Y002231D01*
X007158Y002124D01*
X007052Y002231D01*
X007052Y002551D01*
X006834Y002765D02*
X006407Y002124D01*
X006834Y001765D02*
X006407Y001124D01*
X006191Y001124D02*
X006085Y001124D01*
X006085Y001231D01*
X006191Y001231D01*
X006191Y001124D01*
X005867Y001231D02*
X005760Y001338D01*
X005547Y001338D01*
X005440Y001445D01*
X005547Y001551D01*
X005867Y001551D01*
X006085Y001551D02*
X006085Y001445D01*
X006191Y001445D01*
X006191Y001551D01*
X006085Y001551D01*
X005867Y001231D02*
X005760Y001124D01*
X005440Y001124D01*
X005223Y001231D02*
X005116Y001124D01*
X004796Y001124D01*
X004796Y000911D02*
X004796Y001551D01*
X005116Y001551D01*
X005223Y001445D01*
X005223Y001231D01*
X004579Y001124D02*
X004473Y001231D01*
X004473Y001658D01*
X004579Y001551D02*
X004366Y001551D01*
X004150Y001551D02*
X003936Y001551D01*
X004043Y001658D02*
X004043Y001231D01*
X004150Y001124D01*
X003719Y001124D02*
X003719Y001445D01*
X003612Y001551D01*
X003398Y001551D01*
X003292Y001445D01*
X003292Y001765D02*
X003292Y001124D01*
X004796Y001911D02*
X004796Y002551D01*
X005116Y002551D01*
X005223Y002445D01*
X005223Y002231D01*
X005116Y002124D01*
X004796Y002124D01*
X004579Y002124D02*
X004473Y002231D01*
X004473Y002658D01*
X004579Y002551D02*
X004366Y002551D01*
X004150Y002551D02*
X003936Y002551D01*
X004043Y002658D02*
X004043Y002231D01*
X004150Y002124D01*
X003719Y002124D02*
X003719Y002445D01*
X003612Y002551D01*
X003398Y002551D01*
X003292Y002445D01*
X003292Y002765D02*
X003292Y002124D01*
X005440Y002124D02*
X005440Y002231D01*
X005547Y002231D01*
X005547Y002124D01*
X005440Y002124D01*
X005762Y002124D02*
X006189Y002765D01*
X005547Y002551D02*
X005547Y002445D01*
X005440Y002445D01*
X005440Y002551D01*
X005547Y002551D01*
X007052Y001124D02*
X007479Y001765D01*
X007696Y001445D02*
X007696Y001231D01*
X007803Y001124D01*
X008123Y001124D01*
X008123Y001018D02*
X008123Y001551D01*
X007803Y001551D01*
X007696Y001445D01*
X008123Y001018D02*
X008016Y000911D01*
X007910Y000911D01*
X008341Y001124D02*
X008554Y001124D01*
X008447Y001124D02*
X008447Y001551D01*
X008341Y001551D01*
X008447Y001765D02*
X008447Y001872D01*
X011232Y018455D02*
X011339Y018455D01*
X011446Y018562D01*
X011446Y019096D01*
X011126Y019096D01*
X011019Y018989D01*
X011019Y018775D01*
X011126Y018669D01*
X011446Y018669D01*
X011664Y018669D02*
X011664Y019096D01*
X011770Y019096D01*
X011877Y018989D01*
X011984Y019096D01*
X012091Y018989D01*
X012091Y018669D01*
X011877Y018669D02*
X011877Y018989D01*
X012308Y018989D02*
X012308Y018775D01*
X012415Y018669D01*
X012628Y018669D01*
X012735Y018882D02*
X012308Y018882D01*
X012308Y018989D02*
X012415Y019096D01*
X012628Y019096D01*
X012735Y018989D01*
X012735Y018882D01*
X012953Y018669D02*
X012953Y019096D01*
X013273Y019096D01*
X013380Y018989D01*
X013380Y018669D01*
X013704Y018775D02*
X013811Y018669D01*
X013704Y018775D02*
X013704Y019202D01*
X013597Y019096D02*
X013811Y019096D01*
X014671Y018989D02*
X014992Y018989D01*
X015098Y018882D01*
X015098Y018775D01*
X014992Y018669D01*
X014671Y018669D01*
X014671Y019309D01*
X014992Y019309D01*
X015098Y019202D01*
X015098Y019096D01*
X014992Y018989D01*
X015316Y018989D02*
X015316Y018775D01*
X015423Y018669D01*
X015636Y018669D01*
X015743Y018775D01*
X015743Y018989D01*
X015636Y019096D01*
X015423Y019096D01*
X015316Y018989D01*
X015961Y018775D02*
X016067Y018882D01*
X016388Y018882D01*
X016388Y018989D02*
X016388Y018669D01*
X016067Y018669D01*
X015961Y018775D01*
X016281Y019096D02*
X016388Y018989D01*
X016281Y019096D02*
X016067Y019096D01*
X016605Y019096D02*
X016605Y018669D01*
X016605Y018882D02*
X016819Y019096D01*
X016925Y019096D01*
X017142Y018989D02*
X017249Y019096D01*
X017569Y019096D01*
X017569Y019309D02*
X017569Y018669D01*
X017249Y018669D01*
X017142Y018775D01*
X017142Y018989D01*
X018431Y019096D02*
X018645Y018669D01*
X018858Y019096D01*
X019076Y019096D02*
X019289Y019309D01*
X019289Y018669D01*
X019076Y018669D02*
X019503Y018669D01*
X019720Y018669D02*
X019827Y018669D01*
X019827Y018775D01*
X019720Y018775D01*
X019720Y018669D01*
X020043Y018775D02*
X020470Y019202D01*
X020470Y018775D01*
X020363Y018669D01*
X020149Y018669D01*
X020043Y018775D01*
X020043Y019202D01*
X020149Y019309D01*
X020363Y019309D01*
X020470Y019202D01*
X010801Y018989D02*
X010801Y018882D01*
X010374Y018882D01*
X010374Y018775D02*
X010374Y018989D01*
X010481Y019096D01*
X010695Y019096D01*
X010801Y018989D01*
X010695Y018669D02*
X010481Y018669D01*
X010374Y018775D01*
X010157Y018775D02*
X010050Y018669D01*
X009837Y018669D01*
X009730Y018775D01*
X009837Y018989D02*
X010050Y018989D01*
X010157Y018882D01*
X010157Y018775D01*
X009837Y018989D02*
X009730Y019096D01*
X009730Y019202D01*
X009837Y019309D01*
X010050Y019309D01*
X010157Y019202D01*
X009512Y018989D02*
X009085Y018989D01*
X008868Y018989D02*
X008868Y018669D01*
X008868Y018989D02*
X008761Y019096D01*
X008441Y019096D01*
X008441Y018669D01*
X008223Y018882D02*
X007796Y018882D01*
X007796Y018775D02*
X007796Y018989D01*
X007903Y019096D01*
X008116Y019096D01*
X008223Y018989D01*
X008223Y018882D01*
X008116Y018669D02*
X007903Y018669D01*
X007796Y018775D01*
X007579Y019096D02*
X007365Y018669D01*
X007152Y019096D01*
X006934Y018989D02*
X006934Y018882D01*
X006507Y018882D01*
X006507Y018775D02*
X006507Y018989D01*
X006614Y019096D01*
X006827Y019096D01*
X006934Y018989D01*
X006827Y018669D02*
X006614Y018669D01*
X006507Y018775D01*
X006290Y018775D02*
X006183Y018669D01*
X005969Y018669D01*
X005863Y018775D01*
X005969Y018989D02*
X006183Y018989D01*
X006290Y018882D01*
X006290Y018775D01*
X005969Y018989D02*
X005863Y019096D01*
X005863Y019202D01*
X005969Y019309D01*
X006183Y019309D01*
X006290Y019202D01*
D12*
X001905Y017417D02*
X001658Y017417D01*
X001536Y017417D02*
X001413Y017541D01*
X001475Y017541D02*
X001289Y017541D01*
X001289Y017417D02*
X001289Y017788D01*
X001475Y017788D01*
X001536Y017726D01*
X001536Y017603D01*
X001475Y017541D01*
X001658Y017664D02*
X001781Y017788D01*
X001781Y017417D01*
X012164Y018042D02*
X012164Y018413D01*
X012350Y018413D01*
X012411Y018351D01*
X012411Y018228D01*
X012350Y018166D01*
X012164Y018166D01*
X012288Y018166D02*
X012411Y018042D01*
X012533Y018042D02*
X012780Y018289D01*
X012780Y018351D01*
X012718Y018413D01*
X012595Y018413D01*
X012533Y018351D01*
X012533Y018042D02*
X012780Y018042D01*
X018164Y018042D02*
X018164Y018413D01*
X018350Y018413D01*
X018411Y018351D01*
X018411Y018228D01*
X018350Y018166D01*
X018164Y018166D01*
X018288Y018166D02*
X018411Y018042D01*
X018533Y018104D02*
X018595Y018042D01*
X018718Y018042D01*
X018780Y018104D01*
X018780Y018166D01*
X018718Y018228D01*
X018533Y018228D01*
X018533Y018104D01*
X018533Y018228D02*
X018656Y018351D01*
X018780Y018413D01*
X030664Y018413D02*
X030664Y018042D01*
X030664Y018166D02*
X030850Y018166D01*
X030911Y018228D01*
X030911Y018351D01*
X030850Y018413D01*
X030664Y018413D01*
X030788Y018166D02*
X030911Y018042D01*
X031033Y018042D02*
X031033Y018104D01*
X031280Y018351D01*
X031280Y018413D01*
X031033Y018413D01*
X017780Y010663D02*
X017533Y010663D01*
X017533Y010478D01*
X017656Y010539D01*
X017718Y010539D01*
X017780Y010478D01*
X017780Y010354D01*
X017718Y010292D01*
X017595Y010292D01*
X017533Y010354D01*
X017411Y010292D02*
X017288Y010416D01*
X017350Y010416D02*
X017164Y010416D01*
X017164Y010292D02*
X017164Y010663D01*
X017350Y010663D01*
X017411Y010601D01*
X017411Y010478D01*
X017350Y010416D01*
X009443Y010093D02*
X009072Y010093D01*
X009257Y009908D01*
X009257Y010155D01*
X009257Y009786D02*
X009319Y009725D01*
X009319Y009539D01*
X009443Y009539D02*
X009072Y009539D01*
X009072Y009725D01*
X009134Y009786D01*
X009257Y009786D01*
X009319Y009663D02*
X009443Y009786D01*
X001162Y009736D02*
X001039Y009612D01*
X001039Y009674D02*
X001039Y009489D01*
X001162Y009489D02*
X000792Y009489D01*
X000792Y009674D01*
X000854Y009736D01*
X000977Y009736D01*
X001039Y009674D01*
X001101Y009857D02*
X001162Y009919D01*
X001162Y010042D01*
X001101Y010104D01*
X001039Y010104D01*
X000977Y010042D01*
X000977Y009981D01*
X000977Y010042D02*
X000916Y010104D01*
X000854Y010104D01*
X000792Y010042D01*
X000792Y009919D01*
X000854Y009857D01*
X026035Y005469D02*
X026228Y005469D01*
X026325Y005372D01*
X026228Y005275D01*
X026035Y005275D01*
X026035Y005174D02*
X026035Y004981D01*
X026180Y004981D01*
X026132Y005077D01*
X026132Y005126D01*
X026180Y005174D01*
X026277Y005174D01*
X026325Y005126D01*
X026325Y005029D01*
X026277Y004981D01*
X026180Y004880D02*
X026180Y004686D01*
X026083Y004783D02*
X026277Y004783D01*
X027035Y004831D02*
X027035Y004734D01*
X027083Y004686D01*
X027277Y004686D01*
X027325Y004734D01*
X027325Y004831D01*
X027277Y004880D01*
X027180Y004880D01*
X027180Y004783D01*
X027083Y004880D02*
X027035Y004831D01*
X027035Y004981D02*
X027325Y005174D01*
X027035Y005174D01*
X027035Y005275D02*
X027035Y005420D01*
X027083Y005469D01*
X027277Y005469D01*
X027325Y005420D01*
X027325Y005275D01*
X027035Y005275D01*
X027035Y004981D02*
X027325Y004981D01*
X028035Y005029D02*
X028083Y004981D01*
X028277Y004981D01*
X028325Y005029D01*
X028325Y005126D01*
X028277Y005174D01*
X028325Y005275D02*
X028035Y005275D01*
X028083Y005174D02*
X028035Y005126D01*
X028035Y005029D01*
X028083Y004880D02*
X028035Y004831D01*
X028035Y004734D01*
X028083Y004686D01*
X028277Y004686D01*
X028325Y004734D01*
X028325Y004831D01*
X028277Y004880D01*
X028083Y004880D01*
X028325Y004585D02*
X028325Y004391D01*
X028035Y004391D01*
X028083Y004290D02*
X028035Y004242D01*
X028035Y004145D01*
X028083Y004097D01*
X028277Y004097D01*
X028325Y004145D01*
X028325Y004242D01*
X028277Y004290D01*
X028373Y003996D02*
X028373Y003802D01*
X028277Y003701D02*
X028180Y003701D01*
X028180Y003604D01*
X028083Y003507D02*
X028277Y003507D01*
X028325Y003556D01*
X028325Y003653D01*
X028277Y003701D01*
X028083Y003701D02*
X028035Y003653D01*
X028035Y003556D01*
X028083Y003507D01*
X028035Y003406D02*
X028035Y003213D01*
X028325Y003213D01*
X028325Y003406D01*
X028180Y003310D02*
X028180Y003213D01*
X028180Y003112D02*
X028228Y003063D01*
X028228Y002918D01*
X028228Y003015D02*
X028325Y003112D01*
X028180Y003112D02*
X028083Y003112D01*
X028035Y003063D01*
X028035Y002918D01*
X028325Y002918D01*
X029035Y003213D02*
X029035Y003358D01*
X029083Y003406D01*
X029180Y003406D01*
X029228Y003358D01*
X029228Y003213D01*
X029228Y003310D02*
X029325Y003406D01*
X029325Y003507D02*
X029035Y003507D01*
X029035Y003701D01*
X029083Y003802D02*
X029277Y003802D01*
X029325Y003850D01*
X029325Y003947D01*
X029277Y003996D01*
X029180Y003996D01*
X029180Y003899D01*
X029083Y003996D02*
X029035Y003947D01*
X029035Y003850D01*
X029083Y003802D01*
X029180Y003604D02*
X029180Y003507D01*
X029325Y003507D02*
X029325Y003701D01*
X030035Y003653D02*
X030035Y003556D01*
X030083Y003507D01*
X030277Y003507D01*
X030325Y003556D01*
X030325Y003653D01*
X030277Y003701D01*
X030180Y003701D01*
X030180Y003604D01*
X030083Y003701D02*
X030035Y003653D01*
X030373Y003802D02*
X030373Y003996D01*
X030325Y004097D02*
X030035Y004097D01*
X030325Y004097D02*
X030325Y004290D01*
X030325Y004391D02*
X030132Y004391D01*
X030035Y004488D01*
X030132Y004585D01*
X030325Y004585D01*
X030180Y004585D02*
X030180Y004391D01*
X030035Y004686D02*
X030035Y004880D01*
X030035Y004783D02*
X030325Y004783D01*
X030277Y004981D02*
X030325Y005029D01*
X030325Y005126D01*
X030277Y005174D01*
X030325Y005275D02*
X030035Y005275D01*
X030083Y005174D02*
X030035Y005126D01*
X030035Y005029D01*
X030083Y004981D01*
X030277Y004981D01*
X030180Y005275D02*
X030180Y005469D01*
X030035Y005469D02*
X030325Y005469D01*
X030975Y005555D02*
X030975Y002608D01*
X031035Y002623D02*
X031035Y002769D01*
X031083Y002817D01*
X031180Y002817D01*
X031228Y002769D01*
X031228Y002623D01*
X031325Y002623D02*
X031035Y002623D01*
X031228Y002720D02*
X031325Y002817D01*
X031325Y002918D02*
X031325Y003112D01*
X031277Y003213D02*
X031083Y003213D01*
X031035Y003261D01*
X031035Y003358D01*
X031083Y003406D01*
X031180Y003406D02*
X031180Y003310D01*
X031180Y003406D02*
X031277Y003406D01*
X031325Y003358D01*
X031325Y003261D01*
X031277Y003213D01*
X031180Y003015D02*
X031180Y002918D01*
X031035Y002918D02*
X031325Y002918D01*
X031035Y002918D02*
X031035Y003112D01*
X031373Y003507D02*
X031373Y003701D01*
X031325Y003802D02*
X031325Y003996D01*
X031325Y004097D02*
X031035Y004097D01*
X031325Y004290D01*
X031035Y004290D01*
X031132Y004391D02*
X031035Y004488D01*
X031132Y004585D01*
X031325Y004585D01*
X031325Y004686D02*
X031035Y004686D01*
X031035Y004831D01*
X031083Y004880D01*
X031132Y004880D01*
X031180Y004831D01*
X031180Y004686D01*
X031180Y004585D02*
X031180Y004391D01*
X031132Y004391D02*
X031325Y004391D01*
X031325Y004686D02*
X031325Y004831D01*
X031277Y004880D01*
X031228Y004880D01*
X031180Y004831D01*
X031325Y004981D02*
X031325Y005174D01*
X031325Y005275D02*
X031035Y005275D01*
X031035Y005469D01*
X031180Y005372D02*
X031180Y005275D01*
X031325Y005275D02*
X031325Y005469D01*
X032035Y005469D02*
X032228Y005275D01*
X032180Y005324D02*
X032325Y005469D01*
X032325Y005275D02*
X032035Y005275D01*
X032083Y005174D02*
X032035Y005126D01*
X032035Y005029D01*
X032083Y004981D01*
X032277Y004981D01*
X032325Y005029D01*
X032325Y005126D01*
X032277Y005174D01*
X032277Y004880D02*
X032083Y004880D01*
X032035Y004831D01*
X032035Y004734D01*
X032083Y004686D01*
X032277Y004686D01*
X032325Y004734D01*
X032325Y004831D01*
X032277Y004880D01*
X032325Y004585D02*
X032325Y004391D01*
X032035Y004391D01*
X032083Y004290D02*
X032035Y004242D01*
X032035Y004145D01*
X032083Y004097D01*
X032277Y004097D01*
X032325Y004145D01*
X032325Y004242D01*
X032277Y004290D01*
X032373Y003996D02*
X032373Y003802D01*
X032277Y003701D02*
X032325Y003653D01*
X032325Y003556D01*
X032277Y003507D01*
X032083Y003507D01*
X032035Y003556D01*
X032035Y003653D01*
X032083Y003701D01*
X032035Y003406D02*
X032035Y003213D01*
X032325Y003213D01*
X032325Y003406D01*
X032180Y003310D02*
X032180Y003213D01*
X032277Y003112D02*
X032083Y003112D01*
X032035Y003063D01*
X032035Y002918D01*
X032325Y002918D01*
X032325Y003063D01*
X032277Y003112D01*
X033035Y003063D02*
X033035Y002918D01*
X033325Y002918D01*
X033325Y003063D01*
X033277Y003112D01*
X033083Y003112D01*
X033035Y003063D01*
X033035Y003213D02*
X033325Y003213D01*
X033325Y003406D01*
X033277Y003507D02*
X033325Y003556D01*
X033325Y003653D01*
X033277Y003701D01*
X033373Y003802D02*
X033373Y003996D01*
X033325Y004097D02*
X033035Y004097D01*
X033035Y004242D01*
X033083Y004290D01*
X033180Y004290D01*
X033228Y004242D01*
X033228Y004097D01*
X033228Y004193D02*
X033325Y004290D01*
X033325Y004391D02*
X033325Y004585D01*
X033277Y004686D02*
X033325Y004734D01*
X033325Y004831D01*
X033277Y004880D01*
X033228Y004880D01*
X033180Y004831D01*
X033180Y004734D01*
X033132Y004686D01*
X033083Y004686D01*
X033035Y004734D01*
X033035Y004831D01*
X033083Y004880D01*
X033035Y004981D02*
X033325Y004981D01*
X033325Y005174D01*
X033180Y005077D02*
X033180Y004981D01*
X033035Y004981D02*
X033035Y005174D01*
X033035Y005275D02*
X033035Y005469D01*
X033035Y005372D02*
X033325Y005372D01*
X033035Y004585D02*
X033035Y004391D01*
X033325Y004391D01*
X033180Y004391D02*
X033180Y004488D01*
X033083Y003701D02*
X033035Y003653D01*
X033035Y003556D01*
X033083Y003507D01*
X033277Y003507D01*
X033180Y003310D02*
X033180Y003213D01*
X033035Y003213D02*
X033035Y003406D01*
X031325Y003802D02*
X031035Y003802D01*
X031035Y003996D01*
X031180Y003899D02*
X031180Y003802D01*
X030325Y003406D02*
X030325Y003213D01*
X030035Y003213D01*
X030035Y003406D01*
X030180Y003310D02*
X030180Y003213D01*
X030180Y003112D02*
X030228Y003063D01*
X030228Y002918D01*
X030228Y003015D02*
X030325Y003112D01*
X030180Y003112D02*
X030083Y003112D01*
X030035Y003063D01*
X030035Y002918D01*
X030325Y002918D01*
X029325Y003213D02*
X029035Y003213D01*
X029373Y004097D02*
X029373Y004290D01*
X029325Y004391D02*
X029325Y004537D01*
X029277Y004585D01*
X029083Y004585D01*
X029035Y004537D01*
X029035Y004391D01*
X029325Y004391D01*
X029325Y004686D02*
X029132Y004686D01*
X029035Y004783D01*
X029132Y004880D01*
X029325Y004880D01*
X029180Y004880D02*
X029180Y004686D01*
X029035Y004981D02*
X029035Y005174D01*
X029035Y005077D02*
X029325Y005077D01*
X029325Y005275D02*
X029132Y005275D01*
X029035Y005372D01*
X029132Y005469D01*
X029325Y005469D01*
X029180Y005469D02*
X029180Y005275D01*
X028325Y005469D02*
X028180Y005324D01*
X028228Y005275D02*
X028035Y005469D01*
X031035Y004981D02*
X031325Y004981D01*
D13*
X033430Y004680D02*
X033430Y002180D01*
X033180Y002180D02*
X026180Y002180D01*
X025930Y002180D02*
X025930Y004680D01*
X025680Y004680D01*
X025680Y006480D01*
X025880Y006680D01*
X026480Y006680D02*
X026680Y006480D01*
X026880Y006680D01*
X027480Y006680D02*
X027680Y006480D01*
X027880Y006680D01*
X028480Y006680D02*
X028680Y006480D01*
X028880Y006680D01*
X029480Y006680D02*
X029680Y006480D01*
X029880Y006680D01*
X030480Y006680D02*
X030680Y006480D01*
X030880Y006680D01*
X031480Y006680D02*
X031680Y006480D01*
X031880Y006680D01*
X032480Y006680D02*
X032680Y006480D01*
X032880Y006680D01*
X033480Y006680D02*
X033680Y006480D01*
X033680Y004680D01*
X033430Y004680D01*
X033156Y010530D02*
X025204Y010530D01*
X025204Y016830D01*
X033156Y016830D01*
X033156Y010530D01*
X025156Y010530D02*
X017204Y010530D01*
X017204Y016830D01*
X025156Y016830D01*
X025156Y010530D01*
X017678Y007125D02*
X016682Y007125D01*
X011500Y006428D02*
X011500Y005432D01*
X007610Y005432D02*
X007610Y006428D01*
X009156Y010530D02*
X001204Y010530D01*
X001204Y016830D01*
X009156Y016830D01*
X009156Y010530D01*
X009204Y010530D02*
X017156Y010530D01*
X017156Y016830D01*
X009204Y016830D01*
X009204Y010530D01*
X016682Y003235D02*
X017678Y003235D01*
D14*
X018938Y011739D02*
X018304Y012373D01*
X018304Y013008D01*
X018938Y013642D01*
X020207Y013642D01*
X020842Y013008D01*
X020842Y012373D01*
X020207Y011739D01*
X018938Y011739D01*
X021597Y012334D02*
X021597Y012968D01*
X022231Y013603D01*
X023501Y013603D01*
X024135Y012968D01*
X024135Y012334D01*
X023501Y011699D01*
X022231Y011699D01*
X021597Y012334D01*
X022231Y013603D02*
X021597Y014237D01*
X021597Y014872D01*
X022231Y015506D01*
X023501Y015506D01*
X024135Y014872D01*
X024135Y014237D01*
X023501Y013603D01*
X020842Y014277D02*
X020842Y014911D01*
X020207Y015546D01*
X018938Y015546D01*
X018304Y014911D01*
X018304Y014277D01*
X018938Y013642D01*
X020207Y013642D02*
X020842Y014277D01*
X016135Y014237D02*
X015501Y013603D01*
X014231Y013603D01*
X013597Y014237D01*
X013597Y014872D01*
X014231Y015506D01*
X015501Y015506D01*
X016135Y014872D01*
X016135Y014237D01*
X015501Y013603D02*
X016135Y012968D01*
X016135Y012334D01*
X015501Y011699D01*
X014231Y011699D01*
X013597Y012334D01*
X013597Y012968D01*
X014231Y013603D01*
X012842Y013008D02*
X012842Y012373D01*
X012207Y011739D01*
X010938Y011739D01*
X010304Y012373D01*
X010304Y013008D01*
X010938Y013642D01*
X012207Y013642D01*
X012842Y013008D01*
X012207Y013642D02*
X012842Y014277D01*
X012842Y014911D01*
X012207Y015546D01*
X010938Y015546D01*
X010304Y014911D01*
X010304Y014277D01*
X010938Y013642D01*
X008135Y014237D02*
X007501Y013603D01*
X006231Y013603D01*
X005597Y014237D01*
X005597Y014872D01*
X006231Y015506D01*
X007501Y015506D01*
X008135Y014872D01*
X008135Y014237D01*
X007501Y013603D02*
X008135Y012968D01*
X008135Y012334D01*
X007501Y011699D01*
X006231Y011699D01*
X005597Y012334D01*
X005597Y012968D01*
X006231Y013603D01*
X004842Y013008D02*
X004842Y012373D01*
X004207Y011739D01*
X002938Y011739D01*
X002304Y012373D01*
X002304Y013008D01*
X002938Y013642D01*
X004207Y013642D01*
X004842Y013008D01*
X004207Y013642D02*
X004842Y014277D01*
X004842Y014911D01*
X004207Y015546D01*
X002938Y015546D01*
X002304Y014911D01*
X002304Y014277D01*
X002938Y013642D01*
X026304Y013008D02*
X026304Y012373D01*
X026938Y011739D01*
X028207Y011739D01*
X028842Y012373D01*
X028842Y013008D01*
X028207Y013642D01*
X026938Y013642D01*
X026304Y014277D01*
X026304Y014911D01*
X026938Y015546D01*
X028207Y015546D01*
X028842Y014911D01*
X028842Y014277D01*
X028207Y013642D01*
X026938Y013642D02*
X026304Y013008D01*
X029597Y012968D02*
X029597Y012334D01*
X030231Y011699D01*
X031501Y011699D01*
X032135Y012334D01*
X032135Y012968D01*
X031501Y013603D01*
X030231Y013603D01*
X029597Y014237D01*
X029597Y014872D01*
X030231Y015506D01*
X031501Y015506D01*
X032135Y014872D01*
X032135Y014237D01*
X031501Y013603D01*
X030231Y013603D02*
X029597Y012968D01*
D15*
X032550Y012095D02*
X032550Y012019D01*
X032627Y011942D01*
X032781Y011942D01*
X032857Y011865D01*
X032857Y011789D01*
X032781Y011712D01*
X032627Y011712D01*
X032550Y011789D01*
X032550Y011865D01*
X032627Y011942D01*
X032781Y011942D02*
X032857Y012019D01*
X032857Y012095D01*
X032781Y012172D01*
X032627Y012172D01*
X032550Y012095D01*
X032627Y015137D02*
X032550Y015214D01*
X032627Y015137D02*
X032781Y015137D01*
X032857Y015214D01*
X032857Y015521D01*
X032781Y015597D01*
X032627Y015597D01*
X032550Y015521D01*
X032550Y015444D01*
X032627Y015367D01*
X032857Y015367D01*
X026113Y015369D02*
X026036Y015446D01*
X025806Y015446D01*
X025806Y015292D01*
X025883Y015216D01*
X026036Y015216D01*
X026113Y015292D01*
X026113Y015369D01*
X025960Y015599D02*
X025806Y015446D01*
X025960Y015599D02*
X026113Y015676D01*
X025499Y015676D02*
X025346Y015523D01*
X025499Y015676D02*
X025499Y015216D01*
X025346Y015216D02*
X025653Y015216D01*
X024857Y015214D02*
X024857Y015521D01*
X024781Y015597D01*
X024627Y015597D01*
X024550Y015521D01*
X024550Y015444D01*
X024627Y015367D01*
X024857Y015367D01*
X024857Y015214D02*
X024781Y015137D01*
X024627Y015137D01*
X024550Y015214D01*
X025657Y012251D02*
X025657Y011791D01*
X025810Y011791D02*
X025503Y011791D01*
X025503Y012097D02*
X025657Y012251D01*
X024857Y012095D02*
X024857Y012019D01*
X024781Y011942D01*
X024627Y011942D01*
X024550Y012019D01*
X024550Y012095D01*
X024627Y012172D01*
X024781Y012172D01*
X024857Y012095D01*
X024781Y011942D02*
X024857Y011865D01*
X024857Y011789D01*
X024781Y011712D01*
X024627Y011712D01*
X024550Y011789D01*
X024550Y011865D01*
X024627Y011942D01*
X022005Y009092D02*
X021928Y009092D01*
X021851Y009016D01*
X021851Y008785D01*
X022005Y008785D01*
X022081Y008862D01*
X022081Y009016D01*
X022005Y009092D01*
X021698Y008939D02*
X021851Y008785D01*
X021698Y008939D02*
X021621Y009092D01*
X021621Y008632D02*
X021621Y008325D01*
X021621Y008478D02*
X022081Y008478D01*
X020081Y008478D02*
X019621Y008478D01*
X019621Y008325D02*
X019621Y008632D01*
X019621Y008785D02*
X019851Y008785D01*
X019774Y008939D01*
X019774Y009016D01*
X019851Y009092D01*
X020005Y009092D01*
X020081Y009016D01*
X020081Y008862D01*
X020005Y008785D01*
X019621Y008785D02*
X019621Y009092D01*
X017621Y007910D02*
X017621Y007450D01*
X017774Y007450D02*
X017467Y007450D01*
X017314Y007527D02*
X017237Y007450D01*
X017084Y007450D01*
X017007Y007527D01*
X017007Y007834D01*
X017084Y007910D01*
X017237Y007910D01*
X017314Y007834D01*
X017467Y007757D02*
X017621Y007910D01*
X016853Y007910D02*
X016700Y007910D01*
X016777Y007910D02*
X016777Y007450D01*
X016853Y007450D02*
X016700Y007450D01*
X014081Y008478D02*
X013621Y008478D01*
X013621Y008325D02*
X013621Y008632D01*
X013851Y008785D02*
X013621Y009016D01*
X014081Y009016D01*
X013851Y009092D02*
X013851Y008785D01*
X012081Y008862D02*
X012005Y008785D01*
X012081Y008862D02*
X012081Y009016D01*
X012005Y009092D01*
X011928Y009092D01*
X011851Y009016D01*
X011851Y008939D01*
X011851Y009016D02*
X011774Y009092D01*
X011698Y009092D01*
X011621Y009016D01*
X011621Y008862D01*
X011698Y008785D01*
X011621Y008632D02*
X011621Y008325D01*
X011621Y008478D02*
X012081Y008478D01*
X007285Y006524D02*
X007285Y006217D01*
X006978Y006524D01*
X006901Y006524D01*
X006825Y006448D01*
X006825Y006294D01*
X006901Y006217D01*
X006901Y006064D02*
X006825Y005987D01*
X006825Y005834D01*
X006901Y005757D01*
X007208Y005757D01*
X007285Y005834D01*
X007285Y005987D01*
X007208Y006064D01*
X007285Y005603D02*
X007285Y005450D01*
X007285Y005527D02*
X006825Y005527D01*
X006825Y005603D02*
X006825Y005450D01*
X005528Y008404D02*
X005528Y008711D01*
X005528Y008558D02*
X005989Y008558D01*
X005989Y008865D02*
X005682Y009172D01*
X005605Y009172D01*
X005528Y009095D01*
X005528Y008941D01*
X005605Y008865D01*
X005989Y008865D02*
X005989Y009172D01*
X003989Y009172D02*
X003989Y008865D01*
X003989Y009018D02*
X003528Y009018D01*
X003682Y008865D01*
X003528Y008711D02*
X003528Y008404D01*
X003528Y008558D02*
X003989Y008558D01*
X001810Y011791D02*
X001503Y011791D01*
X001657Y011791D02*
X001657Y012251D01*
X001503Y012097D01*
X001499Y015216D02*
X001499Y015676D01*
X001346Y015523D01*
X001806Y015446D02*
X001806Y015292D01*
X001883Y015216D01*
X002036Y015216D01*
X002113Y015292D01*
X002113Y015369D01*
X002036Y015446D01*
X001806Y015446D01*
X001960Y015599D01*
X002113Y015676D01*
X001653Y015216D02*
X001346Y015216D01*
X008550Y015214D02*
X008627Y015137D01*
X008781Y015137D01*
X008857Y015214D01*
X008857Y015521D01*
X008781Y015597D01*
X008627Y015597D01*
X008550Y015521D01*
X008550Y015444D01*
X008627Y015367D01*
X008857Y015367D01*
X009346Y015216D02*
X009653Y015216D01*
X009499Y015216D02*
X009499Y015676D01*
X009346Y015523D01*
X009806Y015446D02*
X009806Y015292D01*
X009883Y015216D01*
X010036Y015216D01*
X010113Y015292D01*
X010113Y015369D01*
X010036Y015446D01*
X009806Y015446D01*
X009960Y015599D01*
X010113Y015676D01*
X009657Y012251D02*
X009657Y011791D01*
X009810Y011791D02*
X009503Y011791D01*
X009503Y012097D02*
X009657Y012251D01*
X008857Y012095D02*
X008857Y012019D01*
X008781Y011942D01*
X008627Y011942D01*
X008550Y012019D01*
X008550Y012095D01*
X008627Y012172D01*
X008781Y012172D01*
X008857Y012095D01*
X008781Y011942D02*
X008857Y011865D01*
X008857Y011789D01*
X008781Y011712D01*
X008627Y011712D01*
X008550Y011789D01*
X008550Y011865D01*
X008627Y011942D01*
X016550Y011865D02*
X016550Y011789D01*
X016627Y011712D01*
X016781Y011712D01*
X016857Y011789D01*
X016857Y011865D01*
X016781Y011942D01*
X016627Y011942D01*
X016550Y012019D01*
X016550Y012095D01*
X016627Y012172D01*
X016781Y012172D01*
X016857Y012095D01*
X016857Y012019D01*
X016781Y011942D01*
X016627Y011942D02*
X016550Y011865D01*
X017503Y011791D02*
X017810Y011791D01*
X017657Y011791D02*
X017657Y012251D01*
X017503Y012097D01*
X017499Y015216D02*
X017499Y015676D01*
X017346Y015523D01*
X016857Y015521D02*
X016781Y015597D01*
X016627Y015597D01*
X016550Y015521D01*
X016550Y015444D01*
X016627Y015367D01*
X016857Y015367D01*
X016857Y015214D02*
X016857Y015521D01*
X016857Y015214D02*
X016781Y015137D01*
X016627Y015137D01*
X016550Y015214D01*
X017346Y015216D02*
X017653Y015216D01*
X017806Y015292D02*
X017883Y015216D01*
X018036Y015216D01*
X018113Y015292D01*
X018113Y015369D01*
X018036Y015446D01*
X017806Y015446D01*
X017806Y015292D01*
X017806Y015446D02*
X017960Y015599D01*
X018113Y015676D01*
X027621Y009217D02*
X027698Y009217D01*
X028005Y008910D01*
X028081Y008910D01*
X027621Y008910D02*
X027621Y009217D01*
X027621Y008757D02*
X027621Y008450D01*
X027621Y008603D02*
X028081Y008603D01*
X029621Y008632D02*
X029621Y008325D01*
X029621Y008478D02*
X030081Y008478D01*
X030005Y008785D02*
X029928Y008785D01*
X029851Y008862D01*
X029851Y009016D01*
X029928Y009092D01*
X030005Y009092D01*
X030081Y009016D01*
X030081Y008862D01*
X030005Y008785D01*
X029851Y008862D02*
X029774Y008785D01*
X029698Y008785D01*
X029621Y008862D01*
X029621Y009016D01*
X029698Y009092D01*
X029774Y009092D01*
X029851Y009016D01*
X032970Y007334D02*
X032970Y007257D01*
X033047Y007180D01*
X033200Y007180D01*
X033277Y007103D01*
X033277Y007027D01*
X033200Y006950D01*
X033047Y006950D01*
X032970Y007027D01*
X032970Y007103D01*
X033047Y007180D01*
X033200Y007180D02*
X033277Y007257D01*
X033277Y007334D01*
X033200Y007410D01*
X033047Y007410D01*
X032970Y007334D01*
X026277Y006950D02*
X025970Y006950D01*
X026123Y006950D02*
X026123Y007410D01*
X025970Y007257D01*
X023819Y005091D02*
X023819Y004938D01*
X023743Y004861D01*
X023666Y004861D01*
X023589Y004938D01*
X023589Y005091D01*
X023666Y005168D01*
X023743Y005168D01*
X023819Y005091D01*
X023589Y005091D02*
X023513Y005168D01*
X023436Y005168D01*
X023359Y005091D01*
X023359Y004938D01*
X023436Y004861D01*
X023513Y004861D01*
X023589Y004938D01*
X023589Y004708D02*
X023436Y004708D01*
X023359Y004631D01*
X023359Y004401D01*
X023819Y004401D01*
X023666Y004401D02*
X023666Y004631D01*
X023589Y004708D01*
X023666Y004554D02*
X023819Y004708D01*
X001258Y004666D02*
X001182Y004590D01*
X000875Y004590D01*
X000798Y004666D01*
X000798Y004820D01*
X000875Y004897D01*
X000875Y005050D02*
X000798Y005127D01*
X000798Y005280D01*
X000875Y005357D01*
X000951Y005357D01*
X001028Y005280D01*
X001105Y005357D01*
X001182Y005357D01*
X001258Y005280D01*
X001258Y005127D01*
X001182Y005050D01*
X001182Y004897D02*
X001258Y004820D01*
X001258Y004666D01*
X001258Y004436D02*
X001258Y004283D01*
X001258Y004359D02*
X000798Y004359D01*
X000798Y004283D02*
X000798Y004436D01*
X001028Y005203D02*
X001028Y005280D01*
D16*
X004295Y008996D02*
X004626Y008996D01*
X004295Y008996D02*
X004295Y009275D01*
X004811Y009476D02*
X004811Y009634D01*
X004622Y010114D02*
X004295Y010114D01*
X004295Y009838D01*
X002659Y010100D02*
X001951Y010100D01*
X001951Y009510D02*
X002659Y009510D01*
X006295Y009275D02*
X006295Y008996D01*
X006626Y008996D01*
X006811Y009476D02*
X006811Y009634D01*
X006295Y009838D02*
X006295Y010114D01*
X006622Y010114D01*
X010201Y010100D02*
X010909Y010100D01*
X010909Y009510D02*
X010201Y009510D01*
X012295Y009275D02*
X012295Y008996D01*
X012626Y008996D01*
X012811Y009476D02*
X012811Y009634D01*
X012622Y010114D02*
X012295Y010114D01*
X012295Y009838D01*
X014295Y009838D02*
X014295Y010114D01*
X014622Y010114D01*
X014811Y009634D02*
X014811Y009476D01*
X014295Y009275D02*
X014295Y008996D01*
X014626Y008996D01*
X017701Y009510D02*
X018409Y009510D01*
X018409Y010100D02*
X017701Y010100D01*
X020295Y010114D02*
X020295Y009838D01*
X020295Y010114D02*
X020622Y010114D01*
X020811Y009634D02*
X020811Y009476D01*
X020295Y009275D02*
X020295Y008996D01*
X020626Y008996D01*
X022295Y008996D02*
X022626Y008996D01*
X022295Y008996D02*
X022295Y009275D01*
X022811Y009476D02*
X022811Y009634D01*
X022622Y010114D02*
X022295Y010114D01*
X022295Y009838D01*
X024430Y007215D02*
X024430Y006960D01*
X024883Y006960D01*
X024883Y004400D01*
X024430Y004400D01*
X024430Y004145D01*
X024430Y004400D02*
X023977Y004400D01*
X023977Y006960D01*
X024430Y006960D01*
X028295Y008996D02*
X028626Y008996D01*
X028295Y008996D02*
X028295Y009275D01*
X028811Y009476D02*
X028811Y009634D01*
X028295Y009838D02*
X028295Y010114D01*
X028622Y010114D01*
X030295Y010114D02*
X030295Y009838D01*
X030295Y010114D02*
X030622Y010114D01*
X030811Y009634D02*
X030811Y009476D01*
X030295Y009275D02*
X030295Y008996D01*
X030626Y008996D01*
X031201Y017260D02*
X031909Y017260D01*
X031909Y017850D02*
X031201Y017850D01*
X019409Y017850D02*
X018701Y017850D01*
X018701Y017260D02*
X019409Y017260D01*
X013409Y017260D02*
X012701Y017260D01*
X012701Y017850D02*
X013409Y017850D01*
X004034Y017725D02*
X003326Y017725D01*
X003326Y017135D02*
X004034Y017135D01*
D17*
X016930Y006930D03*
X007805Y005680D03*
D18*
X005914Y004243D02*
X001446Y004243D01*
X001446Y007117D01*
X005914Y007117D01*
X005914Y004243D01*
D19*
X001708Y004491D03*
D20*
X001463Y004771D02*
X005885Y004774D01*
M02*
