G75*
G70*
%OFA0B0*%
%FSLAX24Y24*%
%IPPOS*%
%LPD*%
%AMOC8*
5,1,8,0,0,1.08239X$1,22.5*
%
%ADD10C,0.0000*%
%ADD11OC8,0.0515*%
%ADD12R,0.0515X0.0515*%
%ADD13R,0.0551X0.0394*%
%ADD14R,0.0866X0.0236*%
%ADD15R,0.0217X0.0689*%
%ADD16R,0.0236X0.0866*%
%ADD17R,0.0433X0.0669*%
%ADD18C,0.0515*%
%ADD19C,0.0660*%
%ADD20C,0.0160*%
%ADD21C,0.0356*%
D10*
X000180Y000180D02*
X000180Y019865D01*
X036007Y019865D01*
X036007Y000180D01*
X000180Y000180D01*
X001050Y001680D02*
X001052Y001730D01*
X001058Y001780D01*
X001068Y001829D01*
X001082Y001877D01*
X001099Y001924D01*
X001120Y001969D01*
X001145Y002013D01*
X001173Y002054D01*
X001205Y002093D01*
X001239Y002130D01*
X001276Y002164D01*
X001316Y002194D01*
X001358Y002221D01*
X001402Y002245D01*
X001448Y002266D01*
X001495Y002282D01*
X001543Y002295D01*
X001593Y002304D01*
X001642Y002309D01*
X001693Y002310D01*
X001743Y002307D01*
X001792Y002300D01*
X001841Y002289D01*
X001889Y002274D01*
X001935Y002256D01*
X001980Y002234D01*
X002023Y002208D01*
X002064Y002179D01*
X002103Y002147D01*
X002139Y002112D01*
X002171Y002074D01*
X002201Y002034D01*
X002228Y001991D01*
X002251Y001947D01*
X002270Y001901D01*
X002286Y001853D01*
X002298Y001804D01*
X002306Y001755D01*
X002310Y001705D01*
X002310Y001655D01*
X002306Y001605D01*
X002298Y001556D01*
X002286Y001507D01*
X002270Y001459D01*
X002251Y001413D01*
X002228Y001369D01*
X002201Y001326D01*
X002171Y001286D01*
X002139Y001248D01*
X002103Y001213D01*
X002064Y001181D01*
X002023Y001152D01*
X001980Y001126D01*
X001935Y001104D01*
X001889Y001086D01*
X001841Y001071D01*
X001792Y001060D01*
X001743Y001053D01*
X001693Y001050D01*
X001642Y001051D01*
X001593Y001056D01*
X001543Y001065D01*
X001495Y001078D01*
X001448Y001094D01*
X001402Y001115D01*
X001358Y001139D01*
X001316Y001166D01*
X001276Y001196D01*
X001239Y001230D01*
X001205Y001267D01*
X001173Y001306D01*
X001145Y001347D01*
X001120Y001391D01*
X001099Y001436D01*
X001082Y001483D01*
X001068Y001531D01*
X001058Y001580D01*
X001052Y001630D01*
X001050Y001680D01*
X001050Y018680D02*
X001052Y018730D01*
X001058Y018780D01*
X001068Y018829D01*
X001082Y018877D01*
X001099Y018924D01*
X001120Y018969D01*
X001145Y019013D01*
X001173Y019054D01*
X001205Y019093D01*
X001239Y019130D01*
X001276Y019164D01*
X001316Y019194D01*
X001358Y019221D01*
X001402Y019245D01*
X001448Y019266D01*
X001495Y019282D01*
X001543Y019295D01*
X001593Y019304D01*
X001642Y019309D01*
X001693Y019310D01*
X001743Y019307D01*
X001792Y019300D01*
X001841Y019289D01*
X001889Y019274D01*
X001935Y019256D01*
X001980Y019234D01*
X002023Y019208D01*
X002064Y019179D01*
X002103Y019147D01*
X002139Y019112D01*
X002171Y019074D01*
X002201Y019034D01*
X002228Y018991D01*
X002251Y018947D01*
X002270Y018901D01*
X002286Y018853D01*
X002298Y018804D01*
X002306Y018755D01*
X002310Y018705D01*
X002310Y018655D01*
X002306Y018605D01*
X002298Y018556D01*
X002286Y018507D01*
X002270Y018459D01*
X002251Y018413D01*
X002228Y018369D01*
X002201Y018326D01*
X002171Y018286D01*
X002139Y018248D01*
X002103Y018213D01*
X002064Y018181D01*
X002023Y018152D01*
X001980Y018126D01*
X001935Y018104D01*
X001889Y018086D01*
X001841Y018071D01*
X001792Y018060D01*
X001743Y018053D01*
X001693Y018050D01*
X001642Y018051D01*
X001593Y018056D01*
X001543Y018065D01*
X001495Y018078D01*
X001448Y018094D01*
X001402Y018115D01*
X001358Y018139D01*
X001316Y018166D01*
X001276Y018196D01*
X001239Y018230D01*
X001205Y018267D01*
X001173Y018306D01*
X001145Y018347D01*
X001120Y018391D01*
X001099Y018436D01*
X001082Y018483D01*
X001068Y018531D01*
X001058Y018580D01*
X001052Y018630D01*
X001050Y018680D01*
X034050Y018680D02*
X034052Y018730D01*
X034058Y018780D01*
X034068Y018829D01*
X034082Y018877D01*
X034099Y018924D01*
X034120Y018969D01*
X034145Y019013D01*
X034173Y019054D01*
X034205Y019093D01*
X034239Y019130D01*
X034276Y019164D01*
X034316Y019194D01*
X034358Y019221D01*
X034402Y019245D01*
X034448Y019266D01*
X034495Y019282D01*
X034543Y019295D01*
X034593Y019304D01*
X034642Y019309D01*
X034693Y019310D01*
X034743Y019307D01*
X034792Y019300D01*
X034841Y019289D01*
X034889Y019274D01*
X034935Y019256D01*
X034980Y019234D01*
X035023Y019208D01*
X035064Y019179D01*
X035103Y019147D01*
X035139Y019112D01*
X035171Y019074D01*
X035201Y019034D01*
X035228Y018991D01*
X035251Y018947D01*
X035270Y018901D01*
X035286Y018853D01*
X035298Y018804D01*
X035306Y018755D01*
X035310Y018705D01*
X035310Y018655D01*
X035306Y018605D01*
X035298Y018556D01*
X035286Y018507D01*
X035270Y018459D01*
X035251Y018413D01*
X035228Y018369D01*
X035201Y018326D01*
X035171Y018286D01*
X035139Y018248D01*
X035103Y018213D01*
X035064Y018181D01*
X035023Y018152D01*
X034980Y018126D01*
X034935Y018104D01*
X034889Y018086D01*
X034841Y018071D01*
X034792Y018060D01*
X034743Y018053D01*
X034693Y018050D01*
X034642Y018051D01*
X034593Y018056D01*
X034543Y018065D01*
X034495Y018078D01*
X034448Y018094D01*
X034402Y018115D01*
X034358Y018139D01*
X034316Y018166D01*
X034276Y018196D01*
X034239Y018230D01*
X034205Y018267D01*
X034173Y018306D01*
X034145Y018347D01*
X034120Y018391D01*
X034099Y018436D01*
X034082Y018483D01*
X034068Y018531D01*
X034058Y018580D01*
X034052Y018630D01*
X034050Y018680D01*
X034050Y001680D02*
X034052Y001730D01*
X034058Y001780D01*
X034068Y001829D01*
X034082Y001877D01*
X034099Y001924D01*
X034120Y001969D01*
X034145Y002013D01*
X034173Y002054D01*
X034205Y002093D01*
X034239Y002130D01*
X034276Y002164D01*
X034316Y002194D01*
X034358Y002221D01*
X034402Y002245D01*
X034448Y002266D01*
X034495Y002282D01*
X034543Y002295D01*
X034593Y002304D01*
X034642Y002309D01*
X034693Y002310D01*
X034743Y002307D01*
X034792Y002300D01*
X034841Y002289D01*
X034889Y002274D01*
X034935Y002256D01*
X034980Y002234D01*
X035023Y002208D01*
X035064Y002179D01*
X035103Y002147D01*
X035139Y002112D01*
X035171Y002074D01*
X035201Y002034D01*
X035228Y001991D01*
X035251Y001947D01*
X035270Y001901D01*
X035286Y001853D01*
X035298Y001804D01*
X035306Y001755D01*
X035310Y001705D01*
X035310Y001655D01*
X035306Y001605D01*
X035298Y001556D01*
X035286Y001507D01*
X035270Y001459D01*
X035251Y001413D01*
X035228Y001369D01*
X035201Y001326D01*
X035171Y001286D01*
X035139Y001248D01*
X035103Y001213D01*
X035064Y001181D01*
X035023Y001152D01*
X034980Y001126D01*
X034935Y001104D01*
X034889Y001086D01*
X034841Y001071D01*
X034792Y001060D01*
X034743Y001053D01*
X034693Y001050D01*
X034642Y001051D01*
X034593Y001056D01*
X034543Y001065D01*
X034495Y001078D01*
X034448Y001094D01*
X034402Y001115D01*
X034358Y001139D01*
X034316Y001166D01*
X034276Y001196D01*
X034239Y001230D01*
X034205Y001267D01*
X034173Y001306D01*
X034145Y001347D01*
X034120Y001391D01*
X034099Y001436D01*
X034082Y001483D01*
X034068Y001531D01*
X034058Y001580D01*
X034052Y001630D01*
X034050Y001680D01*
D11*
X032680Y011180D03*
X031680Y011180D03*
X030680Y011180D03*
X029680Y011180D03*
X028680Y011180D03*
X027680Y011180D03*
X026680Y011180D03*
X024680Y011180D03*
X023680Y011180D03*
X022680Y011180D03*
X021680Y011180D03*
X020680Y011180D03*
X019680Y011180D03*
X018680Y011180D03*
X016680Y011180D03*
X015680Y011180D03*
X014680Y011180D03*
X013680Y011180D03*
X012680Y011180D03*
X011680Y011180D03*
X010680Y011180D03*
X008680Y011180D03*
X007680Y011180D03*
X006680Y011180D03*
X005680Y011180D03*
X004680Y011180D03*
X003680Y011180D03*
X002680Y011180D03*
X002680Y016180D03*
X001680Y016180D03*
X003680Y016180D03*
X004680Y016180D03*
X005680Y016180D03*
X006680Y016180D03*
X007680Y016180D03*
X008680Y016180D03*
X009680Y016180D03*
X010680Y016180D03*
X011680Y016180D03*
X012680Y016180D03*
X013680Y016180D03*
X014680Y016180D03*
X015680Y016180D03*
X016680Y016180D03*
X017680Y016180D03*
X018680Y016180D03*
X019680Y016180D03*
X020680Y016180D03*
X021680Y016180D03*
X022680Y016180D03*
X023680Y016180D03*
X024680Y016180D03*
X025680Y016180D03*
X026680Y016180D03*
X027680Y016180D03*
X028680Y016180D03*
X029680Y016180D03*
X030680Y016180D03*
X031680Y016180D03*
X032680Y016180D03*
D12*
X025680Y011180D03*
X017680Y011180D03*
X009680Y011180D03*
X001680Y011180D03*
D13*
X004122Y009555D03*
X004988Y009181D03*
X006122Y009555D03*
X006988Y009181D03*
X006988Y009929D03*
X004988Y009929D03*
X012122Y009555D03*
X012988Y009181D03*
X012988Y009929D03*
X014122Y009555D03*
X014988Y009181D03*
X014988Y009929D03*
X020122Y009555D03*
X020988Y009181D03*
X020988Y009929D03*
X022122Y009555D03*
X022988Y009181D03*
X022988Y009929D03*
X028122Y009555D03*
X028988Y009181D03*
X030122Y009555D03*
X030988Y009181D03*
X030988Y009929D03*
X028988Y009929D03*
D14*
X018204Y006930D03*
X018204Y006430D03*
X018204Y005930D03*
X018204Y005430D03*
X018204Y004930D03*
X018204Y004430D03*
X018204Y003930D03*
X018204Y003430D03*
X016156Y003430D03*
X016156Y003930D03*
X016156Y004430D03*
X016156Y004930D03*
X016156Y005430D03*
X016156Y005930D03*
X016156Y006430D03*
X016156Y006930D03*
D15*
X005680Y007570D03*
X005180Y007570D03*
X004680Y007570D03*
X004180Y007570D03*
X003680Y007570D03*
X003180Y007570D03*
X002680Y007570D03*
X002180Y007570D03*
X001680Y007570D03*
X001680Y003790D03*
X002180Y003790D03*
X002680Y003790D03*
X003180Y003790D03*
X003680Y003790D03*
X004180Y003790D03*
X004680Y003790D03*
X005180Y003790D03*
X005680Y003790D03*
D16*
X007805Y004906D03*
X008305Y004906D03*
X008805Y004906D03*
X009305Y004906D03*
X009805Y004906D03*
X010305Y004906D03*
X010805Y004906D03*
X011305Y004906D03*
X011305Y006954D03*
X010805Y006954D03*
X010305Y006954D03*
X009805Y006954D03*
X009305Y006954D03*
X008805Y006954D03*
X008305Y006954D03*
X007805Y006954D03*
D17*
X009905Y009805D03*
X011205Y009805D03*
X017405Y009805D03*
X018705Y009805D03*
X018405Y017555D03*
X019705Y017555D03*
X013705Y017555D03*
X012405Y017555D03*
X004330Y017430D03*
X003030Y017430D03*
X002955Y009805D03*
X001655Y009805D03*
X030905Y017555D03*
X032205Y017555D03*
D18*
X032180Y006437D02*
X032180Y005923D01*
X031180Y005923D02*
X031180Y006437D01*
X030180Y006437D02*
X030180Y005923D01*
X029180Y005923D02*
X029180Y006437D01*
X028180Y006437D02*
X028180Y005923D01*
X027180Y005923D02*
X027180Y006437D01*
X026180Y006437D02*
X026180Y005923D01*
X033180Y005923D02*
X033180Y006437D01*
D19*
X024430Y007680D03*
X024430Y003680D03*
D20*
X024940Y003680D01*
X024940Y003720D01*
X024927Y003799D01*
X024903Y003876D01*
X024866Y003947D01*
X024819Y004012D01*
X024762Y004069D01*
X024697Y004116D01*
X024626Y004153D01*
X024549Y004177D01*
X024497Y004186D01*
X025271Y004960D01*
X028771Y004960D01*
X029271Y005460D01*
X029391Y005580D01*
X029405Y005586D01*
X029517Y005697D01*
X029577Y005843D01*
X029577Y006517D01*
X029517Y006663D01*
X029405Y006774D01*
X029259Y006835D01*
X029101Y006835D01*
X028955Y006774D01*
X028843Y006663D01*
X028783Y006517D01*
X028783Y005843D01*
X028843Y005697D01*
X028865Y005676D01*
X028589Y005400D01*
X025089Y005400D01*
X024960Y005271D01*
X022089Y002400D01*
X013271Y002400D01*
X013150Y002521D01*
X013150Y002825D01*
X013200Y002875D01*
X013248Y002992D01*
X013248Y003118D01*
X013200Y003235D01*
X013110Y003325D01*
X012993Y003373D01*
X012867Y003373D01*
X012750Y003325D01*
X012660Y003235D01*
X012612Y003118D01*
X012612Y002992D01*
X012660Y002875D01*
X012710Y002825D01*
X012710Y002339D01*
X012960Y002089D01*
X013089Y001960D01*
X022271Y001960D01*
X023924Y003613D01*
X023933Y003561D01*
X023957Y003484D01*
X023994Y003413D01*
X024041Y003348D01*
X024098Y003291D01*
X024163Y003244D01*
X024234Y003207D01*
X024311Y003183D01*
X024390Y003170D01*
X024430Y003170D01*
X024470Y003170D01*
X024549Y003183D01*
X024626Y003207D01*
X024697Y003244D01*
X024762Y003291D01*
X024819Y003348D01*
X024866Y003413D01*
X024903Y003484D01*
X024927Y003561D01*
X024940Y003640D01*
X024940Y003680D01*
X024430Y003680D01*
X024430Y003680D01*
X024430Y003170D01*
X024430Y003680D01*
X024430Y003680D01*
X024430Y003667D02*
X024430Y003667D01*
X024430Y003509D02*
X024430Y003509D01*
X024430Y003350D02*
X024430Y003350D01*
X024430Y003192D02*
X024430Y003192D01*
X024577Y003192D02*
X035827Y003192D01*
X035827Y003350D02*
X024821Y003350D01*
X024911Y003509D02*
X035827Y003509D01*
X035827Y003667D02*
X024940Y003667D01*
X024919Y003826D02*
X035827Y003826D01*
X035827Y003984D02*
X024840Y003984D01*
X024646Y004143D02*
X035827Y004143D01*
X035827Y004301D02*
X024612Y004301D01*
X024771Y004460D02*
X035827Y004460D01*
X035827Y004618D02*
X024929Y004618D01*
X025088Y004777D02*
X035827Y004777D01*
X035827Y004935D02*
X025246Y004935D01*
X025180Y005180D02*
X028680Y005180D01*
X029180Y005680D01*
X029180Y006180D01*
X029577Y006203D02*
X029783Y006203D01*
X029783Y006045D02*
X029577Y006045D01*
X029577Y005886D02*
X029783Y005886D01*
X029783Y005843D02*
X029843Y005697D01*
X029955Y005586D01*
X030101Y005525D01*
X030259Y005525D01*
X030405Y005586D01*
X030517Y005697D01*
X030577Y005843D01*
X030577Y006517D01*
X030517Y006663D01*
X030405Y006774D01*
X030259Y006835D01*
X030101Y006835D01*
X029955Y006774D01*
X029843Y006663D01*
X029783Y006517D01*
X029783Y005843D01*
X029831Y005728D02*
X029529Y005728D01*
X029380Y005569D02*
X029995Y005569D01*
X030365Y005569D02*
X030995Y005569D01*
X030955Y005586D02*
X031101Y005525D01*
X031259Y005525D01*
X031405Y005586D01*
X031517Y005697D01*
X031577Y005843D01*
X031577Y006517D01*
X031517Y006663D01*
X031405Y006774D01*
X031259Y006835D01*
X031101Y006835D01*
X030955Y006774D01*
X030843Y006663D01*
X030783Y006517D01*
X030783Y005843D01*
X030843Y005697D01*
X030955Y005586D01*
X030831Y005728D02*
X030529Y005728D01*
X030577Y005886D02*
X030783Y005886D01*
X030783Y006045D02*
X030577Y006045D01*
X030577Y006203D02*
X030783Y006203D01*
X030783Y006362D02*
X030577Y006362D01*
X030576Y006520D02*
X030784Y006520D01*
X030859Y006679D02*
X030501Y006679D01*
X029859Y006679D02*
X029501Y006679D01*
X029576Y006520D02*
X029784Y006520D01*
X029783Y006362D02*
X029577Y006362D01*
X028859Y006679D02*
X028501Y006679D01*
X028517Y006663D02*
X028405Y006774D01*
X028259Y006835D01*
X028101Y006835D01*
X027955Y006774D01*
X027843Y006663D01*
X027783Y006517D01*
X027783Y005843D01*
X027843Y005697D01*
X027955Y005586D01*
X028101Y005525D01*
X028259Y005525D01*
X028405Y005586D01*
X028517Y005697D01*
X028577Y005843D01*
X028577Y006517D01*
X028517Y006663D01*
X028576Y006520D02*
X028784Y006520D01*
X028783Y006362D02*
X028577Y006362D01*
X028577Y006203D02*
X028783Y006203D01*
X028783Y006045D02*
X028577Y006045D01*
X028577Y005886D02*
X028783Y005886D01*
X028831Y005728D02*
X028529Y005728D01*
X028365Y005569D02*
X028758Y005569D01*
X028599Y005411D02*
X024722Y005411D01*
X024650Y005339D02*
X025400Y006089D01*
X025400Y007089D01*
X025771Y007460D01*
X029578Y007460D01*
X029707Y007589D01*
X030962Y008844D01*
X031033Y008844D01*
X030960Y008771D01*
X029589Y007400D01*
X027089Y007400D01*
X026960Y007271D01*
X026434Y006745D01*
X026405Y006774D01*
X026259Y006835D01*
X026101Y006835D01*
X025955Y006774D01*
X025843Y006663D01*
X025783Y006517D01*
X025783Y005843D01*
X025843Y005697D01*
X025955Y005586D01*
X026101Y005525D01*
X026259Y005525D01*
X026405Y005586D01*
X026517Y005697D01*
X026577Y005843D01*
X026577Y006266D01*
X026743Y006431D01*
X026743Y006180D01*
X026743Y005888D01*
X026753Y005820D01*
X026775Y005755D01*
X026806Y005693D01*
X026846Y005638D01*
X026895Y005589D01*
X026951Y005548D01*
X027012Y005517D01*
X027078Y005496D01*
X027146Y005485D01*
X027180Y005485D01*
X027180Y006180D01*
X027617Y006180D01*
X027617Y006472D01*
X027607Y006540D01*
X027585Y006605D01*
X027554Y006667D01*
X027514Y006722D01*
X027465Y006771D01*
X027409Y006812D01*
X027348Y006843D01*
X027282Y006864D01*
X027214Y006875D01*
X027186Y006875D01*
X027271Y006960D01*
X029771Y006960D01*
X031271Y008460D01*
X031771Y008460D01*
X031900Y008589D01*
X031900Y009646D01*
X031771Y009775D01*
X031404Y009775D01*
X031404Y010184D01*
X031322Y010266D01*
X030962Y010266D01*
X030077Y011151D01*
X030077Y011345D01*
X029845Y011577D01*
X029515Y011577D01*
X029283Y011345D01*
X029283Y011015D01*
X029515Y010783D01*
X029823Y010783D01*
X030572Y010033D01*
X030572Y009775D01*
X030538Y009775D01*
X030538Y009810D01*
X030456Y009892D01*
X029788Y009892D01*
X029706Y009810D01*
X029706Y009775D01*
X029404Y009775D01*
X029404Y010184D01*
X029322Y010266D01*
X028962Y010266D01*
X028900Y010328D01*
X028900Y010838D01*
X029077Y011015D01*
X029077Y011345D01*
X028845Y011577D01*
X028515Y011577D01*
X028283Y011345D01*
X028283Y011015D01*
X028460Y010838D01*
X028460Y010146D01*
X028572Y010033D01*
X028572Y009775D01*
X028538Y009775D01*
X028538Y009810D01*
X028456Y009892D01*
X027788Y009892D01*
X027706Y009810D01*
X027706Y009775D01*
X023404Y009775D01*
X023404Y010184D01*
X023322Y010266D01*
X022905Y010266D01*
X022077Y011094D01*
X022077Y011345D01*
X021845Y011577D01*
X021515Y011577D01*
X021283Y011345D01*
X021283Y011015D01*
X021515Y010783D01*
X021766Y010783D01*
X022572Y009976D01*
X022572Y009775D01*
X022538Y009775D01*
X022538Y009810D01*
X022456Y009892D01*
X021788Y009892D01*
X021706Y009810D01*
X021706Y009775D01*
X021404Y009775D01*
X021404Y010184D01*
X021322Y010266D01*
X021208Y010266D01*
X021208Y010963D01*
X021077Y011094D01*
X021077Y011345D01*
X020845Y011577D01*
X020515Y011577D01*
X020400Y011462D01*
X020400Y011771D01*
X020271Y011900D01*
X019771Y012400D01*
X019271Y012400D01*
X018271Y013400D01*
X016089Y013400D01*
X015960Y013271D01*
X015089Y012400D01*
X011271Y012400D01*
X010400Y013271D01*
X010400Y013271D01*
X010271Y013400D01*
X008089Y013400D01*
X007960Y013271D01*
X007089Y012400D01*
X004589Y012400D01*
X004460Y012271D01*
X003960Y011771D01*
X003960Y011462D01*
X003845Y011577D01*
X003515Y011577D01*
X003400Y011462D01*
X003400Y012589D01*
X004771Y013960D01*
X016271Y013960D01*
X016400Y014089D01*
X016400Y014525D01*
X016410Y014500D01*
X016500Y014410D01*
X016617Y014362D01*
X016743Y014362D01*
X016860Y014410D01*
X016950Y014500D01*
X016998Y014617D01*
X016998Y014743D01*
X016950Y014860D01*
X016900Y014910D01*
X016900Y015838D01*
X017077Y016015D01*
X017077Y016345D01*
X016845Y016577D01*
X016515Y016577D01*
X016400Y016462D01*
X016400Y017089D01*
X016646Y017335D01*
X018049Y017335D01*
X018049Y017162D01*
X018131Y017080D01*
X018680Y017080D01*
X018762Y017162D01*
X018762Y017948D01*
X018680Y018030D01*
X018131Y018030D01*
X018049Y017948D01*
X018049Y017775D01*
X016464Y017775D01*
X016089Y017400D01*
X015960Y017271D01*
X015960Y016462D01*
X015845Y016577D01*
X015515Y016577D01*
X015283Y016345D01*
X015283Y016015D01*
X015515Y015783D01*
X015845Y015783D01*
X015960Y015898D01*
X015960Y014400D01*
X015335Y014400D01*
X015360Y014410D01*
X015450Y014500D01*
X015498Y014617D01*
X015498Y014743D01*
X015450Y014860D01*
X015360Y014950D01*
X015243Y014998D01*
X015117Y014998D01*
X015000Y014950D01*
X014950Y014900D01*
X012835Y014900D01*
X012860Y014910D01*
X012950Y015000D01*
X012998Y015117D01*
X012998Y015243D01*
X012950Y015360D01*
X012900Y015410D01*
X012900Y015838D01*
X013077Y016015D01*
X013077Y016345D01*
X012845Y016577D01*
X012515Y016577D01*
X012283Y016345D01*
X012283Y016015D01*
X012460Y015838D01*
X012460Y015410D01*
X012410Y015360D01*
X012362Y015243D01*
X012362Y015117D01*
X012410Y015000D01*
X012500Y014910D01*
X012525Y014900D01*
X010271Y014900D01*
X009900Y015271D01*
X009900Y015838D01*
X010077Y016015D01*
X010077Y016345D01*
X009845Y016577D01*
X009515Y016577D01*
X009283Y016345D01*
X009283Y016015D01*
X009460Y015838D01*
X009460Y015089D01*
X009960Y014589D01*
X010089Y014460D01*
X014950Y014460D01*
X015000Y014410D01*
X015025Y014400D01*
X008835Y014400D01*
X008860Y014410D01*
X008950Y014500D01*
X008998Y014617D01*
X008998Y014743D01*
X008950Y014860D01*
X008900Y014910D01*
X008900Y015838D01*
X009077Y016015D01*
X009077Y016345D01*
X008845Y016577D01*
X008515Y016577D01*
X008283Y016345D01*
X008283Y016015D01*
X008460Y015838D01*
X008460Y014910D01*
X008410Y014860D01*
X008362Y014743D01*
X008362Y014617D01*
X008410Y014500D01*
X008500Y014410D01*
X008525Y014400D01*
X004589Y014400D01*
X003089Y012900D01*
X002960Y012771D01*
X002960Y011462D01*
X002845Y011577D01*
X002515Y011577D01*
X002458Y011520D01*
X002498Y011617D01*
X002498Y011743D01*
X002450Y011860D01*
X002400Y011910D01*
X002400Y012589D01*
X004271Y014460D01*
X004400Y014589D01*
X004400Y015898D01*
X004515Y015783D01*
X004845Y015783D01*
X005077Y016015D01*
X005077Y016345D01*
X004845Y016577D01*
X004515Y016577D01*
X004400Y016462D01*
X004400Y016585D01*
X012497Y016585D01*
X012625Y016714D01*
X012625Y017080D01*
X012680Y017080D01*
X012762Y017162D01*
X012762Y017948D01*
X012680Y018030D01*
X012131Y018030D01*
X012049Y017948D01*
X012049Y017162D01*
X012131Y017080D01*
X012185Y017080D01*
X012185Y017025D01*
X004674Y017025D01*
X004686Y017037D01*
X004686Y017823D01*
X004604Y017905D01*
X004055Y017905D01*
X003973Y017823D01*
X003973Y017650D01*
X003839Y017650D01*
X003387Y017198D01*
X003387Y017823D01*
X003305Y017905D01*
X002756Y017905D01*
X002674Y017823D01*
X002674Y017650D01*
X001189Y017650D01*
X000710Y017171D01*
X000710Y008089D01*
X001320Y007479D01*
X001432Y007367D01*
X001432Y007167D01*
X001514Y007085D01*
X001846Y007085D01*
X001928Y007167D01*
X001928Y007972D01*
X001846Y008054D01*
X001514Y008054D01*
X001440Y007981D01*
X001150Y008271D01*
X001150Y016988D01*
X001372Y017210D01*
X002674Y017210D01*
X002674Y017037D01*
X002756Y016955D01*
X003144Y016955D01*
X002766Y016577D01*
X002515Y016577D01*
X002283Y016345D01*
X002283Y016015D01*
X002515Y015783D01*
X002845Y015783D01*
X003077Y016015D01*
X003077Y016266D01*
X003973Y017162D01*
X003973Y017037D01*
X004037Y016973D01*
X003960Y016896D01*
X003960Y016462D01*
X003845Y016577D01*
X003515Y016577D01*
X003283Y016345D01*
X003283Y016015D01*
X003515Y015783D01*
X003845Y015783D01*
X003960Y015898D01*
X003960Y014771D01*
X001960Y012771D01*
X001960Y011910D01*
X001910Y011860D01*
X001862Y011743D01*
X001862Y011617D01*
X001878Y011577D01*
X001365Y011577D01*
X001283Y011495D01*
X001283Y010865D01*
X001365Y010783D01*
X001460Y010783D01*
X001460Y010280D01*
X001381Y010280D01*
X001299Y010198D01*
X001299Y009412D01*
X001381Y009330D01*
X001930Y009330D01*
X002012Y009412D01*
X002012Y010198D01*
X001930Y010280D01*
X001900Y010280D01*
X001900Y010783D01*
X001995Y010783D01*
X002077Y010865D01*
X002077Y011378D01*
X002117Y011362D01*
X002243Y011362D01*
X002340Y011402D01*
X002283Y011345D01*
X002283Y011015D01*
X002515Y010783D01*
X002845Y010783D01*
X002902Y010840D01*
X002862Y010743D01*
X002862Y010617D01*
X002910Y010500D01*
X003000Y010410D01*
X003117Y010362D01*
X003243Y010362D01*
X003360Y010410D01*
X003450Y010500D01*
X003498Y010617D01*
X003498Y010743D01*
X003458Y010840D01*
X003515Y010783D01*
X003845Y010783D01*
X003960Y010898D01*
X003960Y010521D01*
X003710Y010271D01*
X003710Y009814D01*
X003706Y009810D01*
X003706Y009300D01*
X003788Y009218D01*
X003960Y009218D01*
X003960Y008835D01*
X003950Y008860D01*
X003860Y008950D01*
X003743Y008998D01*
X003617Y008998D01*
X003500Y008950D01*
X003410Y008860D01*
X003362Y008743D01*
X003362Y008617D01*
X003410Y008500D01*
X003500Y008410D01*
X003617Y008362D01*
X003687Y008362D01*
X003960Y008089D01*
X003960Y008001D01*
X003932Y007972D01*
X003932Y007239D01*
X003928Y007243D01*
X003928Y007972D01*
X003846Y008054D01*
X003514Y008054D01*
X003432Y007972D01*
X003432Y007167D01*
X003460Y007139D01*
X003460Y007089D01*
X003862Y006687D01*
X003862Y006617D01*
X003910Y006500D01*
X004000Y006410D01*
X004117Y006362D01*
X004243Y006362D01*
X004360Y006410D01*
X004450Y006500D01*
X004498Y006617D01*
X004498Y006743D01*
X004450Y006860D01*
X004360Y006950D01*
X004243Y006998D01*
X004173Y006998D01*
X004086Y007085D01*
X004346Y007085D01*
X004428Y007167D01*
X004428Y007972D01*
X004400Y008001D01*
X004400Y008149D01*
X004504Y008045D01*
X004432Y007972D01*
X004432Y007167D01*
X004460Y007139D01*
X004460Y007089D01*
X004862Y006687D01*
X004862Y006617D01*
X004910Y006500D01*
X005000Y006410D01*
X005117Y006362D01*
X005243Y006362D01*
X005360Y006410D01*
X005450Y006500D01*
X005498Y006617D01*
X005498Y006743D01*
X005450Y006860D01*
X005360Y006950D01*
X005243Y006998D01*
X005173Y006998D01*
X005086Y007085D01*
X005346Y007085D01*
X005428Y007167D01*
X005428Y007960D01*
X005432Y007960D01*
X005432Y007167D01*
X005514Y007085D01*
X005846Y007085D01*
X005928Y007167D01*
X005928Y007960D01*
X006089Y007960D01*
X007315Y006734D01*
X007547Y006734D01*
X007547Y006463D01*
X007629Y006381D01*
X007981Y006381D01*
X008055Y006454D01*
X008129Y006381D01*
X008481Y006381D01*
X008555Y006454D01*
X008629Y006381D01*
X008960Y006381D01*
X008960Y005900D01*
X008910Y005900D01*
X008860Y005950D01*
X008743Y005998D01*
X008621Y005998D01*
X008575Y006110D01*
X008485Y006200D01*
X008368Y006248D01*
X008242Y006248D01*
X008125Y006200D01*
X008035Y006110D01*
X007987Y005993D01*
X007987Y005867D01*
X008035Y005750D01*
X008085Y005700D01*
X008085Y005436D01*
X008055Y005406D01*
X007981Y005479D01*
X007629Y005479D01*
X007547Y005397D01*
X007547Y005126D01*
X006045Y005126D01*
X005498Y005673D01*
X005498Y005743D01*
X005450Y005860D01*
X005360Y005950D01*
X005243Y005998D01*
X005117Y005998D01*
X005000Y005950D01*
X004910Y005860D01*
X004862Y005743D01*
X004862Y005617D01*
X004910Y005500D01*
X005000Y005410D01*
X005117Y005362D01*
X005187Y005362D01*
X005734Y004815D01*
X005862Y004686D01*
X007547Y004686D01*
X007547Y004415D01*
X007629Y004333D01*
X007981Y004333D01*
X008055Y004407D01*
X008129Y004333D01*
X008481Y004333D01*
X008555Y004407D01*
X008585Y004377D01*
X008585Y003410D01*
X008535Y003360D01*
X008487Y003243D01*
X008487Y003117D01*
X008535Y003000D01*
X008625Y002910D01*
X008742Y002862D01*
X008868Y002862D01*
X008985Y002910D01*
X009075Y003000D01*
X009123Y003117D01*
X009123Y003243D01*
X009075Y003360D01*
X009025Y003410D01*
X009025Y003525D01*
X009035Y003500D01*
X009125Y003410D01*
X009242Y003362D01*
X009368Y003362D01*
X009485Y003410D01*
X009555Y003480D01*
X009625Y003410D01*
X009742Y003362D01*
X009801Y003362D01*
X009089Y002650D01*
X005396Y002650D01*
X004900Y003146D01*
X004900Y003359D01*
X004928Y003388D01*
X004928Y004193D01*
X004846Y004275D01*
X004514Y004275D01*
X004432Y004193D01*
X004432Y003388D01*
X004460Y003359D01*
X004460Y002964D01*
X005085Y002339D01*
X005214Y002210D01*
X009271Y002210D01*
X010396Y003335D01*
X010525Y003464D01*
X010525Y004377D01*
X010555Y004407D01*
X010629Y004333D01*
X010981Y004333D01*
X011031Y004383D01*
X011043Y004363D01*
X011076Y004329D01*
X011117Y004306D01*
X011163Y004293D01*
X011305Y004293D01*
X011305Y004906D01*
X011305Y004293D01*
X011447Y004293D01*
X011493Y004306D01*
X011534Y004329D01*
X011567Y004363D01*
X011591Y004404D01*
X011603Y004450D01*
X011603Y004906D01*
X011305Y004906D01*
X011305Y004906D01*
X011305Y004906D01*
X011305Y006055D01*
X010805Y006555D01*
X010805Y006954D01*
X010805Y007567D01*
X010663Y007567D01*
X010617Y007554D01*
X010576Y007531D01*
X010543Y007497D01*
X010531Y007477D01*
X010525Y007483D01*
X010525Y007710D01*
X011464Y007710D01*
X011960Y007214D01*
X011960Y004410D01*
X011910Y004360D01*
X011862Y004243D01*
X011862Y004117D01*
X011910Y004000D01*
X012000Y003910D01*
X012117Y003862D01*
X012243Y003862D01*
X012360Y003910D01*
X012450Y004000D01*
X012498Y004117D01*
X012498Y004243D01*
X012450Y004360D01*
X012400Y004410D01*
X012400Y007396D01*
X012271Y007525D01*
X011646Y008150D01*
X010214Y008150D01*
X010085Y008021D01*
X010085Y007483D01*
X010055Y007453D01*
X009981Y007527D01*
X009629Y007527D01*
X009555Y007453D01*
X009481Y007527D01*
X009129Y007527D01*
X009055Y007453D01*
X009025Y007483D01*
X009025Y007575D01*
X009075Y007625D01*
X009123Y007742D01*
X009123Y007868D01*
X009075Y007985D01*
X008985Y008075D01*
X008868Y008123D01*
X008742Y008123D01*
X008625Y008075D01*
X008555Y008005D01*
X008485Y008075D01*
X008368Y008123D01*
X008242Y008123D01*
X008125Y008075D01*
X008035Y007985D01*
X007987Y007868D01*
X007987Y007742D01*
X008035Y007625D01*
X008085Y007575D01*
X008085Y007483D01*
X008055Y007453D01*
X007981Y007527D01*
X007629Y007527D01*
X007547Y007445D01*
X007547Y007174D01*
X007498Y007174D01*
X007211Y007460D01*
X007271Y007460D01*
X008271Y008460D01*
X011589Y008460D01*
X011862Y008187D01*
X011862Y008117D01*
X011910Y008000D01*
X012000Y007910D01*
X012117Y007862D01*
X012243Y007862D01*
X012360Y007910D01*
X012450Y008000D01*
X012498Y008117D01*
X012498Y008243D01*
X012450Y008360D01*
X012360Y008450D01*
X012243Y008498D01*
X012173Y008498D01*
X011900Y008771D01*
X011771Y008900D01*
X008089Y008900D01*
X007960Y008771D01*
X007498Y008309D01*
X007498Y008368D01*
X007450Y008485D01*
X007360Y008575D01*
X007243Y008623D01*
X007208Y008623D01*
X007208Y008844D01*
X007322Y008844D01*
X007404Y008926D01*
X007404Y009436D01*
X007322Y009518D01*
X006654Y009518D01*
X006572Y009436D01*
X006572Y008926D01*
X006654Y008844D01*
X006768Y008844D01*
X006768Y008406D01*
X006862Y008312D01*
X006862Y008309D01*
X005953Y009218D01*
X006456Y009218D01*
X006538Y009300D01*
X006538Y009810D01*
X006456Y009892D01*
X005788Y009892D01*
X005706Y009810D01*
X005706Y009775D01*
X005404Y009775D01*
X005404Y010184D01*
X005322Y010266D01*
X005208Y010266D01*
X005208Y010963D01*
X005079Y011092D01*
X005077Y011094D01*
X005077Y011345D01*
X004845Y011577D01*
X004515Y011577D01*
X004400Y011462D01*
X004400Y011589D01*
X004771Y011960D01*
X007271Y011960D01*
X007460Y012149D01*
X007460Y011522D01*
X007283Y011345D01*
X007283Y011015D01*
X007515Y010783D01*
X007845Y010783D01*
X008077Y011015D01*
X008077Y011345D01*
X007900Y011522D01*
X007900Y012089D01*
X008173Y012362D01*
X008243Y012362D01*
X008360Y012410D01*
X008450Y012500D01*
X008498Y012617D01*
X008498Y012743D01*
X008450Y012860D01*
X009910Y012860D01*
X009862Y012743D01*
X009862Y012617D01*
X009910Y012500D01*
X010000Y012410D01*
X010117Y012362D01*
X010187Y012362D01*
X010460Y012089D01*
X010460Y011522D01*
X010283Y011345D01*
X010283Y011015D01*
X010515Y010783D01*
X010845Y010783D01*
X011077Y011015D01*
X011077Y011345D01*
X010900Y011522D01*
X010900Y012149D01*
X010960Y012089D01*
X010960Y012089D01*
X011089Y011960D01*
X012149Y011960D01*
X011960Y011771D01*
X011960Y011462D01*
X011845Y011577D01*
X011515Y011577D01*
X011283Y011345D01*
X011283Y011094D01*
X010985Y010796D01*
X010985Y010280D01*
X010930Y010280D01*
X010848Y010198D01*
X010848Y009412D01*
X010930Y009330D01*
X011479Y009330D01*
X011561Y009412D01*
X011561Y010198D01*
X011479Y010280D01*
X011425Y010280D01*
X011425Y010613D01*
X011594Y010783D01*
X011845Y010783D01*
X011960Y010898D01*
X011960Y010771D01*
X011902Y010713D01*
X011902Y009892D01*
X011788Y009892D01*
X011706Y009810D01*
X011706Y009300D01*
X011788Y009218D01*
X012456Y009218D01*
X012538Y009300D01*
X012538Y009335D01*
X012572Y009335D01*
X012572Y008926D01*
X012654Y008844D01*
X012768Y008844D01*
X012768Y007281D01*
X013341Y006707D01*
X013243Y006748D01*
X013117Y006748D01*
X013000Y006700D01*
X012910Y006610D01*
X012862Y006493D01*
X012862Y006367D01*
X012910Y006250D01*
X012960Y006200D01*
X012960Y004271D01*
X012937Y004248D01*
X012867Y004248D01*
X012750Y004200D01*
X012660Y004110D01*
X012612Y003993D01*
X012612Y003867D01*
X012660Y003750D01*
X012750Y003660D01*
X012867Y003612D01*
X012993Y003612D01*
X013110Y003660D01*
X013200Y003750D01*
X013248Y003867D01*
X013248Y003937D01*
X013400Y004089D01*
X013400Y005275D01*
X013410Y005250D01*
X013500Y005160D01*
X013617Y005112D01*
X013743Y005112D01*
X013860Y005160D01*
X013950Y005250D01*
X013960Y005275D01*
X013960Y004589D01*
X014089Y004460D01*
X014839Y003710D01*
X015627Y003710D01*
X015633Y003704D01*
X015613Y003692D01*
X015579Y003659D01*
X015556Y003618D01*
X015543Y003572D01*
X015543Y003430D01*
X016156Y003430D01*
X015543Y003430D01*
X015543Y003288D01*
X015556Y003242D01*
X015579Y003201D01*
X015613Y003168D01*
X015654Y003144D01*
X015700Y003132D01*
X016156Y003132D01*
X016156Y003430D01*
X016156Y003430D01*
X016156Y003430D01*
X016805Y003430D01*
X017555Y002680D01*
X021680Y002680D01*
X021771Y002835D02*
X021900Y002964D01*
X024146Y005210D01*
X024521Y005210D01*
X024650Y005339D01*
X024563Y005252D02*
X024941Y005252D01*
X024782Y005094D02*
X024030Y005094D01*
X023871Y004935D02*
X024624Y004935D01*
X024465Y004777D02*
X023713Y004777D01*
X023554Y004618D02*
X024307Y004618D01*
X024148Y004460D02*
X023396Y004460D01*
X023237Y004301D02*
X023990Y004301D01*
X023831Y004143D02*
X023079Y004143D01*
X022920Y003984D02*
X023673Y003984D01*
X023514Y003826D02*
X022762Y003826D01*
X022603Y003667D02*
X023356Y003667D01*
X023197Y003509D02*
X022445Y003509D01*
X022286Y003350D02*
X023039Y003350D01*
X022880Y003192D02*
X022128Y003192D01*
X021969Y003033D02*
X022722Y003033D01*
X022563Y002875D02*
X021811Y002875D01*
X021771Y002835D02*
X017589Y002835D01*
X017339Y003085D01*
X017210Y003214D01*
X017210Y004200D01*
X017160Y004250D01*
X017112Y004367D01*
X017112Y004493D01*
X017160Y004610D01*
X017250Y004700D01*
X017367Y004748D01*
X017493Y004748D01*
X017610Y004700D01*
X017667Y004643D01*
X017704Y004680D01*
X017631Y004754D01*
X017631Y005106D01*
X017680Y005156D01*
X017660Y005168D01*
X017627Y005201D01*
X017603Y005242D01*
X017591Y005288D01*
X017591Y005430D01*
X018204Y005430D01*
X018817Y005430D01*
X018817Y005572D01*
X018804Y005618D01*
X018781Y005659D01*
X018747Y005692D01*
X018727Y005704D01*
X018733Y005710D01*
X019450Y005710D01*
X019500Y005660D01*
X019617Y005612D01*
X019743Y005612D01*
X019860Y005660D01*
X019950Y005750D01*
X019960Y005775D01*
X019960Y004271D01*
X019839Y004150D01*
X018733Y004150D01*
X018703Y004180D01*
X018777Y004254D01*
X018777Y004606D01*
X018703Y004680D01*
X018777Y004754D01*
X018777Y005106D01*
X018727Y005156D01*
X018747Y005168D01*
X018781Y005201D01*
X018804Y005242D01*
X018817Y005288D01*
X018817Y005430D01*
X018204Y005430D01*
X018204Y005430D01*
X017680Y005430D01*
X017055Y004930D01*
X017055Y003680D01*
X016805Y003430D01*
X016769Y003430D02*
X016769Y003572D01*
X016757Y003618D01*
X016733Y003659D01*
X016700Y003692D01*
X016680Y003704D01*
X016729Y003754D01*
X016729Y004106D01*
X016656Y004180D01*
X016729Y004254D01*
X016729Y004606D01*
X016656Y004680D01*
X016729Y004754D01*
X016729Y005106D01*
X016656Y005180D01*
X016729Y005254D01*
X016729Y005606D01*
X016656Y005680D01*
X016686Y005710D01*
X016896Y005710D01*
X017025Y005839D01*
X017400Y006214D01*
X017400Y007450D01*
X017450Y007500D01*
X017498Y007617D01*
X017498Y007743D01*
X017450Y007860D01*
X017360Y007950D01*
X017243Y007998D01*
X017117Y007998D01*
X017000Y007950D01*
X016910Y007860D01*
X016862Y007743D01*
X016862Y007617D01*
X016910Y007500D01*
X016960Y007450D01*
X016960Y006396D01*
X016714Y006150D01*
X016686Y006150D01*
X016656Y006180D01*
X016729Y006254D01*
X016729Y006606D01*
X016656Y006680D01*
X016729Y006754D01*
X016729Y007106D01*
X016647Y007188D01*
X016376Y007188D01*
X016376Y007565D01*
X017271Y008460D01*
X020450Y008460D01*
X020500Y008410D01*
X020525Y008400D01*
X018589Y008400D01*
X017984Y007795D01*
X017984Y007188D01*
X017713Y007188D01*
X017631Y007106D01*
X017631Y006754D01*
X017704Y006680D01*
X017631Y006606D01*
X017631Y006254D01*
X017704Y006180D01*
X017631Y006106D01*
X017631Y005754D01*
X017680Y005704D01*
X017660Y005692D01*
X017627Y005659D01*
X017603Y005618D01*
X017591Y005572D01*
X017591Y005430D01*
X018204Y005430D01*
X018204Y005430D01*
X018817Y005411D02*
X019960Y005411D01*
X019960Y005569D02*
X018817Y005569D01*
X018807Y005252D02*
X019960Y005252D01*
X019960Y005094D02*
X018777Y005094D01*
X018777Y004935D02*
X019960Y004935D01*
X019960Y004777D02*
X018777Y004777D01*
X018765Y004618D02*
X019960Y004618D01*
X019960Y004460D02*
X018777Y004460D01*
X018777Y004301D02*
X019960Y004301D01*
X020180Y004180D02*
X020180Y007180D01*
X019680Y007680D01*
X019180Y007680D01*
X018680Y008180D02*
X018204Y007704D01*
X018204Y006930D01*
X017984Y007313D02*
X017400Y007313D01*
X017400Y007154D02*
X017678Y007154D01*
X017631Y006996D02*
X017400Y006996D01*
X017400Y006837D02*
X017631Y006837D01*
X017703Y006679D02*
X017400Y006679D01*
X017400Y006520D02*
X017631Y006520D01*
X017631Y006362D02*
X017400Y006362D01*
X017389Y006203D02*
X017681Y006203D01*
X017631Y006045D02*
X017231Y006045D01*
X017072Y005886D02*
X017631Y005886D01*
X017657Y005728D02*
X016914Y005728D01*
X016805Y005930D02*
X016156Y005930D01*
X016156Y005430D02*
X015180Y005430D01*
X015180Y004930D02*
X016156Y004930D01*
X016156Y004430D02*
X015180Y004430D01*
X014930Y003930D02*
X014180Y004680D01*
X014180Y007180D01*
X014988Y007988D01*
X014988Y009181D01*
X014122Y009555D02*
X012122Y009555D01*
X012122Y010622D01*
X012180Y010680D01*
X012180Y011680D01*
X012680Y012180D01*
X011180Y012180D01*
X010180Y013180D01*
X008180Y013180D01*
X007180Y012180D01*
X004680Y012180D01*
X004180Y011680D01*
X004180Y010430D01*
X003930Y010180D01*
X003930Y009747D01*
X004122Y009555D01*
X004180Y009497D01*
X004180Y008680D01*
X004680Y008180D01*
X006180Y008180D01*
X007406Y006954D01*
X007805Y006954D01*
X007547Y006679D02*
X005498Y006679D01*
X005459Y006837D02*
X007212Y006837D01*
X007053Y006996D02*
X005250Y006996D01*
X005415Y007154D02*
X005445Y007154D01*
X005428Y007313D02*
X005432Y007313D01*
X005428Y007471D02*
X005432Y007471D01*
X005428Y007630D02*
X005432Y007630D01*
X005428Y007788D02*
X005432Y007788D01*
X005428Y007947D02*
X005432Y007947D01*
X005928Y007947D02*
X006102Y007947D01*
X006261Y007788D02*
X005928Y007788D01*
X005928Y007630D02*
X006419Y007630D01*
X006578Y007471D02*
X005928Y007471D01*
X005928Y007313D02*
X006736Y007313D01*
X006895Y007154D02*
X005915Y007154D01*
X005180Y006680D02*
X004680Y007180D01*
X004680Y007570D01*
X004432Y007630D02*
X004428Y007630D01*
X004428Y007788D02*
X004432Y007788D01*
X004428Y007947D02*
X004432Y007947D01*
X004444Y008105D02*
X004400Y008105D01*
X004180Y008180D02*
X004180Y007570D01*
X003932Y007630D02*
X003928Y007630D01*
X003928Y007788D02*
X003932Y007788D01*
X003928Y007947D02*
X003932Y007947D01*
X003944Y008105D02*
X002900Y008105D01*
X002900Y008001D02*
X002900Y009330D01*
X003229Y009330D01*
X003311Y009412D01*
X003311Y010198D01*
X003229Y010280D01*
X002680Y010280D01*
X002598Y010198D01*
X002598Y009760D01*
X002460Y009622D01*
X002460Y008835D01*
X002450Y008860D01*
X002360Y008950D01*
X002243Y008998D01*
X002117Y008998D01*
X002000Y008950D01*
X001910Y008860D01*
X001862Y008743D01*
X001862Y008617D01*
X001910Y008500D01*
X001960Y008450D01*
X001960Y008001D01*
X001932Y007972D01*
X001932Y007167D01*
X002014Y007085D01*
X002346Y007085D01*
X002428Y007167D01*
X002428Y007972D01*
X002400Y008001D01*
X002400Y008450D01*
X002450Y008500D01*
X002460Y008525D01*
X002460Y008001D01*
X002432Y007972D01*
X002432Y007167D01*
X002514Y007085D01*
X002846Y007085D01*
X002928Y007167D01*
X002928Y007972D01*
X002900Y008001D01*
X002932Y007972D02*
X002932Y007167D01*
X002960Y007139D01*
X002960Y006910D01*
X002910Y006860D01*
X002862Y006743D01*
X002862Y006617D01*
X002910Y006500D01*
X003000Y006410D01*
X003117Y006362D01*
X003243Y006362D01*
X003360Y006410D01*
X003450Y006500D01*
X003498Y006617D01*
X003498Y006743D01*
X003450Y006860D01*
X003400Y006910D01*
X003400Y007139D01*
X003428Y007167D01*
X003428Y007972D01*
X003346Y008054D01*
X003014Y008054D01*
X002932Y007972D01*
X002928Y007947D02*
X002932Y007947D01*
X002928Y007788D02*
X002932Y007788D01*
X002928Y007630D02*
X002932Y007630D01*
X002928Y007471D02*
X002932Y007471D01*
X002928Y007313D02*
X002932Y007313D01*
X002915Y007154D02*
X002945Y007154D01*
X002960Y006996D02*
X000360Y006996D01*
X000360Y007154D02*
X001445Y007154D01*
X001432Y007313D02*
X000360Y007313D01*
X000360Y007471D02*
X001328Y007471D01*
X001169Y007630D02*
X000360Y007630D01*
X000360Y007788D02*
X001011Y007788D01*
X000852Y007947D02*
X000360Y007947D01*
X000360Y008105D02*
X000710Y008105D01*
X000710Y008264D02*
X000360Y008264D01*
X000360Y008422D02*
X000710Y008422D01*
X000710Y008581D02*
X000360Y008581D01*
X000360Y008739D02*
X000710Y008739D01*
X000710Y008898D02*
X000360Y008898D01*
X000360Y009056D02*
X000710Y009056D01*
X000710Y009215D02*
X000360Y009215D01*
X000360Y009373D02*
X000710Y009373D01*
X000710Y009532D02*
X000360Y009532D01*
X000360Y009690D02*
X000710Y009690D01*
X000710Y009849D02*
X000360Y009849D01*
X000360Y010007D02*
X000710Y010007D01*
X000710Y010166D02*
X000360Y010166D01*
X000360Y010324D02*
X000710Y010324D01*
X000710Y010483D02*
X000360Y010483D01*
X000360Y010641D02*
X000710Y010641D01*
X000710Y010800D02*
X000360Y010800D01*
X000360Y010958D02*
X000710Y010958D01*
X000710Y011117D02*
X000360Y011117D01*
X000360Y011275D02*
X000710Y011275D01*
X000710Y011434D02*
X000360Y011434D01*
X000360Y011592D02*
X000710Y011592D01*
X000710Y011751D02*
X000360Y011751D01*
X000360Y011909D02*
X000710Y011909D01*
X000710Y012068D02*
X000360Y012068D01*
X000360Y012226D02*
X000710Y012226D01*
X000710Y012385D02*
X000360Y012385D01*
X000360Y012543D02*
X000710Y012543D01*
X000710Y012702D02*
X000360Y012702D01*
X000360Y012860D02*
X000710Y012860D01*
X000710Y013019D02*
X000360Y013019D01*
X000360Y013177D02*
X000710Y013177D01*
X000710Y013336D02*
X000360Y013336D01*
X000360Y013494D02*
X000710Y013494D01*
X000710Y013653D02*
X000360Y013653D01*
X000360Y013811D02*
X000710Y013811D01*
X000710Y013970D02*
X000360Y013970D01*
X000360Y014128D02*
X000710Y014128D01*
X000710Y014287D02*
X000360Y014287D01*
X000360Y014445D02*
X000710Y014445D01*
X000710Y014604D02*
X000360Y014604D01*
X000360Y014762D02*
X000710Y014762D01*
X000710Y014921D02*
X000360Y014921D01*
X000360Y015079D02*
X000710Y015079D01*
X000710Y015238D02*
X000360Y015238D01*
X000360Y015396D02*
X000710Y015396D01*
X000710Y015555D02*
X000360Y015555D01*
X000360Y015713D02*
X000710Y015713D01*
X000710Y015872D02*
X000360Y015872D01*
X000360Y016030D02*
X000710Y016030D01*
X000710Y016189D02*
X000360Y016189D01*
X000360Y016347D02*
X000710Y016347D01*
X000710Y016506D02*
X000360Y016506D01*
X000360Y016664D02*
X000710Y016664D01*
X000710Y016823D02*
X000360Y016823D01*
X000360Y016981D02*
X000710Y016981D01*
X000710Y017140D02*
X000360Y017140D01*
X000360Y017298D02*
X000837Y017298D01*
X000996Y017457D02*
X000360Y017457D01*
X000360Y017615D02*
X001154Y017615D01*
X001280Y017430D02*
X000930Y017080D01*
X000930Y008180D01*
X001540Y007570D01*
X001680Y007570D01*
X001928Y007630D02*
X001932Y007630D01*
X001928Y007788D02*
X001932Y007788D01*
X001928Y007947D02*
X001932Y007947D01*
X001960Y008105D02*
X001316Y008105D01*
X001158Y008264D02*
X001960Y008264D01*
X001960Y008422D02*
X001150Y008422D01*
X001150Y008581D02*
X001877Y008581D01*
X001862Y008739D02*
X001150Y008739D01*
X001150Y008898D02*
X001948Y008898D01*
X002180Y008680D02*
X002180Y007570D01*
X002428Y007630D02*
X002432Y007630D01*
X002428Y007788D02*
X002432Y007788D01*
X002428Y007947D02*
X002432Y007947D01*
X002460Y008105D02*
X002400Y008105D01*
X002400Y008264D02*
X002460Y008264D01*
X002460Y008422D02*
X002400Y008422D01*
X002412Y008898D02*
X002460Y008898D01*
X002460Y009056D02*
X001150Y009056D01*
X001150Y009215D02*
X002460Y009215D01*
X002460Y009373D02*
X001973Y009373D01*
X002012Y009532D02*
X002460Y009532D01*
X002528Y009690D02*
X002012Y009690D01*
X002012Y009849D02*
X002598Y009849D01*
X002598Y010007D02*
X002012Y010007D01*
X002012Y010166D02*
X002598Y010166D01*
X002928Y010483D02*
X001900Y010483D01*
X001900Y010641D02*
X002862Y010641D01*
X002862Y010800D02*
X002885Y010800D01*
X003180Y010680D02*
X003180Y012680D01*
X004680Y014180D01*
X016180Y014180D01*
X016180Y017180D01*
X016555Y017555D01*
X018405Y017555D01*
X018762Y017615D02*
X019348Y017615D01*
X019348Y017457D02*
X018762Y017457D01*
X018762Y017298D02*
X019348Y017298D01*
X019348Y017162D02*
X019430Y017080D01*
X019460Y017080D01*
X019460Y016522D01*
X019283Y016345D01*
X019283Y016015D01*
X019515Y015783D01*
X019845Y015783D01*
X020077Y016015D01*
X020077Y016345D01*
X019900Y016522D01*
X019900Y017080D01*
X019979Y017080D01*
X020061Y017162D01*
X020061Y017948D01*
X019979Y018030D01*
X019430Y018030D01*
X019348Y017948D01*
X019348Y017162D01*
X019371Y017140D02*
X018739Y017140D01*
X018072Y017140D02*
X016451Y017140D01*
X016400Y016981D02*
X019460Y016981D01*
X019460Y016823D02*
X016400Y016823D01*
X016400Y016664D02*
X019460Y016664D01*
X019443Y016506D02*
X018917Y016506D01*
X018845Y016577D02*
X018515Y016577D01*
X018283Y016345D01*
X018283Y016015D01*
X018515Y015783D01*
X018845Y015783D01*
X019077Y016015D01*
X019077Y016345D01*
X018845Y016577D01*
X019075Y016347D02*
X019285Y016347D01*
X019283Y016189D02*
X019077Y016189D01*
X019077Y016030D02*
X019283Y016030D01*
X019426Y015872D02*
X018934Y015872D01*
X018426Y015872D02*
X017934Y015872D01*
X017900Y015838D02*
X018077Y016015D01*
X018077Y016345D01*
X017845Y016577D01*
X017515Y016577D01*
X017283Y016345D01*
X017283Y016015D01*
X017460Y015838D01*
X017460Y015089D01*
X017960Y014589D01*
X018089Y014460D01*
X024271Y014460D01*
X024771Y014960D01*
X024900Y015089D01*
X024900Y015838D01*
X024960Y015898D01*
X024960Y011462D01*
X024845Y011577D01*
X024515Y011577D01*
X024283Y011345D01*
X024283Y011015D01*
X024515Y010783D01*
X024845Y010783D01*
X024960Y010898D01*
X024960Y010410D01*
X024910Y010360D01*
X024862Y010243D01*
X024862Y010117D01*
X024910Y010000D01*
X025000Y009910D01*
X025117Y009862D01*
X025243Y009862D01*
X025360Y009910D01*
X025450Y010000D01*
X025498Y010117D01*
X025498Y010243D01*
X025450Y010360D01*
X025400Y010410D01*
X025400Y010783D01*
X025995Y010783D01*
X026077Y010865D01*
X026077Y011495D01*
X025995Y011577D01*
X025400Y011577D01*
X025400Y015898D01*
X025460Y015838D01*
X025460Y015089D01*
X025960Y014589D01*
X026089Y014460D01*
X032271Y014460D01*
X032771Y014960D01*
X032900Y015089D01*
X032900Y015838D01*
X033077Y016015D01*
X033077Y016345D01*
X032900Y016522D01*
X032900Y017646D01*
X032771Y017775D01*
X032561Y017775D01*
X032561Y017948D01*
X032479Y018030D01*
X031930Y018030D01*
X031848Y017948D01*
X031848Y017162D01*
X031930Y017080D01*
X032460Y017080D01*
X032460Y016522D01*
X032283Y016345D01*
X032283Y016015D01*
X032460Y015838D01*
X032460Y015271D01*
X032089Y014900D01*
X028835Y014900D01*
X028860Y014910D01*
X028950Y015000D01*
X028998Y015117D01*
X028998Y015243D01*
X028950Y015360D01*
X028900Y015410D01*
X028900Y015838D01*
X029077Y016015D01*
X029077Y016345D01*
X028845Y016577D01*
X028515Y016577D01*
X028283Y016345D01*
X028283Y016015D01*
X028460Y015838D01*
X028460Y015410D01*
X028410Y015360D01*
X028362Y015243D01*
X028362Y015117D01*
X028410Y015000D01*
X028500Y014910D01*
X028525Y014900D01*
X026271Y014900D01*
X025900Y015271D01*
X025900Y015838D01*
X026077Y016015D01*
X026077Y016345D01*
X025845Y016577D01*
X025515Y016577D01*
X025400Y016462D01*
X025400Y017089D01*
X025646Y017335D01*
X030549Y017335D01*
X030549Y017162D01*
X030631Y017080D01*
X031180Y017080D01*
X031262Y017162D01*
X031262Y017948D01*
X031180Y018030D01*
X030631Y018030D01*
X030549Y017948D01*
X030549Y017775D01*
X025464Y017775D01*
X025335Y017646D01*
X024960Y017271D01*
X024960Y016462D01*
X024845Y016577D01*
X024515Y016577D01*
X024283Y016345D01*
X024283Y016015D01*
X024460Y015838D01*
X024460Y015271D01*
X024089Y014900D01*
X020835Y014900D01*
X020860Y014910D01*
X020950Y015000D01*
X020998Y015117D01*
X020998Y015243D01*
X020950Y015360D01*
X020900Y015410D01*
X020900Y015838D01*
X021077Y016015D01*
X021077Y016345D01*
X020845Y016577D01*
X020515Y016577D01*
X020283Y016345D01*
X020283Y016015D01*
X020460Y015838D01*
X020460Y015410D01*
X020410Y015360D01*
X020362Y015243D01*
X020362Y015117D01*
X020410Y015000D01*
X020500Y014910D01*
X020525Y014900D01*
X018271Y014900D01*
X017900Y015271D01*
X017900Y015838D01*
X017900Y015713D02*
X020460Y015713D01*
X020460Y015555D02*
X017900Y015555D01*
X017900Y015396D02*
X020446Y015396D01*
X020362Y015238D02*
X017934Y015238D01*
X018092Y015079D02*
X020378Y015079D01*
X020490Y014921D02*
X018251Y014921D01*
X018180Y014680D02*
X024180Y014680D01*
X024680Y015180D01*
X024680Y016180D01*
X024283Y016189D02*
X024077Y016189D01*
X024077Y016345D02*
X024077Y016015D01*
X023845Y015783D01*
X023515Y015783D01*
X023283Y016015D01*
X023283Y016345D01*
X023515Y016577D01*
X023845Y016577D01*
X024077Y016345D01*
X024075Y016347D02*
X024285Y016347D01*
X024443Y016506D02*
X023917Y016506D01*
X023443Y016506D02*
X022917Y016506D01*
X022845Y016577D02*
X022515Y016577D01*
X022283Y016345D01*
X022283Y016015D01*
X022515Y015783D01*
X022845Y015783D01*
X023077Y016015D01*
X023077Y016345D01*
X022845Y016577D01*
X023075Y016347D02*
X023285Y016347D01*
X023283Y016189D02*
X023077Y016189D01*
X023077Y016030D02*
X023283Y016030D01*
X023426Y015872D02*
X022934Y015872D01*
X022426Y015872D02*
X021934Y015872D01*
X021845Y015783D02*
X021515Y015783D01*
X021283Y016015D01*
X021283Y016345D01*
X021515Y016577D01*
X021845Y016577D01*
X022077Y016345D01*
X022077Y016015D01*
X021845Y015783D01*
X022077Y016030D02*
X022283Y016030D01*
X022283Y016189D02*
X022077Y016189D01*
X022075Y016347D02*
X022285Y016347D01*
X022443Y016506D02*
X021917Y016506D01*
X021443Y016506D02*
X020917Y016506D01*
X021075Y016347D02*
X021285Y016347D01*
X021283Y016189D02*
X021077Y016189D01*
X021077Y016030D02*
X021283Y016030D01*
X021426Y015872D02*
X020934Y015872D01*
X020900Y015713D02*
X024460Y015713D01*
X024460Y015555D02*
X020900Y015555D01*
X020914Y015396D02*
X024460Y015396D01*
X024426Y015238D02*
X020998Y015238D01*
X020982Y015079D02*
X024268Y015079D01*
X024109Y014921D02*
X020870Y014921D01*
X020680Y015180D02*
X020680Y016180D01*
X020283Y016189D02*
X020077Y016189D01*
X020075Y016347D02*
X020285Y016347D01*
X020443Y016506D02*
X019917Y016506D01*
X019900Y016664D02*
X024960Y016664D01*
X024960Y016506D02*
X024917Y016506D01*
X024960Y016823D02*
X019900Y016823D01*
X019900Y016981D02*
X024960Y016981D01*
X024960Y017140D02*
X020038Y017140D01*
X020061Y017298D02*
X024987Y017298D01*
X025145Y017457D02*
X020061Y017457D01*
X020061Y017615D02*
X025304Y017615D01*
X025462Y017774D02*
X020061Y017774D01*
X020061Y017932D02*
X030549Y017932D01*
X030905Y017555D02*
X025555Y017555D01*
X025180Y017180D01*
X025180Y010180D01*
X025498Y010166D02*
X028460Y010166D01*
X028460Y010324D02*
X025465Y010324D01*
X025400Y010483D02*
X028460Y010483D01*
X028460Y010641D02*
X025400Y010641D01*
X026012Y010800D02*
X026498Y010800D01*
X026515Y010783D02*
X026845Y010783D01*
X027077Y011015D01*
X027077Y011345D01*
X026900Y011522D01*
X026900Y012271D01*
X026771Y012400D01*
X026498Y012673D01*
X026498Y012743D01*
X026450Y012860D01*
X035827Y012860D01*
X035827Y012702D02*
X026498Y012702D01*
X026450Y012860D02*
X026360Y012950D01*
X026243Y012998D01*
X026117Y012998D01*
X026000Y012950D01*
X025910Y012860D01*
X025400Y012860D01*
X025400Y012702D02*
X025862Y012702D01*
X025862Y012743D02*
X025862Y012617D01*
X025910Y012500D01*
X026000Y012410D01*
X026117Y012362D01*
X026187Y012362D01*
X026460Y012089D01*
X026460Y011522D01*
X026283Y011345D01*
X026283Y011015D01*
X026515Y010783D01*
X026340Y010958D02*
X026077Y010958D01*
X026077Y011117D02*
X026283Y011117D01*
X026283Y011275D02*
X026077Y011275D01*
X026077Y011434D02*
X026371Y011434D01*
X026460Y011592D02*
X025400Y011592D01*
X025400Y011751D02*
X026460Y011751D01*
X026460Y011909D02*
X025400Y011909D01*
X025400Y012068D02*
X026460Y012068D01*
X026323Y012226D02*
X025400Y012226D01*
X025400Y012385D02*
X026062Y012385D01*
X025892Y012543D02*
X025400Y012543D01*
X025862Y012743D02*
X025910Y012860D01*
X026180Y012680D02*
X026680Y012180D01*
X026680Y011180D01*
X027077Y011117D02*
X027283Y011117D01*
X027283Y011015D02*
X027515Y010783D01*
X027845Y010783D01*
X028077Y011015D01*
X028077Y011345D01*
X027845Y011577D01*
X027515Y011577D01*
X027283Y011345D01*
X027283Y011015D01*
X027340Y010958D02*
X027020Y010958D01*
X026862Y010800D02*
X027498Y010800D01*
X027862Y010800D02*
X028460Y010800D01*
X028340Y010958D02*
X028020Y010958D01*
X028077Y011117D02*
X028283Y011117D01*
X028283Y011275D02*
X028077Y011275D01*
X027989Y011434D02*
X028371Y011434D01*
X028680Y011180D02*
X028680Y010237D01*
X028988Y009929D01*
X029404Y010007D02*
X030572Y010007D01*
X030572Y009849D02*
X030499Y009849D01*
X030440Y010166D02*
X029404Y010166D01*
X029404Y009849D02*
X029745Y009849D01*
X030122Y009555D02*
X031680Y009555D01*
X031680Y008680D01*
X031180Y008680D01*
X029680Y007180D01*
X027180Y007180D01*
X026180Y006180D01*
X026577Y006203D02*
X026743Y006203D01*
X026743Y006180D02*
X027180Y006180D01*
X027180Y006180D01*
X027617Y006180D01*
X027617Y005888D01*
X027607Y005820D01*
X027585Y005755D01*
X027554Y005693D01*
X027514Y005638D01*
X027465Y005589D01*
X027409Y005548D01*
X027348Y005517D01*
X027282Y005496D01*
X027214Y005485D01*
X027180Y005485D01*
X027180Y006180D01*
X027180Y006180D01*
X027180Y006180D01*
X026743Y006180D01*
X026743Y006045D02*
X026577Y006045D01*
X026577Y005886D02*
X026743Y005886D01*
X026788Y005728D02*
X026529Y005728D01*
X026365Y005569D02*
X026922Y005569D01*
X027180Y005569D02*
X027180Y005569D01*
X027180Y005728D02*
X027180Y005728D01*
X027180Y005886D02*
X027180Y005886D01*
X027180Y006045D02*
X027180Y006045D01*
X027617Y006045D02*
X027783Y006045D01*
X027783Y006203D02*
X027617Y006203D01*
X027617Y006362D02*
X027783Y006362D01*
X027784Y006520D02*
X027610Y006520D01*
X027546Y006679D02*
X027859Y006679D01*
X027360Y006837D02*
X035827Y006837D01*
X035827Y006679D02*
X033501Y006679D01*
X033517Y006663D02*
X033405Y006774D01*
X033259Y006835D01*
X033101Y006835D01*
X032955Y006774D01*
X032843Y006663D01*
X032783Y006517D01*
X032783Y005843D01*
X032843Y005697D01*
X032955Y005586D01*
X033101Y005525D01*
X033259Y005525D01*
X033405Y005586D01*
X033517Y005697D01*
X033577Y005843D01*
X033577Y006517D01*
X033517Y006663D01*
X033576Y006520D02*
X035827Y006520D01*
X035827Y006362D02*
X033577Y006362D01*
X033577Y006203D02*
X035827Y006203D01*
X035827Y006045D02*
X033577Y006045D01*
X033577Y005886D02*
X035827Y005886D01*
X035827Y005728D02*
X033529Y005728D01*
X033365Y005569D02*
X035827Y005569D01*
X035827Y005411D02*
X029222Y005411D01*
X029063Y005252D02*
X035827Y005252D01*
X035827Y005094D02*
X028905Y005094D01*
X027995Y005569D02*
X027438Y005569D01*
X027572Y005728D02*
X027831Y005728D01*
X027783Y005886D02*
X027617Y005886D01*
X026743Y006362D02*
X026673Y006362D01*
X025859Y006679D02*
X025400Y006679D01*
X025400Y006837D02*
X026526Y006837D01*
X026684Y006996D02*
X025400Y006996D01*
X025465Y007154D02*
X026843Y007154D01*
X027001Y007313D02*
X025624Y007313D01*
X025680Y007680D02*
X025180Y007180D01*
X025180Y006180D01*
X024430Y005430D01*
X024055Y005430D01*
X021680Y003055D01*
X017680Y003055D01*
X017430Y003305D01*
X017430Y004430D01*
X017139Y004301D02*
X016729Y004301D01*
X016729Y004460D02*
X017112Y004460D01*
X017168Y004618D02*
X016718Y004618D01*
X016729Y004777D02*
X017631Y004777D01*
X017631Y004935D02*
X016729Y004935D01*
X016729Y005094D02*
X017631Y005094D01*
X017600Y005252D02*
X016728Y005252D01*
X016729Y005411D02*
X017591Y005411D01*
X017591Y005569D02*
X016729Y005569D01*
X016805Y005930D02*
X017180Y006305D01*
X017180Y007680D01*
X016880Y007788D02*
X016599Y007788D01*
X016441Y007630D02*
X016862Y007630D01*
X016939Y007471D02*
X016376Y007471D01*
X016376Y007313D02*
X016960Y007313D01*
X016960Y007154D02*
X016682Y007154D01*
X016729Y006996D02*
X016960Y006996D01*
X016960Y006837D02*
X016729Y006837D01*
X016657Y006679D02*
X016960Y006679D01*
X016960Y006520D02*
X016729Y006520D01*
X016729Y006362D02*
X016925Y006362D01*
X016767Y006203D02*
X016679Y006203D01*
X016156Y006430D02*
X015180Y006430D01*
X016156Y006930D02*
X016156Y007656D01*
X017180Y008680D01*
X020680Y008680D01*
X020488Y008422D02*
X017233Y008422D01*
X017075Y008264D02*
X018452Y008264D01*
X018294Y008105D02*
X016916Y008105D01*
X016997Y007947D02*
X016758Y007947D01*
X017363Y007947D02*
X018135Y007947D01*
X017984Y007788D02*
X017480Y007788D01*
X017498Y007630D02*
X017984Y007630D01*
X017984Y007471D02*
X017421Y007471D01*
X018680Y008180D02*
X021180Y008180D01*
X022122Y009122D01*
X022122Y009555D01*
X028122Y009555D01*
X030122Y009555D01*
X030988Y009181D02*
X029487Y007680D01*
X025680Y007680D01*
X024430Y007680D02*
X024430Y006430D01*
X022180Y004180D01*
X021180Y004180D01*
X020180Y004180D02*
X019930Y003930D01*
X018204Y003930D01*
X017210Y003984D02*
X016729Y003984D01*
X016729Y003826D02*
X017210Y003826D01*
X017210Y003667D02*
X016725Y003667D01*
X016769Y003509D02*
X017210Y003509D01*
X017210Y003350D02*
X016769Y003350D01*
X016769Y003288D02*
X016769Y003430D01*
X016156Y003430D01*
X011680Y003430D01*
X011305Y003805D01*
X011305Y004055D01*
X011305Y004906D01*
X011603Y004906D01*
X011603Y005363D01*
X011591Y005409D01*
X011567Y005450D01*
X011534Y005483D01*
X011493Y005507D01*
X011447Y005519D01*
X011305Y005519D01*
X011163Y005519D01*
X011117Y005507D01*
X011076Y005483D01*
X011043Y005450D01*
X011031Y005430D01*
X010981Y005479D01*
X010629Y005479D01*
X010555Y005406D01*
X010481Y005479D01*
X010129Y005479D01*
X010055Y005406D01*
X009981Y005479D01*
X009629Y005479D01*
X009555Y005406D01*
X009481Y005479D01*
X009166Y005479D01*
X009275Y005589D01*
X009400Y005714D01*
X009400Y006381D01*
X009481Y006381D01*
X009555Y006454D01*
X009585Y006424D01*
X009585Y006410D01*
X009535Y006360D01*
X009487Y006243D01*
X009487Y006117D01*
X009535Y006000D01*
X009625Y005910D01*
X009742Y005862D01*
X009868Y005862D01*
X009985Y005910D01*
X010075Y006000D01*
X010123Y006117D01*
X010123Y006243D01*
X010075Y006360D01*
X010025Y006410D01*
X010025Y006424D01*
X010055Y006454D01*
X010129Y006381D01*
X010481Y006381D01*
X010531Y006430D01*
X010543Y006410D01*
X010576Y006377D01*
X010617Y006353D01*
X010663Y006341D01*
X010805Y006341D01*
X010947Y006341D01*
X010993Y006353D01*
X011034Y006377D01*
X011067Y006410D01*
X011079Y006430D01*
X011129Y006381D01*
X011481Y006381D01*
X011563Y006463D01*
X011563Y007445D01*
X011481Y007527D01*
X011129Y007527D01*
X011079Y007477D01*
X011067Y007497D01*
X011034Y007531D01*
X010993Y007554D01*
X010947Y007567D01*
X010805Y007567D01*
X010805Y006954D01*
X010805Y006954D01*
X010805Y006341D01*
X010805Y006954D01*
X010805Y006954D01*
X010805Y006996D02*
X010805Y006996D01*
X010805Y007154D02*
X010805Y007154D01*
X010805Y007313D02*
X010805Y007313D01*
X010805Y007471D02*
X010805Y007471D01*
X010525Y007630D02*
X011544Y007630D01*
X011537Y007471D02*
X011703Y007471D01*
X011563Y007313D02*
X011861Y007313D01*
X011960Y007154D02*
X011563Y007154D01*
X011563Y006996D02*
X011960Y006996D01*
X011960Y006837D02*
X011563Y006837D01*
X011563Y006679D02*
X011960Y006679D01*
X011960Y006520D02*
X011563Y006520D01*
X011960Y006362D02*
X011008Y006362D01*
X010805Y006362D02*
X010805Y006362D01*
X010805Y006520D02*
X010805Y006520D01*
X010805Y006679D02*
X010805Y006679D01*
X010805Y006837D02*
X010805Y006837D01*
X010305Y006954D02*
X010305Y007930D01*
X011555Y007930D01*
X012180Y007305D01*
X012180Y004180D01*
X011886Y004301D02*
X011476Y004301D01*
X011305Y004301D02*
X011305Y004301D01*
X011305Y004460D02*
X011305Y004460D01*
X011305Y004618D02*
X011305Y004618D01*
X011305Y004777D02*
X011305Y004777D01*
X011305Y004906D02*
X011305Y005519D01*
X011305Y004906D01*
X011305Y004906D01*
X011305Y004935D02*
X011305Y004935D01*
X011305Y005094D02*
X011305Y005094D01*
X011305Y005252D02*
X011305Y005252D01*
X011305Y005411D02*
X011305Y005411D01*
X011590Y005411D02*
X011960Y005411D01*
X011960Y005569D02*
X009255Y005569D01*
X009400Y005728D02*
X011960Y005728D01*
X011960Y005886D02*
X009927Y005886D01*
X010093Y006045D02*
X011960Y006045D01*
X011960Y006203D02*
X010123Y006203D01*
X010073Y006362D02*
X010602Y006362D01*
X009805Y006180D02*
X009805Y006954D01*
X009305Y006954D02*
X009180Y006829D01*
X009180Y005805D01*
X009055Y005680D01*
X008680Y005680D01*
X008305Y005930D02*
X008305Y004906D01*
X007805Y004906D02*
X005954Y004906D01*
X005180Y005680D01*
X004882Y005569D02*
X002478Y005569D01*
X002498Y005617D02*
X002450Y005500D01*
X002400Y005450D01*
X002400Y004835D01*
X002410Y004860D01*
X002500Y004950D01*
X002617Y004998D01*
X002743Y004998D01*
X002860Y004950D01*
X002950Y004860D01*
X002998Y004743D01*
X002998Y004617D01*
X002950Y004500D01*
X002900Y004450D01*
X002900Y004221D01*
X002928Y004193D01*
X002928Y003388D01*
X002846Y003306D01*
X002514Y003306D01*
X002432Y003388D01*
X002432Y004193D01*
X002460Y004221D01*
X002460Y004450D01*
X002410Y004500D01*
X002400Y004525D01*
X002400Y004221D01*
X002428Y004193D01*
X002428Y003388D01*
X002346Y003306D01*
X002014Y003306D01*
X001932Y003388D01*
X001932Y004193D01*
X001960Y004221D01*
X001960Y005025D01*
X001950Y005000D01*
X001900Y004950D01*
X001900Y004221D01*
X001928Y004193D01*
X001928Y003388D01*
X001846Y003306D01*
X001514Y003306D01*
X001432Y003388D01*
X001432Y004193D01*
X001460Y004221D01*
X001460Y004950D01*
X001410Y005000D01*
X001362Y005117D01*
X001362Y005243D01*
X001410Y005360D01*
X001500Y005450D01*
X001617Y005498D01*
X001743Y005498D01*
X001860Y005450D01*
X001950Y005360D01*
X001960Y005335D01*
X001960Y005450D01*
X001910Y005500D01*
X001862Y005617D01*
X001862Y005743D01*
X001910Y005860D01*
X002000Y005950D01*
X002117Y005998D01*
X002243Y005998D01*
X002360Y005950D01*
X002450Y005860D01*
X002498Y005743D01*
X002498Y005617D01*
X002498Y005728D02*
X004862Y005728D01*
X004936Y005886D02*
X002424Y005886D01*
X002180Y005680D02*
X002180Y003790D01*
X002428Y003826D02*
X002432Y003826D01*
X002428Y003984D02*
X002432Y003984D01*
X002428Y004143D02*
X002432Y004143D01*
X002460Y004301D02*
X002400Y004301D01*
X002400Y004460D02*
X002451Y004460D01*
X002680Y004680D02*
X002680Y003790D01*
X002928Y003826D02*
X002932Y003826D01*
X002928Y003984D02*
X002932Y003984D01*
X002928Y004143D02*
X002932Y004143D01*
X002932Y004193D02*
X002932Y003388D01*
X002935Y003385D01*
X002910Y003360D01*
X002862Y003243D01*
X002862Y003117D01*
X002910Y003000D01*
X003000Y002910D01*
X003117Y002862D01*
X003243Y002862D01*
X003360Y002910D01*
X003393Y002943D01*
X003362Y002868D01*
X003362Y002742D01*
X003410Y002625D01*
X003500Y002535D01*
X003617Y002487D01*
X003743Y002487D01*
X003860Y002535D01*
X003893Y002568D01*
X003862Y002493D01*
X003862Y002367D01*
X003910Y002250D01*
X004000Y002160D01*
X004117Y002112D01*
X004243Y002112D01*
X004360Y002160D01*
X004450Y002250D01*
X004498Y002367D01*
X004498Y002493D01*
X004450Y002610D01*
X004400Y002660D01*
X004400Y003359D01*
X004428Y003388D01*
X004428Y004193D01*
X004346Y004275D01*
X004014Y004275D01*
X003932Y004193D01*
X003932Y003388D01*
X003960Y003359D01*
X003960Y002960D01*
X003950Y002985D01*
X003900Y003035D01*
X003900Y003359D01*
X003928Y003388D01*
X003928Y004193D01*
X003846Y004275D01*
X003514Y004275D01*
X003432Y004193D01*
X003432Y003388D01*
X003460Y003359D01*
X003460Y003335D01*
X003450Y003360D01*
X003425Y003385D01*
X003428Y003388D01*
X003428Y004193D01*
X003346Y004275D01*
X003014Y004275D01*
X002932Y004193D01*
X002900Y004301D02*
X005500Y004301D01*
X005502Y004302D02*
X005461Y004279D01*
X005428Y004245D01*
X005409Y004212D01*
X005346Y004275D01*
X005014Y004275D01*
X004932Y004193D01*
X004932Y003388D01*
X005014Y003306D01*
X005346Y003306D01*
X005409Y003368D01*
X005428Y003335D01*
X005461Y003302D01*
X005502Y003278D01*
X005548Y003266D01*
X005680Y003266D01*
X005812Y003266D01*
X005858Y003278D01*
X005899Y003302D01*
X005932Y003335D01*
X005956Y003376D01*
X005968Y003422D01*
X005968Y003790D01*
X005680Y003790D01*
X005680Y003266D01*
X005680Y003790D01*
X005680Y003790D01*
X005680Y003790D01*
X005945Y004055D01*
X007180Y004055D01*
X007547Y004460D02*
X002909Y004460D01*
X002998Y004618D02*
X007547Y004618D01*
X007547Y005252D02*
X005919Y005252D01*
X005761Y005411D02*
X007560Y005411D01*
X008050Y005411D02*
X008060Y005411D01*
X008085Y005569D02*
X005602Y005569D01*
X005498Y005728D02*
X008058Y005728D01*
X007987Y005886D02*
X005424Y005886D01*
X005458Y006520D02*
X007547Y006520D01*
X008008Y006045D02*
X000360Y006045D01*
X000360Y006203D02*
X008133Y006203D01*
X008477Y006203D02*
X008960Y006203D01*
X008960Y006045D02*
X008602Y006045D01*
X008960Y006362D02*
X000360Y006362D01*
X000360Y006520D02*
X002902Y006520D01*
X002862Y006679D02*
X000360Y006679D01*
X000360Y006837D02*
X002901Y006837D01*
X003180Y006680D02*
X003180Y007570D01*
X003428Y007630D02*
X003432Y007630D01*
X003428Y007788D02*
X003432Y007788D01*
X003428Y007947D02*
X003432Y007947D01*
X003680Y007570D02*
X003680Y007180D01*
X004180Y006680D01*
X004498Y006679D02*
X004862Y006679D01*
X004902Y006520D02*
X004458Y006520D01*
X004459Y006837D02*
X004712Y006837D01*
X004553Y006996D02*
X004250Y006996D01*
X004415Y007154D02*
X004445Y007154D01*
X004428Y007313D02*
X004432Y007313D01*
X004428Y007471D02*
X004432Y007471D01*
X003932Y007471D02*
X003928Y007471D01*
X003928Y007313D02*
X003932Y007313D01*
X003432Y007313D02*
X003428Y007313D01*
X003428Y007471D02*
X003432Y007471D01*
X003415Y007154D02*
X003445Y007154D01*
X003400Y006996D02*
X003553Y006996D01*
X003459Y006837D02*
X003712Y006837D01*
X003862Y006679D02*
X003498Y006679D01*
X003458Y006520D02*
X003902Y006520D01*
X002445Y007154D02*
X002415Y007154D01*
X002428Y007313D02*
X002432Y007313D01*
X002428Y007471D02*
X002432Y007471D01*
X002680Y007570D02*
X002680Y009530D01*
X002955Y009805D01*
X003311Y009849D02*
X003710Y009849D01*
X003710Y010007D02*
X003311Y010007D01*
X003311Y010166D02*
X003710Y010166D01*
X003763Y010324D02*
X001900Y010324D01*
X001460Y010324D02*
X001150Y010324D01*
X001150Y010166D02*
X001299Y010166D01*
X001299Y010007D02*
X001150Y010007D01*
X001150Y009849D02*
X001299Y009849D01*
X001299Y009690D02*
X001150Y009690D01*
X001150Y009532D02*
X001299Y009532D01*
X001338Y009373D02*
X001150Y009373D01*
X001655Y009805D02*
X001680Y009805D01*
X001680Y011180D01*
X002077Y011117D02*
X002283Y011117D01*
X002283Y011275D02*
X002077Y011275D01*
X001872Y011592D02*
X001150Y011592D01*
X001150Y011434D02*
X001283Y011434D01*
X001283Y011275D02*
X001150Y011275D01*
X001150Y011117D02*
X001283Y011117D01*
X001283Y010958D02*
X001150Y010958D01*
X001150Y010800D02*
X001348Y010800D01*
X001460Y010641D02*
X001150Y010641D01*
X001150Y010483D02*
X001460Y010483D01*
X002012Y010800D02*
X002498Y010800D01*
X002340Y010958D02*
X002077Y010958D01*
X002488Y011592D02*
X002960Y011592D01*
X002960Y011751D02*
X002495Y011751D01*
X002401Y011909D02*
X002960Y011909D01*
X002960Y012068D02*
X002400Y012068D01*
X002400Y012226D02*
X002960Y012226D01*
X002960Y012385D02*
X002400Y012385D01*
X002400Y012543D02*
X002960Y012543D01*
X002960Y012702D02*
X002513Y012702D01*
X002671Y012860D02*
X003049Y012860D01*
X003207Y013019D02*
X002830Y013019D01*
X002988Y013177D02*
X003366Y013177D01*
X003524Y013336D02*
X003147Y013336D01*
X003305Y013494D02*
X003683Y013494D01*
X003841Y013653D02*
X003464Y013653D01*
X003622Y013811D02*
X004000Y013811D01*
X004158Y013970D02*
X003781Y013970D01*
X003939Y014128D02*
X004317Y014128D01*
X004475Y014287D02*
X004098Y014287D01*
X004256Y014445D02*
X008465Y014445D01*
X008367Y014604D02*
X004400Y014604D01*
X004400Y014762D02*
X008370Y014762D01*
X008460Y014921D02*
X005870Y014921D01*
X005860Y014910D02*
X005950Y015000D01*
X005998Y015117D01*
X005998Y015243D01*
X005950Y015360D01*
X005900Y015410D01*
X005900Y015838D01*
X006077Y016015D01*
X006077Y016345D01*
X005845Y016577D01*
X005515Y016577D01*
X005283Y016345D01*
X005283Y016015D01*
X005460Y015838D01*
X005460Y015410D01*
X005410Y015360D01*
X005362Y015243D01*
X005362Y015117D01*
X005410Y015000D01*
X005500Y014910D01*
X005617Y014862D01*
X005743Y014862D01*
X005860Y014910D01*
X005982Y015079D02*
X008460Y015079D01*
X008460Y015238D02*
X005998Y015238D01*
X005914Y015396D02*
X008460Y015396D01*
X008460Y015555D02*
X005900Y015555D01*
X005900Y015713D02*
X008460Y015713D01*
X008426Y015872D02*
X007934Y015872D01*
X007845Y015783D02*
X007515Y015783D01*
X007283Y016015D01*
X007283Y016345D01*
X007515Y016577D01*
X007845Y016577D01*
X008077Y016345D01*
X008077Y016015D01*
X007845Y015783D01*
X008077Y016030D02*
X008283Y016030D01*
X008283Y016189D02*
X008077Y016189D01*
X008075Y016347D02*
X008285Y016347D01*
X008443Y016506D02*
X007917Y016506D01*
X007443Y016506D02*
X006917Y016506D01*
X006845Y016577D02*
X007077Y016345D01*
X007077Y016015D01*
X006845Y015783D01*
X006515Y015783D01*
X006283Y016015D01*
X006283Y016345D01*
X006515Y016577D01*
X006845Y016577D01*
X007075Y016347D02*
X007285Y016347D01*
X007283Y016189D02*
X007077Y016189D01*
X007077Y016030D02*
X007283Y016030D01*
X007426Y015872D02*
X006934Y015872D01*
X006426Y015872D02*
X005934Y015872D01*
X006077Y016030D02*
X006283Y016030D01*
X006283Y016189D02*
X006077Y016189D01*
X006075Y016347D02*
X006285Y016347D01*
X006443Y016506D02*
X005917Y016506D01*
X005443Y016506D02*
X004917Y016506D01*
X005075Y016347D02*
X005285Y016347D01*
X005283Y016189D02*
X005077Y016189D01*
X005077Y016030D02*
X005283Y016030D01*
X005426Y015872D02*
X004934Y015872D01*
X004426Y015872D02*
X004400Y015872D01*
X004400Y015713D02*
X005460Y015713D01*
X005460Y015555D02*
X004400Y015555D01*
X004400Y015396D02*
X005446Y015396D01*
X005362Y015238D02*
X004400Y015238D01*
X004400Y015079D02*
X005378Y015079D01*
X005490Y014921D02*
X004400Y014921D01*
X004180Y014680D02*
X004180Y016805D01*
X012405Y016805D01*
X012405Y017555D01*
X012049Y017615D02*
X004686Y017615D01*
X004686Y017457D02*
X012049Y017457D01*
X012049Y017298D02*
X004686Y017298D01*
X004686Y017140D02*
X012072Y017140D01*
X012625Y016981D02*
X013460Y016981D01*
X013460Y017080D02*
X013460Y016522D01*
X013283Y016345D01*
X013283Y016015D01*
X013515Y015783D01*
X013845Y015783D01*
X014077Y016015D01*
X014077Y016345D01*
X013900Y016522D01*
X013900Y017080D01*
X013979Y017080D01*
X014061Y017162D01*
X014061Y017948D01*
X013979Y018030D01*
X013430Y018030D01*
X013348Y017948D01*
X013348Y017162D01*
X013430Y017080D01*
X013460Y017080D01*
X013371Y017140D02*
X012739Y017140D01*
X012762Y017298D02*
X013348Y017298D01*
X013348Y017457D02*
X012762Y017457D01*
X012762Y017615D02*
X013348Y017615D01*
X013348Y017774D02*
X012762Y017774D01*
X012762Y017932D02*
X013348Y017932D01*
X013680Y017555D02*
X013680Y016180D01*
X014077Y016189D02*
X014283Y016189D01*
X014283Y016345D02*
X014283Y016015D01*
X014515Y015783D01*
X014845Y015783D01*
X015077Y016015D01*
X015077Y016345D01*
X014845Y016577D01*
X014515Y016577D01*
X014283Y016345D01*
X014285Y016347D02*
X014075Y016347D01*
X013917Y016506D02*
X014443Y016506D01*
X013900Y016664D02*
X015960Y016664D01*
X015960Y016506D02*
X015917Y016506D01*
X015960Y016823D02*
X013900Y016823D01*
X013900Y016981D02*
X015960Y016981D01*
X015960Y017140D02*
X014038Y017140D01*
X014061Y017298D02*
X015987Y017298D01*
X016145Y017457D02*
X014061Y017457D01*
X014061Y017615D02*
X016304Y017615D01*
X016462Y017774D02*
X014061Y017774D01*
X014061Y017932D02*
X018049Y017932D01*
X018762Y017932D02*
X019348Y017932D01*
X019348Y017774D02*
X018762Y017774D01*
X018049Y017298D02*
X016609Y017298D01*
X016443Y016506D02*
X016400Y016506D01*
X016917Y016506D02*
X017443Y016506D01*
X017285Y016347D02*
X017075Y016347D01*
X017077Y016189D02*
X017283Y016189D01*
X017283Y016030D02*
X017077Y016030D01*
X016934Y015872D02*
X017426Y015872D01*
X017460Y015713D02*
X016900Y015713D01*
X016900Y015555D02*
X017460Y015555D01*
X017460Y015396D02*
X016900Y015396D01*
X016900Y015238D02*
X017460Y015238D01*
X017470Y015079D02*
X016900Y015079D01*
X016900Y014921D02*
X017628Y014921D01*
X017787Y014762D02*
X016990Y014762D01*
X016993Y014604D02*
X017945Y014604D01*
X018180Y014680D02*
X017680Y015180D01*
X017680Y016180D01*
X018077Y016189D02*
X018283Y016189D01*
X018285Y016347D02*
X018075Y016347D01*
X017917Y016506D02*
X018443Y016506D01*
X018283Y016030D02*
X018077Y016030D01*
X016680Y016180D02*
X016680Y014680D01*
X016895Y014445D02*
X024960Y014445D01*
X024960Y014287D02*
X016400Y014287D01*
X016400Y014445D02*
X016465Y014445D01*
X015960Y014445D02*
X015395Y014445D01*
X015493Y014604D02*
X015960Y014604D01*
X015960Y014762D02*
X015490Y014762D01*
X015389Y014921D02*
X015960Y014921D01*
X015960Y015079D02*
X012982Y015079D01*
X012998Y015238D02*
X015960Y015238D01*
X015960Y015396D02*
X012914Y015396D01*
X012900Y015555D02*
X015960Y015555D01*
X015960Y015713D02*
X012900Y015713D01*
X012934Y015872D02*
X013426Y015872D01*
X013283Y016030D02*
X013077Y016030D01*
X013077Y016189D02*
X013283Y016189D01*
X013285Y016347D02*
X013075Y016347D01*
X012917Y016506D02*
X013443Y016506D01*
X013460Y016664D02*
X012576Y016664D01*
X012625Y016823D02*
X013460Y016823D01*
X012680Y016180D02*
X012680Y015180D01*
X012446Y015396D02*
X009900Y015396D01*
X009900Y015555D02*
X012460Y015555D01*
X012460Y015713D02*
X009900Y015713D01*
X009934Y015872D02*
X010426Y015872D01*
X010515Y015783D02*
X010283Y016015D01*
X010283Y016345D01*
X010515Y016577D01*
X010845Y016577D01*
X011077Y016345D01*
X011077Y016015D01*
X010845Y015783D01*
X010515Y015783D01*
X010283Y016030D02*
X010077Y016030D01*
X010077Y016189D02*
X010283Y016189D01*
X010285Y016347D02*
X010075Y016347D01*
X009917Y016506D02*
X010443Y016506D01*
X010917Y016506D02*
X011443Y016506D01*
X011515Y016577D02*
X011283Y016345D01*
X011283Y016015D01*
X011515Y015783D01*
X011845Y015783D01*
X012077Y016015D01*
X012077Y016345D01*
X011845Y016577D01*
X011515Y016577D01*
X011285Y016347D02*
X011075Y016347D01*
X011077Y016189D02*
X011283Y016189D01*
X011283Y016030D02*
X011077Y016030D01*
X010934Y015872D02*
X011426Y015872D01*
X011934Y015872D02*
X012426Y015872D01*
X012283Y016030D02*
X012077Y016030D01*
X012077Y016189D02*
X012283Y016189D01*
X012285Y016347D02*
X012075Y016347D01*
X011917Y016506D02*
X012443Y016506D01*
X013934Y015872D02*
X014426Y015872D01*
X014283Y016030D02*
X014077Y016030D01*
X014934Y015872D02*
X015426Y015872D01*
X015283Y016030D02*
X015077Y016030D01*
X015077Y016189D02*
X015283Y016189D01*
X015285Y016347D02*
X015075Y016347D01*
X014917Y016506D02*
X015443Y016506D01*
X015934Y015872D02*
X015960Y015872D01*
X014971Y014921D02*
X012870Y014921D01*
X012490Y014921D02*
X010251Y014921D01*
X010092Y015079D02*
X012378Y015079D01*
X012362Y015238D02*
X009934Y015238D01*
X009680Y015180D02*
X010180Y014680D01*
X015180Y014680D01*
X014965Y014445D02*
X008895Y014445D01*
X008993Y014604D02*
X009945Y014604D01*
X009787Y014762D02*
X008990Y014762D01*
X008900Y014921D02*
X009628Y014921D01*
X009470Y015079D02*
X008900Y015079D01*
X008900Y015238D02*
X009460Y015238D01*
X009460Y015396D02*
X008900Y015396D01*
X008900Y015555D02*
X009460Y015555D01*
X009460Y015713D02*
X008900Y015713D01*
X008934Y015872D02*
X009426Y015872D01*
X009283Y016030D02*
X009077Y016030D01*
X009077Y016189D02*
X009283Y016189D01*
X009285Y016347D02*
X009075Y016347D01*
X008917Y016506D02*
X009443Y016506D01*
X009680Y016180D02*
X009680Y015180D01*
X008680Y014680D02*
X008680Y016180D01*
X005680Y016180D02*
X005680Y015180D01*
X004180Y014680D02*
X002180Y012680D01*
X002180Y011680D01*
X001959Y011909D02*
X001150Y011909D01*
X001150Y011751D02*
X001865Y011751D01*
X001960Y012068D02*
X001150Y012068D01*
X001150Y012226D02*
X001960Y012226D01*
X001960Y012385D02*
X001150Y012385D01*
X001150Y012543D02*
X001960Y012543D01*
X001960Y012702D02*
X001150Y012702D01*
X001150Y012860D02*
X002049Y012860D01*
X002207Y013019D02*
X001150Y013019D01*
X001150Y013177D02*
X002366Y013177D01*
X002524Y013336D02*
X001150Y013336D01*
X001150Y013494D02*
X002683Y013494D01*
X002841Y013653D02*
X001150Y013653D01*
X001150Y013811D02*
X003000Y013811D01*
X003158Y013970D02*
X001150Y013970D01*
X001150Y014128D02*
X003317Y014128D01*
X003475Y014287D02*
X001150Y014287D01*
X001150Y014445D02*
X003634Y014445D01*
X003792Y014604D02*
X001150Y014604D01*
X001150Y014762D02*
X003951Y014762D01*
X003960Y014921D02*
X001150Y014921D01*
X001150Y015079D02*
X003960Y015079D01*
X003960Y015238D02*
X001150Y015238D01*
X001150Y015396D02*
X003960Y015396D01*
X003960Y015555D02*
X001150Y015555D01*
X001150Y015713D02*
X003960Y015713D01*
X003960Y015872D02*
X003934Y015872D01*
X003426Y015872D02*
X002934Y015872D01*
X003077Y016030D02*
X003283Y016030D01*
X003283Y016189D02*
X003077Y016189D01*
X003158Y016347D02*
X003285Y016347D01*
X003317Y016506D02*
X003443Y016506D01*
X003475Y016664D02*
X003960Y016664D01*
X003960Y016506D02*
X003917Y016506D01*
X003960Y016823D02*
X003634Y016823D01*
X003792Y016981D02*
X004029Y016981D01*
X003973Y017140D02*
X003951Y017140D01*
X003930Y017430D02*
X002680Y016180D01*
X002283Y016189D02*
X002077Y016189D01*
X002077Y016345D02*
X002077Y016015D01*
X001845Y015783D01*
X001515Y015783D01*
X001283Y016015D01*
X001283Y016345D01*
X001515Y016577D01*
X001845Y016577D01*
X002077Y016345D01*
X002075Y016347D02*
X002285Y016347D01*
X002443Y016506D02*
X001917Y016506D01*
X001443Y016506D02*
X001150Y016506D01*
X001150Y016664D02*
X002853Y016664D01*
X003011Y016823D02*
X001150Y016823D01*
X001150Y016981D02*
X002730Y016981D01*
X002674Y017140D02*
X001301Y017140D01*
X001280Y017430D02*
X003030Y017430D01*
X003387Y017457D02*
X003645Y017457D01*
X003804Y017615D02*
X003387Y017615D01*
X003387Y017774D02*
X003973Y017774D01*
X003930Y017430D02*
X004330Y017430D01*
X004686Y017774D02*
X012049Y017774D01*
X012049Y017932D02*
X001991Y017932D01*
X002139Y017993D02*
X002367Y018221D01*
X002490Y018519D01*
X002490Y018841D01*
X002367Y019139D01*
X002139Y019367D01*
X001841Y019490D01*
X001519Y019490D01*
X001221Y019367D01*
X000993Y019139D01*
X000870Y018841D01*
X000870Y018519D01*
X000993Y018221D01*
X001221Y017993D01*
X001519Y017870D01*
X001841Y017870D01*
X002139Y017993D01*
X002236Y018091D02*
X034124Y018091D01*
X034221Y017993D02*
X034519Y017870D01*
X034841Y017870D01*
X035139Y017993D01*
X035367Y018221D01*
X035490Y018519D01*
X035490Y018841D01*
X035367Y019139D01*
X035139Y019367D01*
X034841Y019490D01*
X034519Y019490D01*
X034221Y019367D01*
X033993Y019139D01*
X033870Y018841D01*
X033870Y018519D01*
X033993Y018221D01*
X034221Y017993D01*
X034369Y017932D02*
X032561Y017932D01*
X032773Y017774D02*
X035827Y017774D01*
X035827Y017932D02*
X034991Y017932D01*
X035236Y018091D02*
X035827Y018091D01*
X035827Y018249D02*
X035378Y018249D01*
X035444Y018408D02*
X035827Y018408D01*
X035827Y018566D02*
X035490Y018566D01*
X035490Y018725D02*
X035827Y018725D01*
X035827Y018883D02*
X035473Y018883D01*
X035407Y019042D02*
X035827Y019042D01*
X035827Y019200D02*
X035305Y019200D01*
X035147Y019359D02*
X035827Y019359D01*
X035827Y019517D02*
X000360Y019517D01*
X000360Y019359D02*
X001213Y019359D01*
X001055Y019200D02*
X000360Y019200D01*
X000360Y019042D02*
X000953Y019042D01*
X000887Y018883D02*
X000360Y018883D01*
X000360Y018725D02*
X000870Y018725D01*
X000870Y018566D02*
X000360Y018566D01*
X000360Y018408D02*
X000916Y018408D01*
X000982Y018249D02*
X000360Y018249D01*
X000360Y018091D02*
X001124Y018091D01*
X001369Y017932D02*
X000360Y017932D01*
X000360Y017774D02*
X002674Y017774D01*
X003387Y017298D02*
X003487Y017298D01*
X004400Y016506D02*
X004443Y016506D01*
X002426Y015872D02*
X001934Y015872D01*
X002077Y016030D02*
X002283Y016030D01*
X001426Y015872D02*
X001150Y015872D01*
X001150Y016030D02*
X001283Y016030D01*
X001283Y016189D02*
X001150Y016189D01*
X001150Y016347D02*
X001285Y016347D01*
X002378Y018249D02*
X033982Y018249D01*
X033916Y018408D02*
X002444Y018408D01*
X002490Y018566D02*
X033870Y018566D01*
X033870Y018725D02*
X002490Y018725D01*
X002473Y018883D02*
X033887Y018883D01*
X033953Y019042D02*
X002407Y019042D01*
X002305Y019200D02*
X034055Y019200D01*
X034213Y019359D02*
X002147Y019359D01*
X000360Y019676D02*
X035827Y019676D01*
X035827Y019685D02*
X000360Y019685D01*
X000360Y000360D01*
X035827Y000360D01*
X035827Y019685D01*
X035827Y017615D02*
X032900Y017615D01*
X032900Y017457D02*
X035827Y017457D01*
X035827Y017298D02*
X032900Y017298D01*
X032900Y017140D02*
X035827Y017140D01*
X035827Y016981D02*
X032900Y016981D01*
X032900Y016823D02*
X035827Y016823D01*
X035827Y016664D02*
X032900Y016664D01*
X032917Y016506D02*
X035827Y016506D01*
X035827Y016347D02*
X033075Y016347D01*
X033077Y016189D02*
X035827Y016189D01*
X035827Y016030D02*
X033077Y016030D01*
X032934Y015872D02*
X035827Y015872D01*
X035827Y015713D02*
X032900Y015713D01*
X032900Y015555D02*
X035827Y015555D01*
X035827Y015396D02*
X032900Y015396D01*
X032900Y015238D02*
X035827Y015238D01*
X035827Y015079D02*
X032890Y015079D01*
X032732Y014921D02*
X035827Y014921D01*
X035827Y014762D02*
X032573Y014762D01*
X032415Y014604D02*
X035827Y014604D01*
X035827Y014445D02*
X025400Y014445D01*
X025400Y014287D02*
X035827Y014287D01*
X035827Y014128D02*
X025400Y014128D01*
X025400Y013970D02*
X035827Y013970D01*
X035827Y013811D02*
X025400Y013811D01*
X025400Y013653D02*
X035827Y013653D01*
X035827Y013494D02*
X025400Y013494D01*
X025400Y013336D02*
X035827Y013336D01*
X035827Y013177D02*
X025400Y013177D01*
X025400Y013019D02*
X035827Y013019D01*
X035827Y012543D02*
X026628Y012543D01*
X026771Y012400D02*
X026771Y012400D01*
X026787Y012385D02*
X035827Y012385D01*
X035827Y012226D02*
X026900Y012226D01*
X026900Y012068D02*
X035827Y012068D01*
X035827Y011909D02*
X026900Y011909D01*
X026900Y011751D02*
X035827Y011751D01*
X035827Y011592D02*
X026900Y011592D01*
X026989Y011434D02*
X027371Y011434D01*
X027283Y011275D02*
X027077Y011275D01*
X028900Y010800D02*
X029498Y010800D01*
X029340Y010958D02*
X029020Y010958D01*
X029077Y011117D02*
X029283Y011117D01*
X029283Y011275D02*
X029077Y011275D01*
X028989Y011434D02*
X029371Y011434D01*
X029989Y011434D02*
X030371Y011434D01*
X030283Y011345D02*
X030283Y011015D01*
X030515Y010783D01*
X030845Y010783D01*
X031077Y011015D01*
X031077Y011345D01*
X030845Y011577D01*
X030515Y011577D01*
X030283Y011345D01*
X030283Y011275D02*
X030077Y011275D01*
X030112Y011117D02*
X030283Y011117D01*
X030270Y010958D02*
X030340Y010958D01*
X030429Y010800D02*
X030498Y010800D01*
X030587Y010641D02*
X035827Y010641D01*
X035827Y010483D02*
X030746Y010483D01*
X030904Y010324D02*
X035827Y010324D01*
X035827Y010166D02*
X031404Y010166D01*
X031404Y010007D02*
X035827Y010007D01*
X035827Y009849D02*
X031404Y009849D01*
X030988Y009929D02*
X029737Y011180D01*
X029680Y011180D01*
X029965Y010641D02*
X028900Y010641D01*
X028900Y010483D02*
X030123Y010483D01*
X030282Y010324D02*
X028904Y010324D01*
X028572Y010007D02*
X025453Y010007D01*
X024907Y010007D02*
X023404Y010007D01*
X023404Y009849D02*
X027745Y009849D01*
X028499Y009849D02*
X028572Y009849D01*
X028988Y009181D02*
X027987Y008180D01*
X024180Y008180D01*
X023680Y007680D01*
X023680Y006680D01*
X025197Y005886D02*
X025783Y005886D01*
X025783Y006045D02*
X025356Y006045D01*
X025400Y006203D02*
X025783Y006203D01*
X025783Y006362D02*
X025400Y006362D01*
X025400Y006520D02*
X025784Y006520D01*
X025831Y005728D02*
X025039Y005728D01*
X024880Y005569D02*
X025995Y005569D01*
X025180Y005180D02*
X022180Y002180D01*
X013180Y002180D01*
X012930Y002430D01*
X012930Y003055D01*
X012811Y003350D02*
X010411Y003350D01*
X010525Y003509D02*
X015543Y003509D01*
X015543Y003350D02*
X013049Y003350D01*
X013218Y003192D02*
X015589Y003192D01*
X016156Y003192D02*
X016156Y003192D01*
X016156Y003132D02*
X016613Y003132D01*
X016659Y003144D01*
X016700Y003168D01*
X016733Y003201D01*
X016757Y003242D01*
X016769Y003288D01*
X016724Y003192D02*
X017232Y003192D01*
X017391Y003033D02*
X013248Y003033D01*
X013199Y002875D02*
X017549Y002875D01*
X016769Y003430D02*
X016156Y003430D01*
X016156Y003132D01*
X016156Y003350D02*
X016156Y003350D01*
X016156Y003430D02*
X016156Y003430D01*
X015588Y003667D02*
X013117Y003667D01*
X013231Y003826D02*
X014723Y003826D01*
X014565Y003984D02*
X013295Y003984D01*
X013400Y004143D02*
X014406Y004143D01*
X014248Y004301D02*
X013400Y004301D01*
X013400Y004460D02*
X014089Y004460D01*
X013960Y004618D02*
X013400Y004618D01*
X013400Y004777D02*
X013960Y004777D01*
X013960Y004935D02*
X013400Y004935D01*
X013400Y005094D02*
X013960Y005094D01*
X013951Y005252D02*
X013960Y005252D01*
X013680Y005430D02*
X013680Y006680D01*
X012988Y007372D01*
X012988Y009181D01*
X012572Y009215D02*
X007404Y009215D01*
X007404Y009373D02*
X009588Y009373D01*
X009549Y009412D02*
X009631Y009330D01*
X010180Y009330D01*
X010262Y009412D01*
X010262Y010198D01*
X010180Y010280D01*
X009631Y010280D01*
X009549Y010198D01*
X009549Y010025D01*
X009410Y010025D01*
X009360Y010075D01*
X009243Y010123D01*
X009117Y010123D01*
X009000Y010075D01*
X008910Y009985D01*
X008862Y009868D01*
X008862Y009742D01*
X008910Y009625D01*
X009000Y009535D01*
X009117Y009487D01*
X009243Y009487D01*
X009360Y009535D01*
X009410Y009585D01*
X009549Y009585D01*
X009549Y009412D01*
X009549Y009532D02*
X009351Y009532D01*
X009180Y009805D02*
X009905Y009805D01*
X010262Y009849D02*
X010848Y009849D01*
X010848Y010007D02*
X010262Y010007D01*
X010262Y010166D02*
X010848Y010166D01*
X010985Y010324D02*
X006904Y010324D01*
X006962Y010266D02*
X006578Y010650D01*
X006271Y010650D01*
X005992Y010930D01*
X006077Y011015D01*
X006077Y011345D01*
X005845Y011577D01*
X005515Y011577D01*
X005283Y011345D01*
X005283Y011015D01*
X005515Y010783D01*
X005516Y010783D01*
X005960Y010339D01*
X006089Y010210D01*
X006396Y010210D01*
X006572Y010033D01*
X006572Y009674D01*
X006654Y009592D01*
X007322Y009592D01*
X007404Y009674D01*
X007404Y010184D01*
X007322Y010266D01*
X006962Y010266D01*
X006746Y010483D02*
X010985Y010483D01*
X010985Y010641D02*
X006587Y010641D01*
X006515Y010783D02*
X006845Y010783D01*
X007077Y011015D01*
X007077Y011345D01*
X006845Y011577D01*
X006515Y011577D01*
X006283Y011345D01*
X006283Y011015D01*
X006515Y010783D01*
X006498Y010800D02*
X006122Y010800D01*
X006020Y010958D02*
X006340Y010958D01*
X006283Y011117D02*
X006077Y011117D01*
X006077Y011275D02*
X006283Y011275D01*
X006371Y011434D02*
X005989Y011434D01*
X005680Y011180D02*
X005680Y010930D01*
X006180Y010430D01*
X006487Y010430D01*
X006988Y009929D01*
X006572Y010007D02*
X005404Y010007D01*
X005404Y009849D02*
X005745Y009849D01*
X005404Y010166D02*
X006440Y010166D01*
X006499Y009849D02*
X006572Y009849D01*
X006572Y009690D02*
X006538Y009690D01*
X006538Y009532D02*
X009009Y009532D01*
X008883Y009690D02*
X007404Y009690D01*
X007404Y009849D02*
X008862Y009849D01*
X008932Y010007D02*
X007404Y010007D01*
X007404Y010166D02*
X009549Y010166D01*
X010262Y009690D02*
X010848Y009690D01*
X010848Y009532D02*
X010262Y009532D01*
X010223Y009373D02*
X010887Y009373D01*
X011522Y009373D02*
X011706Y009373D01*
X011706Y009532D02*
X011561Y009532D01*
X011561Y009690D02*
X011706Y009690D01*
X011745Y009849D02*
X011561Y009849D01*
X011561Y010007D02*
X011902Y010007D01*
X011902Y010166D02*
X011561Y010166D01*
X011425Y010324D02*
X011902Y010324D01*
X011902Y010483D02*
X011425Y010483D01*
X011452Y010641D02*
X011902Y010641D01*
X011862Y010800D02*
X011960Y010800D01*
X011680Y011180D02*
X011205Y010705D01*
X011205Y009805D01*
X011774Y008898D02*
X012601Y008898D01*
X012572Y009056D02*
X007404Y009056D01*
X007375Y008898D02*
X008086Y008898D01*
X007960Y008771D02*
X007960Y008771D01*
X007928Y008739D02*
X007208Y008739D01*
X007346Y008581D02*
X007769Y008581D01*
X007611Y008422D02*
X007476Y008422D01*
X007180Y008305D02*
X006988Y008497D01*
X006988Y009181D01*
X006572Y009215D02*
X005957Y009215D01*
X006115Y009056D02*
X006572Y009056D01*
X006601Y008898D02*
X006274Y008898D01*
X006432Y008739D02*
X006768Y008739D01*
X006768Y008581D02*
X006591Y008581D01*
X006749Y008422D02*
X006768Y008422D01*
X007180Y007680D02*
X005679Y009181D01*
X004988Y009181D01*
X004122Y009555D02*
X006122Y009555D01*
X006538Y009373D02*
X006572Y009373D01*
X008180Y008680D02*
X011680Y008680D01*
X012180Y008180D01*
X012396Y007947D02*
X012768Y007947D01*
X012768Y008105D02*
X012493Y008105D01*
X012490Y008264D02*
X012768Y008264D01*
X012768Y008422D02*
X012388Y008422D01*
X012091Y008581D02*
X012768Y008581D01*
X012768Y008739D02*
X011932Y008739D01*
X011627Y008422D02*
X008233Y008422D01*
X008075Y008264D02*
X011785Y008264D01*
X011867Y008105D02*
X011691Y008105D01*
X011850Y007947D02*
X011964Y007947D01*
X012008Y007788D02*
X012768Y007788D01*
X012768Y007630D02*
X012167Y007630D01*
X012325Y007471D02*
X012768Y007471D01*
X012768Y007313D02*
X012400Y007313D01*
X012400Y007154D02*
X012895Y007154D01*
X013053Y006996D02*
X012400Y006996D01*
X012400Y006837D02*
X013212Y006837D01*
X012979Y006679D02*
X012400Y006679D01*
X012400Y006520D02*
X012873Y006520D01*
X012864Y006362D02*
X012400Y006362D01*
X012400Y006203D02*
X012957Y006203D01*
X012960Y006045D02*
X012400Y006045D01*
X012400Y005886D02*
X012960Y005886D01*
X012960Y005728D02*
X012400Y005728D01*
X012400Y005569D02*
X012960Y005569D01*
X012960Y005411D02*
X012400Y005411D01*
X012400Y005252D02*
X012960Y005252D01*
X012960Y005094D02*
X012400Y005094D01*
X012400Y004935D02*
X012960Y004935D01*
X012960Y004777D02*
X012400Y004777D01*
X012400Y004618D02*
X012960Y004618D01*
X012960Y004460D02*
X012400Y004460D01*
X012474Y004301D02*
X012960Y004301D01*
X013180Y004180D02*
X012930Y003930D01*
X012693Y004143D02*
X012498Y004143D01*
X012434Y003984D02*
X012612Y003984D01*
X012629Y003826D02*
X010525Y003826D01*
X010525Y003984D02*
X011926Y003984D01*
X011862Y004143D02*
X010525Y004143D01*
X010525Y004301D02*
X011134Y004301D01*
X011603Y004460D02*
X011960Y004460D01*
X011960Y004618D02*
X011603Y004618D01*
X011603Y004777D02*
X011960Y004777D01*
X011960Y004935D02*
X011603Y004935D01*
X011603Y005094D02*
X011960Y005094D01*
X011960Y005252D02*
X011603Y005252D01*
X010560Y005411D02*
X010550Y005411D01*
X010060Y005411D02*
X010050Y005411D01*
X009560Y005411D02*
X009550Y005411D01*
X009305Y004906D02*
X009305Y003680D01*
X009032Y003509D02*
X009025Y003509D01*
X009079Y003350D02*
X009789Y003350D01*
X009630Y003192D02*
X009123Y003192D01*
X009088Y003033D02*
X009472Y003033D01*
X009313Y002875D02*
X008899Y002875D01*
X008711Y002875D02*
X005172Y002875D01*
X005013Y003033D02*
X008522Y003033D01*
X008487Y003192D02*
X004900Y003192D01*
X004900Y003350D02*
X004969Y003350D01*
X004932Y003509D02*
X004928Y003509D01*
X004928Y003667D02*
X004932Y003667D01*
X004928Y003826D02*
X004932Y003826D01*
X004928Y003984D02*
X004932Y003984D01*
X004928Y004143D02*
X004932Y004143D01*
X004432Y004143D02*
X004428Y004143D01*
X004428Y003984D02*
X004432Y003984D01*
X004428Y003826D02*
X004432Y003826D01*
X004428Y003667D02*
X004432Y003667D01*
X004428Y003509D02*
X004432Y003509D01*
X004460Y003350D02*
X004400Y003350D01*
X004400Y003192D02*
X004460Y003192D01*
X004460Y003033D02*
X004400Y003033D01*
X004400Y002875D02*
X004549Y002875D01*
X004400Y002716D02*
X004708Y002716D01*
X004866Y002558D02*
X004472Y002558D01*
X004498Y002399D02*
X005025Y002399D01*
X005183Y002241D02*
X004440Y002241D01*
X004180Y002430D02*
X004180Y003790D01*
X003932Y003826D02*
X003928Y003826D01*
X003928Y003984D02*
X003932Y003984D01*
X003928Y004143D02*
X003932Y004143D01*
X003432Y004143D02*
X003428Y004143D01*
X003428Y003984D02*
X003432Y003984D01*
X003428Y003826D02*
X003432Y003826D01*
X003428Y003667D02*
X003432Y003667D01*
X003428Y003509D02*
X003432Y003509D01*
X003454Y003350D02*
X003460Y003350D01*
X003180Y003180D02*
X003180Y003790D01*
X002932Y003667D02*
X002928Y003667D01*
X002928Y003509D02*
X002932Y003509D01*
X002906Y003350D02*
X002891Y003350D01*
X002862Y003192D02*
X000360Y003192D01*
X000360Y003350D02*
X001469Y003350D01*
X001432Y003509D02*
X000360Y003509D01*
X000360Y003667D02*
X001432Y003667D01*
X001432Y003826D02*
X000360Y003826D01*
X000360Y003984D02*
X001432Y003984D01*
X001432Y004143D02*
X000360Y004143D01*
X000360Y004301D02*
X001460Y004301D01*
X001460Y004460D02*
X000360Y004460D01*
X000360Y004618D02*
X001460Y004618D01*
X001460Y004777D02*
X000360Y004777D01*
X000360Y004935D02*
X001460Y004935D01*
X001372Y005094D02*
X000360Y005094D01*
X000360Y005252D02*
X001366Y005252D01*
X001461Y005411D02*
X000360Y005411D01*
X000360Y005569D02*
X001882Y005569D01*
X001899Y005411D02*
X001960Y005411D01*
X001680Y005180D02*
X001680Y003790D01*
X001928Y003826D02*
X001932Y003826D01*
X001928Y003984D02*
X001932Y003984D01*
X001928Y004143D02*
X001932Y004143D01*
X001960Y004301D02*
X001900Y004301D01*
X001900Y004460D02*
X001960Y004460D01*
X001960Y004618D02*
X001900Y004618D01*
X001900Y004777D02*
X001960Y004777D01*
X001960Y004935D02*
X001900Y004935D01*
X002400Y004935D02*
X002485Y004935D01*
X002400Y005094D02*
X005455Y005094D01*
X005297Y005252D02*
X002400Y005252D01*
X002400Y005411D02*
X005000Y005411D01*
X005614Y004935D02*
X002875Y004935D01*
X002984Y004777D02*
X005772Y004777D01*
X005812Y004315D02*
X005680Y004315D01*
X005548Y004315D01*
X005502Y004302D01*
X005680Y004301D02*
X005680Y004301D01*
X005680Y004315D02*
X005680Y003790D01*
X005968Y003790D01*
X005968Y004158D01*
X005956Y004204D01*
X005932Y004245D01*
X005899Y004279D01*
X005858Y004302D01*
X005812Y004315D01*
X005860Y004301D02*
X008585Y004301D01*
X008585Y004143D02*
X005968Y004143D01*
X005968Y003984D02*
X008585Y003984D01*
X008585Y003826D02*
X005968Y003826D01*
X005968Y003667D02*
X008585Y003667D01*
X008585Y003509D02*
X005968Y003509D01*
X005941Y003350D02*
X008531Y003350D01*
X008805Y003180D02*
X008805Y004906D01*
X009805Y004906D02*
X009805Y003680D01*
X010305Y003555D02*
X010305Y004906D01*
X009683Y005886D02*
X009400Y005886D01*
X009400Y006045D02*
X009517Y006045D01*
X009487Y006203D02*
X009400Y006203D01*
X009400Y006362D02*
X009537Y006362D01*
X008805Y006954D02*
X008805Y007805D01*
X009123Y007788D02*
X010085Y007788D01*
X010085Y007630D02*
X009077Y007630D01*
X009073Y007471D02*
X009037Y007471D01*
X009091Y007947D02*
X010085Y007947D01*
X010169Y008105D02*
X008912Y008105D01*
X008698Y008105D02*
X008412Y008105D01*
X008198Y008105D02*
X007916Y008105D01*
X008019Y007947D02*
X007758Y007947D01*
X007599Y007788D02*
X007987Y007788D01*
X008033Y007630D02*
X007441Y007630D01*
X007573Y007471D02*
X007282Y007471D01*
X007359Y007313D02*
X007547Y007313D01*
X008037Y007471D02*
X008073Y007471D01*
X008305Y007805D02*
X008305Y006954D01*
X009537Y007471D02*
X009573Y007471D01*
X010037Y007471D02*
X010073Y007471D01*
X008180Y008680D02*
X007180Y007680D01*
X004180Y008180D02*
X003680Y008680D01*
X003448Y008898D02*
X002900Y008898D01*
X002900Y009056D02*
X003960Y009056D01*
X003960Y008898D02*
X003912Y008898D01*
X003960Y009215D02*
X002900Y009215D01*
X003272Y009373D02*
X003706Y009373D01*
X003706Y009532D02*
X003311Y009532D01*
X003311Y009690D02*
X003706Y009690D01*
X004988Y009929D02*
X004988Y010872D01*
X004680Y011180D01*
X004989Y011434D02*
X005371Y011434D01*
X005283Y011275D02*
X005077Y011275D01*
X005077Y011117D02*
X005283Y011117D01*
X005340Y010958D02*
X005208Y010958D01*
X005208Y010800D02*
X005498Y010800D01*
X005658Y010641D02*
X005208Y010641D01*
X005208Y010483D02*
X005816Y010483D01*
X005975Y010324D02*
X005208Y010324D01*
X003960Y010641D02*
X003498Y010641D01*
X003498Y010800D02*
X003475Y010800D01*
X003432Y010483D02*
X003921Y010483D01*
X003960Y010800D02*
X003862Y010800D01*
X003960Y011592D02*
X003400Y011592D01*
X003400Y011751D02*
X003960Y011751D01*
X004098Y011909D02*
X003400Y011909D01*
X003400Y012068D02*
X004256Y012068D01*
X004415Y012226D02*
X003400Y012226D01*
X003400Y012385D02*
X004573Y012385D01*
X004720Y011909D02*
X007460Y011909D01*
X007460Y011751D02*
X004562Y011751D01*
X004403Y011592D02*
X007460Y011592D01*
X007371Y011434D02*
X006989Y011434D01*
X007077Y011275D02*
X007283Y011275D01*
X007283Y011117D02*
X007077Y011117D01*
X007020Y010958D02*
X007340Y010958D01*
X007498Y010800D02*
X006862Y010800D01*
X007680Y011180D02*
X007680Y012180D01*
X008180Y012680D01*
X008468Y012543D02*
X009892Y012543D01*
X009862Y012702D02*
X008498Y012702D01*
X008450Y012860D02*
X008360Y012950D01*
X008335Y012960D01*
X010025Y012960D01*
X010000Y012950D01*
X009910Y012860D01*
X010180Y012680D02*
X010680Y012180D01*
X010680Y011180D01*
X011077Y011117D02*
X011283Y011117D01*
X011283Y011275D02*
X011077Y011275D01*
X010989Y011434D02*
X011371Y011434D01*
X010900Y011592D02*
X011960Y011592D01*
X011960Y011751D02*
X010900Y011751D01*
X010900Y011909D02*
X012098Y011909D01*
X012680Y012180D02*
X015180Y012180D01*
X016180Y013180D01*
X018180Y013180D01*
X019180Y012180D01*
X019680Y012180D01*
X020180Y011680D01*
X020180Y010555D01*
X019930Y010305D01*
X019930Y009747D01*
X020122Y009555D01*
X022122Y009555D01*
X022499Y009849D02*
X022572Y009849D01*
X022542Y010007D02*
X021404Y010007D01*
X021404Y009849D02*
X021745Y009849D01*
X021404Y010166D02*
X022383Y010166D01*
X022225Y010324D02*
X021208Y010324D01*
X021208Y010483D02*
X022066Y010483D01*
X021908Y010641D02*
X021208Y010641D01*
X021208Y010800D02*
X021498Y010800D01*
X021340Y010958D02*
X021208Y010958D01*
X021283Y011117D02*
X021077Y011117D01*
X021077Y011275D02*
X021283Y011275D01*
X021371Y011434D02*
X020989Y011434D01*
X020680Y011180D02*
X020988Y010872D01*
X020988Y009929D01*
X020988Y009181D02*
X019181Y009181D01*
X019180Y009180D01*
X018705Y009805D02*
X018705Y011155D01*
X018680Y011180D01*
X018680Y012180D01*
X018180Y012680D01*
X018653Y013019D02*
X024960Y013019D01*
X024960Y013177D02*
X018494Y013177D01*
X018336Y013336D02*
X024960Y013336D01*
X024960Y013494D02*
X004305Y013494D01*
X004147Y013336D02*
X008024Y013336D01*
X007866Y013177D02*
X003988Y013177D01*
X003830Y013019D02*
X007707Y013019D01*
X007549Y012860D02*
X003671Y012860D01*
X003513Y012702D02*
X007390Y012702D01*
X007232Y012543D02*
X003400Y012543D01*
X004464Y013653D02*
X024960Y013653D01*
X024960Y013811D02*
X004622Y013811D01*
X007379Y012068D02*
X007460Y012068D01*
X007900Y012068D02*
X010460Y012068D01*
X010460Y011909D02*
X007900Y011909D01*
X007900Y011751D02*
X010460Y011751D01*
X010460Y011592D02*
X007900Y011592D01*
X007989Y011434D02*
X008371Y011434D01*
X008283Y011345D02*
X008515Y011577D01*
X008845Y011577D01*
X009077Y011345D01*
X009077Y011015D01*
X008845Y010783D01*
X008515Y010783D01*
X008283Y011015D01*
X008283Y011345D01*
X008283Y011275D02*
X008077Y011275D01*
X008077Y011117D02*
X008283Y011117D01*
X008340Y010958D02*
X008020Y010958D01*
X007862Y010800D02*
X008498Y010800D01*
X008862Y010800D02*
X009348Y010800D01*
X009365Y010783D02*
X009995Y010783D01*
X010077Y010865D01*
X010077Y011495D01*
X009995Y011577D01*
X009365Y011577D01*
X009283Y011495D01*
X009283Y010865D01*
X009365Y010783D01*
X009283Y010958D02*
X009020Y010958D01*
X009077Y011117D02*
X009283Y011117D01*
X009283Y011275D02*
X009077Y011275D01*
X008989Y011434D02*
X009283Y011434D01*
X010077Y011434D02*
X010371Y011434D01*
X010283Y011275D02*
X010077Y011275D01*
X010077Y011117D02*
X010283Y011117D01*
X010340Y010958D02*
X010077Y010958D01*
X010012Y010800D02*
X010498Y010800D01*
X010862Y010800D02*
X010988Y010800D01*
X011020Y010958D02*
X011147Y010958D01*
X012680Y011180D02*
X012680Y010237D01*
X012988Y009929D01*
X013680Y011180D02*
X013737Y011180D01*
X014988Y009929D01*
X016180Y009680D02*
X017280Y009680D01*
X017405Y009805D01*
X015680Y011180D02*
X015680Y012180D01*
X016180Y012680D01*
X015707Y013019D02*
X010653Y013019D01*
X010494Y013177D02*
X015866Y013177D01*
X016024Y013336D02*
X010336Y013336D01*
X010811Y012860D02*
X015549Y012860D01*
X015390Y012702D02*
X010970Y012702D01*
X011128Y012543D02*
X015232Y012543D01*
X016281Y013970D02*
X024960Y013970D01*
X024960Y014128D02*
X016400Y014128D01*
X018811Y012860D02*
X023910Y012860D01*
X023862Y012743D01*
X023862Y012673D01*
X023460Y012271D01*
X023460Y011522D01*
X023283Y011345D01*
X023283Y011015D01*
X023515Y010783D01*
X023845Y010783D01*
X024077Y011015D01*
X024077Y011345D01*
X023900Y011522D01*
X023900Y012089D01*
X024173Y012362D01*
X024243Y012362D01*
X024360Y012410D01*
X024450Y012500D01*
X024498Y012617D01*
X024498Y012743D01*
X024450Y012860D01*
X024960Y012860D01*
X024960Y012702D02*
X024498Y012702D01*
X024468Y012543D02*
X024960Y012543D01*
X024960Y012385D02*
X024298Y012385D01*
X024037Y012226D02*
X024960Y012226D01*
X024960Y012068D02*
X023900Y012068D01*
X023900Y011909D02*
X024960Y011909D01*
X024960Y011751D02*
X023900Y011751D01*
X023900Y011592D02*
X024960Y011592D01*
X024371Y011434D02*
X023989Y011434D01*
X024077Y011275D02*
X024283Y011275D01*
X024283Y011117D02*
X024077Y011117D01*
X024020Y010958D02*
X024340Y010958D01*
X024498Y010800D02*
X023862Y010800D01*
X023498Y010800D02*
X022862Y010800D01*
X022845Y010783D02*
X023077Y011015D01*
X023077Y011345D01*
X022845Y011577D01*
X022515Y011577D01*
X022283Y011345D01*
X022283Y011015D01*
X022515Y010783D01*
X022845Y010783D01*
X023020Y010958D02*
X023340Y010958D01*
X023283Y011117D02*
X023077Y011117D01*
X023077Y011275D02*
X023283Y011275D01*
X023371Y011434D02*
X022989Y011434D01*
X023460Y011592D02*
X020400Y011592D01*
X020400Y011751D02*
X023460Y011751D01*
X023460Y011909D02*
X020262Y011909D01*
X020104Y012068D02*
X023460Y012068D01*
X023460Y012226D02*
X019945Y012226D01*
X019787Y012385D02*
X023573Y012385D01*
X023732Y012543D02*
X019128Y012543D01*
X018970Y012702D02*
X023862Y012702D01*
X023910Y012860D02*
X024000Y012950D01*
X024117Y012998D01*
X024243Y012998D01*
X024360Y012950D01*
X024450Y012860D01*
X024180Y012680D02*
X023680Y012180D01*
X023680Y011180D01*
X022689Y010483D02*
X024960Y010483D01*
X024960Y010641D02*
X022530Y010641D01*
X022498Y010800D02*
X022372Y010800D01*
X022340Y010958D02*
X022213Y010958D01*
X022283Y011117D02*
X022077Y011117D01*
X022077Y011275D02*
X022283Y011275D01*
X022371Y011434D02*
X021989Y011434D01*
X021680Y011180D02*
X022931Y009929D01*
X022988Y009929D01*
X023404Y010166D02*
X024862Y010166D01*
X024895Y010324D02*
X022847Y010324D01*
X024862Y010800D02*
X024960Y010800D01*
X023680Y009180D02*
X022989Y009180D01*
X022988Y009181D01*
X019180Y006680D02*
X018930Y006430D01*
X018204Y006430D01*
X018204Y005930D02*
X019680Y005930D01*
X019927Y005728D02*
X019960Y005728D01*
X017210Y004143D02*
X016693Y004143D01*
X016156Y003930D02*
X014930Y003930D01*
X013180Y004180D02*
X013180Y006430D01*
X013400Y005252D02*
X013409Y005252D01*
X012743Y003667D02*
X010525Y003667D01*
X010305Y003555D02*
X009180Y002430D01*
X005305Y002430D01*
X004680Y003055D01*
X004680Y003790D01*
X003932Y003667D02*
X003928Y003667D01*
X003928Y003509D02*
X003932Y003509D01*
X003960Y003350D02*
X003900Y003350D01*
X003900Y003192D02*
X003960Y003192D01*
X003960Y003033D02*
X003902Y003033D01*
X003364Y002875D02*
X003274Y002875D01*
X003373Y002716D02*
X000360Y002716D01*
X000360Y002558D02*
X003478Y002558D01*
X003680Y002805D02*
X003680Y003790D01*
X002897Y003033D02*
X000360Y003033D01*
X000360Y002875D02*
X003086Y002875D01*
X002469Y003350D02*
X002391Y003350D01*
X002428Y003509D02*
X002432Y003509D01*
X002428Y003667D02*
X002432Y003667D01*
X001932Y003667D02*
X001928Y003667D01*
X001928Y003509D02*
X001932Y003509D01*
X001969Y003350D02*
X001891Y003350D01*
X001841Y002490D02*
X001519Y002490D01*
X001221Y002367D01*
X000993Y002139D01*
X000870Y001841D01*
X000870Y001519D01*
X000993Y001221D01*
X001221Y000993D01*
X001519Y000870D01*
X001841Y000870D01*
X002139Y000993D01*
X002367Y001221D01*
X002490Y001519D01*
X002490Y001841D01*
X002367Y002139D01*
X002139Y002367D01*
X001841Y002490D01*
X002061Y002399D02*
X003862Y002399D01*
X003882Y002558D02*
X003888Y002558D01*
X003920Y002241D02*
X002265Y002241D01*
X002390Y002082D02*
X012967Y002082D01*
X012808Y002241D02*
X009302Y002241D01*
X009460Y002399D02*
X012710Y002399D01*
X012710Y002558D02*
X009619Y002558D01*
X009777Y002716D02*
X012710Y002716D01*
X012661Y002875D02*
X009936Y002875D01*
X010094Y003033D02*
X012612Y003033D01*
X012642Y003192D02*
X010253Y003192D01*
X009155Y002716D02*
X005330Y002716D01*
X005391Y003350D02*
X005419Y003350D01*
X005680Y003350D02*
X005680Y003350D01*
X005680Y003509D02*
X005680Y003509D01*
X005680Y003667D02*
X005680Y003667D01*
X005680Y003790D02*
X005680Y004315D01*
X005680Y004143D02*
X005680Y004143D01*
X005680Y003984D02*
X005680Y003984D01*
X005680Y003826D02*
X005680Y003826D01*
X005680Y003790D02*
X005680Y003790D01*
X002456Y001924D02*
X033904Y001924D01*
X033870Y001841D02*
X033870Y001519D01*
X033993Y001221D01*
X034221Y000993D01*
X034519Y000870D01*
X034841Y000870D01*
X035139Y000993D01*
X035367Y001221D01*
X035490Y001519D01*
X035490Y001841D01*
X035367Y002139D01*
X035139Y002367D01*
X034841Y002490D01*
X034519Y002490D01*
X034221Y002367D01*
X033993Y002139D01*
X033870Y001841D01*
X033870Y001765D02*
X002490Y001765D01*
X002490Y001607D02*
X033870Y001607D01*
X033899Y001448D02*
X002461Y001448D01*
X002395Y001290D02*
X033965Y001290D01*
X034084Y001131D02*
X002276Y001131D01*
X002088Y000973D02*
X034272Y000973D01*
X035088Y000973D02*
X035827Y000973D01*
X035827Y001131D02*
X035276Y001131D01*
X035395Y001290D02*
X035827Y001290D01*
X035827Y001448D02*
X035461Y001448D01*
X035490Y001607D02*
X035827Y001607D01*
X035827Y001765D02*
X035490Y001765D01*
X035456Y001924D02*
X035827Y001924D01*
X035827Y002082D02*
X035390Y002082D01*
X035265Y002241D02*
X035827Y002241D01*
X035827Y002399D02*
X035061Y002399D01*
X034299Y002399D02*
X022710Y002399D01*
X022552Y002241D02*
X034095Y002241D01*
X033970Y002082D02*
X022393Y002082D01*
X022246Y002558D02*
X013150Y002558D01*
X013150Y002716D02*
X022405Y002716D01*
X022869Y002558D02*
X035827Y002558D01*
X035827Y002716D02*
X023027Y002716D01*
X023186Y002875D02*
X035827Y002875D01*
X035827Y003033D02*
X023344Y003033D01*
X023503Y003192D02*
X024283Y003192D01*
X024039Y003350D02*
X023661Y003350D01*
X023820Y003509D02*
X023949Y003509D01*
X029807Y006996D02*
X035827Y006996D01*
X035827Y007154D02*
X029965Y007154D01*
X030124Y007313D02*
X035827Y007313D01*
X035827Y007471D02*
X030282Y007471D01*
X030441Y007630D02*
X035827Y007630D01*
X035827Y007788D02*
X030599Y007788D01*
X030758Y007947D02*
X035827Y007947D01*
X035827Y008105D02*
X030916Y008105D01*
X031075Y008264D02*
X035827Y008264D01*
X035827Y008422D02*
X031233Y008422D01*
X030928Y008739D02*
X030857Y008739D01*
X030769Y008581D02*
X030699Y008581D01*
X030611Y008422D02*
X030540Y008422D01*
X030452Y008264D02*
X030382Y008264D01*
X030294Y008105D02*
X030223Y008105D01*
X030135Y007947D02*
X030065Y007947D01*
X029977Y007788D02*
X029906Y007788D01*
X029818Y007630D02*
X029748Y007630D01*
X029660Y007471D02*
X029589Y007471D01*
X031501Y006679D02*
X031859Y006679D01*
X031843Y006663D02*
X031955Y006774D01*
X032101Y006835D01*
X032259Y006835D01*
X032405Y006774D01*
X032517Y006663D01*
X032577Y006517D01*
X032577Y005843D01*
X032517Y005697D01*
X032405Y005586D01*
X032259Y005525D01*
X032101Y005525D01*
X031955Y005586D01*
X031843Y005697D01*
X031783Y005843D01*
X031783Y006517D01*
X031843Y006663D01*
X031784Y006520D02*
X031576Y006520D01*
X031577Y006362D02*
X031783Y006362D01*
X031783Y006203D02*
X031577Y006203D01*
X031577Y006045D02*
X031783Y006045D01*
X031783Y005886D02*
X031577Y005886D01*
X031529Y005728D02*
X031831Y005728D01*
X031995Y005569D02*
X031365Y005569D01*
X032365Y005569D02*
X032995Y005569D01*
X032831Y005728D02*
X032529Y005728D01*
X032577Y005886D02*
X032783Y005886D01*
X032783Y006045D02*
X032577Y006045D01*
X032577Y006203D02*
X032783Y006203D01*
X032783Y006362D02*
X032577Y006362D01*
X032576Y006520D02*
X032784Y006520D01*
X032859Y006679D02*
X032501Y006679D01*
X031892Y008581D02*
X035827Y008581D01*
X035827Y008739D02*
X031900Y008739D01*
X031900Y008898D02*
X035827Y008898D01*
X035827Y009056D02*
X031900Y009056D01*
X031900Y009215D02*
X035827Y009215D01*
X035827Y009373D02*
X031900Y009373D01*
X031900Y009532D02*
X035827Y009532D01*
X035827Y009690D02*
X031856Y009690D01*
X031845Y010783D02*
X031515Y010783D01*
X031283Y011015D01*
X031283Y011345D01*
X031515Y011577D01*
X031845Y011577D01*
X032077Y011345D01*
X032077Y011015D01*
X031845Y010783D01*
X031862Y010800D02*
X032498Y010800D01*
X032515Y010783D02*
X032845Y010783D01*
X033077Y011015D01*
X033077Y011345D01*
X032845Y011577D01*
X032515Y011577D01*
X032283Y011345D01*
X032283Y011015D01*
X032515Y010783D01*
X032340Y010958D02*
X032020Y010958D01*
X032077Y011117D02*
X032283Y011117D01*
X032283Y011275D02*
X032077Y011275D01*
X031989Y011434D02*
X032371Y011434D01*
X032989Y011434D02*
X035827Y011434D01*
X035827Y011275D02*
X033077Y011275D01*
X033077Y011117D02*
X035827Y011117D01*
X035827Y010958D02*
X033020Y010958D01*
X032862Y010800D02*
X035827Y010800D01*
X031498Y010800D02*
X030862Y010800D01*
X031020Y010958D02*
X031340Y010958D01*
X031283Y011117D02*
X031077Y011117D01*
X031077Y011275D02*
X031283Y011275D01*
X031371Y011434D02*
X030989Y011434D01*
X025945Y014604D02*
X025400Y014604D01*
X025400Y014762D02*
X025787Y014762D01*
X025628Y014921D02*
X025400Y014921D01*
X025400Y015079D02*
X025470Y015079D01*
X025460Y015238D02*
X025400Y015238D01*
X025400Y015396D02*
X025460Y015396D01*
X025460Y015555D02*
X025400Y015555D01*
X025400Y015713D02*
X025460Y015713D01*
X025426Y015872D02*
X025400Y015872D01*
X025680Y016180D02*
X025680Y015180D01*
X026180Y014680D01*
X032180Y014680D01*
X032680Y015180D01*
X032680Y016180D01*
X032680Y017555D01*
X032205Y017555D01*
X031848Y017615D02*
X031262Y017615D01*
X031262Y017457D02*
X031848Y017457D01*
X031848Y017298D02*
X031262Y017298D01*
X031239Y017140D02*
X031871Y017140D01*
X032460Y016981D02*
X025400Y016981D01*
X025400Y016823D02*
X032460Y016823D01*
X032460Y016664D02*
X025400Y016664D01*
X025400Y016506D02*
X025443Y016506D01*
X025917Y016506D02*
X026443Y016506D01*
X026515Y016577D02*
X026283Y016345D01*
X026283Y016015D01*
X026515Y015783D01*
X026845Y015783D01*
X027077Y016015D01*
X027077Y016345D01*
X026845Y016577D01*
X026515Y016577D01*
X026285Y016347D02*
X026075Y016347D01*
X026077Y016189D02*
X026283Y016189D01*
X026283Y016030D02*
X026077Y016030D01*
X025934Y015872D02*
X026426Y015872D01*
X026934Y015872D02*
X027426Y015872D01*
X027515Y015783D02*
X027283Y016015D01*
X027283Y016345D01*
X027515Y016577D01*
X027845Y016577D01*
X028077Y016345D01*
X028077Y016015D01*
X027845Y015783D01*
X027515Y015783D01*
X027283Y016030D02*
X027077Y016030D01*
X027077Y016189D02*
X027283Y016189D01*
X027285Y016347D02*
X027075Y016347D01*
X026917Y016506D02*
X027443Y016506D01*
X027917Y016506D02*
X028443Y016506D01*
X028285Y016347D02*
X028075Y016347D01*
X028077Y016189D02*
X028283Y016189D01*
X028283Y016030D02*
X028077Y016030D01*
X027934Y015872D02*
X028426Y015872D01*
X028460Y015713D02*
X025900Y015713D01*
X025900Y015555D02*
X028460Y015555D01*
X028446Y015396D02*
X025900Y015396D01*
X025934Y015238D02*
X028362Y015238D01*
X028378Y015079D02*
X026092Y015079D01*
X026251Y014921D02*
X028490Y014921D01*
X028680Y015180D02*
X028680Y016180D01*
X029077Y016189D02*
X029283Y016189D01*
X029283Y016345D02*
X029283Y016015D01*
X029515Y015783D01*
X029845Y015783D01*
X030077Y016015D01*
X030077Y016345D01*
X029845Y016577D01*
X029515Y016577D01*
X029283Y016345D01*
X029285Y016347D02*
X029075Y016347D01*
X028917Y016506D02*
X029443Y016506D01*
X029917Y016506D02*
X030443Y016506D01*
X030515Y016577D02*
X030283Y016345D01*
X030283Y016015D01*
X030515Y015783D01*
X030845Y015783D01*
X031077Y016015D01*
X031077Y016345D01*
X030845Y016577D01*
X030515Y016577D01*
X030285Y016347D02*
X030075Y016347D01*
X030077Y016189D02*
X030283Y016189D01*
X030283Y016030D02*
X030077Y016030D01*
X029934Y015872D02*
X030426Y015872D01*
X030934Y015872D02*
X031426Y015872D01*
X031515Y015783D02*
X031283Y016015D01*
X031283Y016345D01*
X031515Y016577D01*
X031845Y016577D01*
X032077Y016345D01*
X032077Y016015D01*
X031845Y015783D01*
X031515Y015783D01*
X031283Y016030D02*
X031077Y016030D01*
X031077Y016189D02*
X031283Y016189D01*
X031285Y016347D02*
X031075Y016347D01*
X030917Y016506D02*
X031443Y016506D01*
X031917Y016506D02*
X032443Y016506D01*
X032285Y016347D02*
X032075Y016347D01*
X032077Y016189D02*
X032283Y016189D01*
X032283Y016030D02*
X032077Y016030D01*
X031934Y015872D02*
X032426Y015872D01*
X032460Y015713D02*
X028900Y015713D01*
X028900Y015555D02*
X032460Y015555D01*
X032460Y015396D02*
X028914Y015396D01*
X028998Y015238D02*
X032426Y015238D01*
X032268Y015079D02*
X028982Y015079D01*
X028870Y014921D02*
X032109Y014921D01*
X029426Y015872D02*
X028934Y015872D01*
X029077Y016030D02*
X029283Y016030D01*
X030572Y017140D02*
X025451Y017140D01*
X025609Y017298D02*
X030549Y017298D01*
X031262Y017774D02*
X031848Y017774D01*
X031848Y017932D02*
X031262Y017932D01*
X024960Y015872D02*
X024934Y015872D01*
X024960Y015713D02*
X024900Y015713D01*
X024900Y015555D02*
X024960Y015555D01*
X024960Y015396D02*
X024900Y015396D01*
X024900Y015238D02*
X024960Y015238D01*
X024960Y015079D02*
X024890Y015079D01*
X024960Y014921D02*
X024732Y014921D01*
X024573Y014762D02*
X024960Y014762D01*
X024960Y014604D02*
X024415Y014604D01*
X024426Y015872D02*
X023934Y015872D01*
X024077Y016030D02*
X024283Y016030D01*
X020426Y015872D02*
X019934Y015872D01*
X020077Y016030D02*
X020283Y016030D01*
X019680Y016180D02*
X019680Y017555D01*
X019705Y017555D01*
X013705Y017555D02*
X013680Y017555D01*
X010062Y012385D02*
X008298Y012385D01*
X008037Y012226D02*
X010323Y012226D01*
X010900Y012068D02*
X010981Y012068D01*
X003785Y008264D02*
X002900Y008264D01*
X002900Y008422D02*
X003488Y008422D01*
X003377Y008581D02*
X002900Y008581D01*
X002900Y008739D02*
X003362Y008739D01*
X001932Y007471D02*
X001928Y007471D01*
X001928Y007313D02*
X001932Y007313D01*
X001915Y007154D02*
X001945Y007154D01*
X001936Y005886D02*
X000360Y005886D01*
X000360Y005728D02*
X001862Y005728D01*
X001299Y002399D02*
X000360Y002399D01*
X000360Y002241D02*
X001095Y002241D01*
X000970Y002082D02*
X000360Y002082D01*
X000360Y001924D02*
X000904Y001924D01*
X000870Y001765D02*
X000360Y001765D01*
X000360Y001607D02*
X000870Y001607D01*
X000899Y001448D02*
X000360Y001448D01*
X000360Y001290D02*
X000965Y001290D01*
X001084Y001131D02*
X000360Y001131D01*
X000360Y000973D02*
X001272Y000973D01*
X000360Y000814D02*
X035827Y000814D01*
X035827Y000656D02*
X000360Y000656D01*
X000360Y000497D02*
X035827Y000497D01*
D21*
X023680Y006680D03*
X020680Y008680D03*
X019180Y009180D03*
X019180Y007680D03*
X019180Y006680D03*
X019680Y005930D03*
X017430Y004430D03*
X015180Y004430D03*
X015180Y004930D03*
X015180Y005430D03*
X013680Y005430D03*
X013180Y006430D03*
X015180Y006430D03*
X017180Y007680D03*
X016180Y009680D03*
X012180Y008180D03*
X009180Y009805D03*
X007180Y008305D03*
X008305Y007805D03*
X008805Y007805D03*
X009805Y006180D03*
X008680Y005680D03*
X008305Y005930D03*
X005180Y005680D03*
X005180Y006680D03*
X004180Y006680D03*
X003180Y006680D03*
X002180Y005680D03*
X001680Y005180D03*
X002680Y004680D03*
X003180Y003180D03*
X003680Y002805D03*
X004180Y002430D03*
X007180Y004055D03*
X008805Y003180D03*
X009305Y003680D03*
X009805Y003680D03*
X011305Y004055D03*
X012180Y004180D03*
X012930Y003930D03*
X012930Y003055D03*
X021180Y004180D03*
X021680Y002680D03*
X023680Y009180D03*
X025180Y010180D03*
X024180Y012680D03*
X026180Y012680D03*
X028680Y015180D03*
X020680Y015180D03*
X016680Y014680D03*
X015180Y014680D03*
X012680Y015180D03*
X010180Y012680D03*
X008180Y012680D03*
X008680Y014680D03*
X005680Y015180D03*
X002180Y011680D03*
X003180Y010680D03*
X003680Y008680D03*
X002180Y008680D03*
X016180Y012680D03*
X018180Y012680D03*
M02*
