%
M48
M72
T01C0.0236
T02C0.0315
T03C0.1260
%
T01
X4180Y2430
X3680Y2805
X3180Y3180
X2680Y4680
X1680Y5180
X2180Y5680
X3180Y6680
X4180Y6680
X5180Y6680
X5180Y5680
X7180Y4055
X8805Y3180
X9305Y3680
X9805Y3680
X11305Y4055
X12180Y4180
X12930Y3930
X12930Y3055
X15180Y4430
X15180Y4930
X15180Y5430
X13680Y5430
X13180Y6430
X15180Y6430
X17180Y7680
X19180Y7680
X19180Y6680
X19680Y5930
X17430Y4430
X21180Y4180
X21680Y2680
X23680Y6680
X20680Y8680
X19180Y9180
X16180Y9680
X12180Y8180
X9180Y9805
X7180Y8305
X8305Y7805
X8805Y7805
X9805Y6180
X8680Y5680
X8305Y5930
X3680Y8680
X2180Y8680
X3180Y10680
X2180Y11680
X8180Y12680
X10180Y12680
X8680Y14680
X5680Y15180
X12680Y15180
X15180Y14680
X16680Y14680
X16180Y12680
X18180Y12680
X20680Y15180
X24180Y12680
X26180Y12680
X28680Y15180
X25180Y10180
X23680Y9180
T02
X24430Y7680
X26180Y6180
X27180Y6180
X28180Y6180
X29180Y6180
X30180Y6180
X31180Y6180
X32180Y6180
X33180Y6180
X24430Y3680
X24680Y11180
X25680Y11180
X26680Y11180
X27680Y11180
X28680Y11180
X29680Y11180
X30680Y11180
X31680Y11180
X32680Y11180
X32680Y16180
X31680Y16180
X30680Y16180
X29680Y16180
X28680Y16180
X27680Y16180
X26680Y16180
X25680Y16180
X24680Y16180
X23680Y16180
X22680Y16180
X21680Y16180
X20680Y16180
X19680Y16180
X18680Y16180
X17680Y16180
X16680Y16180
X15680Y16180
X14680Y16180
X13680Y16180
X12680Y16180
X11680Y16180
X10680Y16180
X9680Y16180
X8680Y16180
X7680Y16180
X6680Y16180
X5680Y16180
X4680Y16180
X3680Y16180
X2680Y16180
X1680Y16180
X1680Y11180
X2680Y11180
X3680Y11180
X4680Y11180
X5680Y11180
X6680Y11180
X7680Y11180
X8680Y11180
X9680Y11180
X10680Y11180
X11680Y11180
X12680Y11180
X13680Y11180
X14680Y11180
X15680Y11180
X16680Y11180
X17680Y11180
X18680Y11180
X19680Y11180
X20680Y11180
X21680Y11180
X22680Y11180
X23680Y11180
T03
X1680Y1680
X1680Y18680
X34680Y18680
X34680Y1680
M30
