G75*
G70*
%OFA0B0*%
%FSLAX24Y24*%
%IPPOS*%
%LPD*%
%AMOC8*
5,1,8,0,0,1.08239X$1,22.5*
%
%ADD10C,0.0000*%
%ADD11C,0.1300*%
%ADD12OC8,0.0555*%
%ADD13R,0.0555X0.0555*%
%ADD14R,0.0591X0.0434*%
%ADD15R,0.0906X0.0276*%
%ADD16R,0.0257X0.0729*%
%ADD17R,0.0276X0.0906*%
%ADD18R,0.0473X0.0709*%
%ADD19C,0.0555*%
%ADD20C,0.0700*%
D10*
X000180Y000180D02*
X000180Y019865D01*
X036007Y019865D01*
X036007Y000180D01*
X000180Y000180D01*
X001050Y001680D02*
X001052Y001730D01*
X001058Y001780D01*
X001068Y001829D01*
X001082Y001877D01*
X001099Y001924D01*
X001120Y001969D01*
X001145Y002013D01*
X001173Y002054D01*
X001205Y002093D01*
X001239Y002130D01*
X001276Y002164D01*
X001316Y002194D01*
X001358Y002221D01*
X001402Y002245D01*
X001448Y002266D01*
X001495Y002282D01*
X001543Y002295D01*
X001593Y002304D01*
X001642Y002309D01*
X001693Y002310D01*
X001743Y002307D01*
X001792Y002300D01*
X001841Y002289D01*
X001889Y002274D01*
X001935Y002256D01*
X001980Y002234D01*
X002023Y002208D01*
X002064Y002179D01*
X002103Y002147D01*
X002139Y002112D01*
X002171Y002074D01*
X002201Y002034D01*
X002228Y001991D01*
X002251Y001947D01*
X002270Y001901D01*
X002286Y001853D01*
X002298Y001804D01*
X002306Y001755D01*
X002310Y001705D01*
X002310Y001655D01*
X002306Y001605D01*
X002298Y001556D01*
X002286Y001507D01*
X002270Y001459D01*
X002251Y001413D01*
X002228Y001369D01*
X002201Y001326D01*
X002171Y001286D01*
X002139Y001248D01*
X002103Y001213D01*
X002064Y001181D01*
X002023Y001152D01*
X001980Y001126D01*
X001935Y001104D01*
X001889Y001086D01*
X001841Y001071D01*
X001792Y001060D01*
X001743Y001053D01*
X001693Y001050D01*
X001642Y001051D01*
X001593Y001056D01*
X001543Y001065D01*
X001495Y001078D01*
X001448Y001094D01*
X001402Y001115D01*
X001358Y001139D01*
X001316Y001166D01*
X001276Y001196D01*
X001239Y001230D01*
X001205Y001267D01*
X001173Y001306D01*
X001145Y001347D01*
X001120Y001391D01*
X001099Y001436D01*
X001082Y001483D01*
X001068Y001531D01*
X001058Y001580D01*
X001052Y001630D01*
X001050Y001680D01*
X001050Y018680D02*
X001052Y018730D01*
X001058Y018780D01*
X001068Y018829D01*
X001082Y018877D01*
X001099Y018924D01*
X001120Y018969D01*
X001145Y019013D01*
X001173Y019054D01*
X001205Y019093D01*
X001239Y019130D01*
X001276Y019164D01*
X001316Y019194D01*
X001358Y019221D01*
X001402Y019245D01*
X001448Y019266D01*
X001495Y019282D01*
X001543Y019295D01*
X001593Y019304D01*
X001642Y019309D01*
X001693Y019310D01*
X001743Y019307D01*
X001792Y019300D01*
X001841Y019289D01*
X001889Y019274D01*
X001935Y019256D01*
X001980Y019234D01*
X002023Y019208D01*
X002064Y019179D01*
X002103Y019147D01*
X002139Y019112D01*
X002171Y019074D01*
X002201Y019034D01*
X002228Y018991D01*
X002251Y018947D01*
X002270Y018901D01*
X002286Y018853D01*
X002298Y018804D01*
X002306Y018755D01*
X002310Y018705D01*
X002310Y018655D01*
X002306Y018605D01*
X002298Y018556D01*
X002286Y018507D01*
X002270Y018459D01*
X002251Y018413D01*
X002228Y018369D01*
X002201Y018326D01*
X002171Y018286D01*
X002139Y018248D01*
X002103Y018213D01*
X002064Y018181D01*
X002023Y018152D01*
X001980Y018126D01*
X001935Y018104D01*
X001889Y018086D01*
X001841Y018071D01*
X001792Y018060D01*
X001743Y018053D01*
X001693Y018050D01*
X001642Y018051D01*
X001593Y018056D01*
X001543Y018065D01*
X001495Y018078D01*
X001448Y018094D01*
X001402Y018115D01*
X001358Y018139D01*
X001316Y018166D01*
X001276Y018196D01*
X001239Y018230D01*
X001205Y018267D01*
X001173Y018306D01*
X001145Y018347D01*
X001120Y018391D01*
X001099Y018436D01*
X001082Y018483D01*
X001068Y018531D01*
X001058Y018580D01*
X001052Y018630D01*
X001050Y018680D01*
X034050Y018680D02*
X034052Y018730D01*
X034058Y018780D01*
X034068Y018829D01*
X034082Y018877D01*
X034099Y018924D01*
X034120Y018969D01*
X034145Y019013D01*
X034173Y019054D01*
X034205Y019093D01*
X034239Y019130D01*
X034276Y019164D01*
X034316Y019194D01*
X034358Y019221D01*
X034402Y019245D01*
X034448Y019266D01*
X034495Y019282D01*
X034543Y019295D01*
X034593Y019304D01*
X034642Y019309D01*
X034693Y019310D01*
X034743Y019307D01*
X034792Y019300D01*
X034841Y019289D01*
X034889Y019274D01*
X034935Y019256D01*
X034980Y019234D01*
X035023Y019208D01*
X035064Y019179D01*
X035103Y019147D01*
X035139Y019112D01*
X035171Y019074D01*
X035201Y019034D01*
X035228Y018991D01*
X035251Y018947D01*
X035270Y018901D01*
X035286Y018853D01*
X035298Y018804D01*
X035306Y018755D01*
X035310Y018705D01*
X035310Y018655D01*
X035306Y018605D01*
X035298Y018556D01*
X035286Y018507D01*
X035270Y018459D01*
X035251Y018413D01*
X035228Y018369D01*
X035201Y018326D01*
X035171Y018286D01*
X035139Y018248D01*
X035103Y018213D01*
X035064Y018181D01*
X035023Y018152D01*
X034980Y018126D01*
X034935Y018104D01*
X034889Y018086D01*
X034841Y018071D01*
X034792Y018060D01*
X034743Y018053D01*
X034693Y018050D01*
X034642Y018051D01*
X034593Y018056D01*
X034543Y018065D01*
X034495Y018078D01*
X034448Y018094D01*
X034402Y018115D01*
X034358Y018139D01*
X034316Y018166D01*
X034276Y018196D01*
X034239Y018230D01*
X034205Y018267D01*
X034173Y018306D01*
X034145Y018347D01*
X034120Y018391D01*
X034099Y018436D01*
X034082Y018483D01*
X034068Y018531D01*
X034058Y018580D01*
X034052Y018630D01*
X034050Y018680D01*
X034050Y001680D02*
X034052Y001730D01*
X034058Y001780D01*
X034068Y001829D01*
X034082Y001877D01*
X034099Y001924D01*
X034120Y001969D01*
X034145Y002013D01*
X034173Y002054D01*
X034205Y002093D01*
X034239Y002130D01*
X034276Y002164D01*
X034316Y002194D01*
X034358Y002221D01*
X034402Y002245D01*
X034448Y002266D01*
X034495Y002282D01*
X034543Y002295D01*
X034593Y002304D01*
X034642Y002309D01*
X034693Y002310D01*
X034743Y002307D01*
X034792Y002300D01*
X034841Y002289D01*
X034889Y002274D01*
X034935Y002256D01*
X034980Y002234D01*
X035023Y002208D01*
X035064Y002179D01*
X035103Y002147D01*
X035139Y002112D01*
X035171Y002074D01*
X035201Y002034D01*
X035228Y001991D01*
X035251Y001947D01*
X035270Y001901D01*
X035286Y001853D01*
X035298Y001804D01*
X035306Y001755D01*
X035310Y001705D01*
X035310Y001655D01*
X035306Y001605D01*
X035298Y001556D01*
X035286Y001507D01*
X035270Y001459D01*
X035251Y001413D01*
X035228Y001369D01*
X035201Y001326D01*
X035171Y001286D01*
X035139Y001248D01*
X035103Y001213D01*
X035064Y001181D01*
X035023Y001152D01*
X034980Y001126D01*
X034935Y001104D01*
X034889Y001086D01*
X034841Y001071D01*
X034792Y001060D01*
X034743Y001053D01*
X034693Y001050D01*
X034642Y001051D01*
X034593Y001056D01*
X034543Y001065D01*
X034495Y001078D01*
X034448Y001094D01*
X034402Y001115D01*
X034358Y001139D01*
X034316Y001166D01*
X034276Y001196D01*
X034239Y001230D01*
X034205Y001267D01*
X034173Y001306D01*
X034145Y001347D01*
X034120Y001391D01*
X034099Y001436D01*
X034082Y001483D01*
X034068Y001531D01*
X034058Y001580D01*
X034052Y001630D01*
X034050Y001680D01*
D11*
X034680Y001680D03*
X034680Y018680D03*
X001680Y018680D03*
X001680Y001680D03*
D12*
X002680Y011180D03*
X003680Y011180D03*
X004680Y011180D03*
X005680Y011180D03*
X006680Y011180D03*
X007680Y011180D03*
X008680Y011180D03*
X010680Y011180D03*
X011680Y011180D03*
X012680Y011180D03*
X013680Y011180D03*
X014680Y011180D03*
X015680Y011180D03*
X016680Y011180D03*
X018680Y011180D03*
X019680Y011180D03*
X020680Y011180D03*
X021680Y011180D03*
X022680Y011180D03*
X023680Y011180D03*
X024680Y011180D03*
X026680Y011180D03*
X027680Y011180D03*
X028680Y011180D03*
X029680Y011180D03*
X030680Y011180D03*
X031680Y011180D03*
X032680Y011180D03*
X032680Y016180D03*
X031680Y016180D03*
X030680Y016180D03*
X029680Y016180D03*
X028680Y016180D03*
X027680Y016180D03*
X026680Y016180D03*
X025680Y016180D03*
X024680Y016180D03*
X023680Y016180D03*
X022680Y016180D03*
X021680Y016180D03*
X020680Y016180D03*
X019680Y016180D03*
X018680Y016180D03*
X017680Y016180D03*
X016680Y016180D03*
X015680Y016180D03*
X014680Y016180D03*
X013680Y016180D03*
X012680Y016180D03*
X011680Y016180D03*
X010680Y016180D03*
X009680Y016180D03*
X008680Y016180D03*
X007680Y016180D03*
X006680Y016180D03*
X005680Y016180D03*
X004680Y016180D03*
X003680Y016180D03*
X002680Y016180D03*
X001680Y016180D03*
D13*
X001680Y011180D03*
X009680Y011180D03*
X017680Y011180D03*
X025680Y011180D03*
D14*
X022988Y009929D03*
X022122Y009555D03*
X022988Y009181D03*
X020988Y009181D03*
X020122Y009555D03*
X020988Y009929D03*
X014988Y009929D03*
X014122Y009555D03*
X014988Y009181D03*
X012988Y009181D03*
X012122Y009555D03*
X012988Y009929D03*
X006988Y009929D03*
X006122Y009555D03*
X006988Y009181D03*
X004988Y009181D03*
X004122Y009555D03*
X004988Y009929D03*
X028122Y009555D03*
X028988Y009181D03*
X030122Y009555D03*
X030988Y009181D03*
X030988Y009929D03*
X028988Y009929D03*
D15*
X018204Y006930D03*
X018204Y006430D03*
X018204Y005930D03*
X018204Y005430D03*
X018204Y004930D03*
X018204Y004430D03*
X018204Y003930D03*
X018204Y003430D03*
X016156Y003430D03*
X016156Y003930D03*
X016156Y004430D03*
X016156Y004930D03*
X016156Y005430D03*
X016156Y005930D03*
X016156Y006430D03*
X016156Y006930D03*
D16*
X005680Y007570D03*
X005180Y007570D03*
X004680Y007570D03*
X004180Y007570D03*
X003680Y007570D03*
X003180Y007570D03*
X002680Y007570D03*
X002180Y007570D03*
X001680Y007570D03*
X001680Y003790D03*
X002180Y003790D03*
X002680Y003790D03*
X003180Y003790D03*
X003680Y003790D03*
X004180Y003790D03*
X004680Y003790D03*
X005180Y003790D03*
X005680Y003790D03*
D17*
X007805Y004906D03*
X008305Y004906D03*
X008805Y004906D03*
X009305Y004906D03*
X009805Y004906D03*
X010305Y004906D03*
X010805Y004906D03*
X011305Y004906D03*
X011305Y006954D03*
X010805Y006954D03*
X010305Y006954D03*
X009805Y006954D03*
X009305Y006954D03*
X008805Y006954D03*
X008305Y006954D03*
X007805Y006954D03*
D18*
X009905Y009805D03*
X011205Y009805D03*
X017405Y009805D03*
X018705Y009805D03*
X018405Y017555D03*
X019705Y017555D03*
X013705Y017555D03*
X012405Y017555D03*
X004330Y017430D03*
X003030Y017430D03*
X002955Y009805D03*
X001655Y009805D03*
X030905Y017555D03*
X032205Y017555D03*
D19*
X032180Y006437D02*
X032180Y005923D01*
X031180Y005923D02*
X031180Y006437D01*
X030180Y006437D02*
X030180Y005923D01*
X029180Y005923D02*
X029180Y006437D01*
X028180Y006437D02*
X028180Y005923D01*
X027180Y005923D02*
X027180Y006437D01*
X026180Y006437D02*
X026180Y005923D01*
X033180Y005923D02*
X033180Y006437D01*
D20*
X024430Y007680D03*
X024430Y003680D03*
M02*
